<svg width="318" height="309" viewBox="0 0 318 309" fill="none" xmlns="http://www.w3.org/2000/svg">
<path d="M159 308.725C246.348 308.725 317.157 267.843 317.157 217.413C317.157 166.983 246.348 126.102 159 126.102C71.6522 126.102 0.842743 166.983 0.842743 217.413C0.842743 267.843 71.6522 308.725 159 308.725Z" fill="#F5F5F5"/>
<path d="M133.403 270.24C132.673 270.61 131.866 270.803 131.047 270.803C130.229 270.803 129.422 270.61 128.692 270.24C127.389 269.488 127.389 268.271 128.692 267.519C129.422 267.149 130.229 266.956 131.047 266.956C131.866 266.956 132.673 267.149 133.403 267.519C134.706 268.271 134.706 269.488 133.403 270.24Z" fill="#455A64"/>
<path d="M134.391 194.143H127.725V268.801H134.391V194.143Z" fill="#455A64"/>
<path d="M55.2587 225.418C54.5287 225.789 53.7217 225.982 52.9031 225.982C52.0845 225.982 51.2774 225.789 50.5474 225.418C49.2443 224.666 49.2443 223.449 50.5474 222.697C51.2774 222.327 52.0845 222.134 52.9031 222.134C53.7217 222.134 54.5287 222.327 55.2587 222.697C56.5618 223.449 56.5618 224.666 55.2587 225.418Z" fill="#455A64"/>
<path d="M56.2397 149.322H49.5737V223.979H56.2397V149.322Z" fill="#455A64"/>
<path d="M249.495 202.528C248.765 202.898 247.958 203.091 247.14 203.091C246.321 203.091 245.514 202.898 244.784 202.528C243.481 201.812 243.481 200.559 244.784 199.807C245.514 199.437 246.321 199.243 247.14 199.243C247.958 199.243 248.765 199.437 249.495 199.807C250.798 200.559 250.798 201.776 249.495 202.528Z" fill="#455A64"/>
<path d="M250.476 126.438H243.81V201.096H250.476V126.438Z" fill="#455A64"/>
<path d="M171.351 157.706C170.621 158.077 169.814 158.27 168.995 158.27C168.177 158.27 167.37 158.077 166.64 157.706C165.337 156.954 165.337 155.737 166.64 154.985C167.37 154.615 168.177 154.422 168.995 154.422C169.814 154.422 170.621 154.615 171.351 154.985C172.654 155.737 172.654 156.954 171.351 157.706Z" fill="#455A64"/>
<path d="M172.332 81.6168H165.666V156.274H172.332V81.6168Z" fill="#455A64"/>
<path d="M32.8121 150.167V154.577L121.052 205.528V201.11L32.8121 150.167Z" fill="#FE662E"/>
<path opacity="0.3" d="M32.8121 150.167V154.577L121.052 205.528V201.11L32.8121 150.167Z" fill="black"/>
<path d="M263.3 118.985L121.052 201.11V205.528L263.3 123.395V118.985Z" fill="#FE662E"/>
<path opacity="0.3" d="M263.3 118.985L121.052 201.11V205.528L263.3 123.395V118.985Z" fill="white"/>
<path d="M175.06 68.0415L32.8121 150.167L121.052 201.11L263.3 118.985L175.06 68.0415Z" fill="#FE662E"/>
<path d="M29.762 198.669V241.779C29.762 245.015 31.91 248.223 36.206 250.736C44.798 255.684 58.6669 255.684 67.2374 250.736C71.5334 248.259 73.6814 245.008 73.6814 241.779V198.669H29.762Z" fill="#37474F"/>
<path d="M51.7074 211.148C63.8275 211.148 73.6528 205.478 73.6528 198.482C73.6528 191.487 63.8275 185.816 51.7074 185.816C39.5873 185.816 29.762 191.487 29.762 198.482C29.762 205.478 39.5873 211.148 51.7074 211.148Z" fill="#455A64"/>
<path d="M66.7434 204.447C66.0703 205 65.3517 205.496 64.5954 205.929C64.4522 206.015 64.3018 206.101 64.1443 206.179C63.1508 206.712 62.1165 207.164 61.0512 207.533C60.6287 207.676 60.1848 207.819 59.7409 207.934C58.7266 208.24 57.6934 208.479 56.6478 208.65C55.7528 208.8 54.8363 208.907 53.927 208.972C53.5547 208.972 53.211 209.022 52.8172 209.029C52.1012 209.029 51.3852 209.029 50.7265 209.029C49.8601 209.029 48.9937 208.95 48.1417 208.85C47.0524 208.731 45.9715 208.545 44.9054 208.292C44.4758 208.191 44.0605 208.091 43.6452 207.962C41.9496 207.5 40.3187 206.826 38.7907 205.957C38.1308 205.579 37.4991 205.153 36.9005 204.683C32.7405 201.375 32.3396 196.986 35.6761 193.463C36.5898 192.512 37.6394 191.701 38.7907 191.057C40.0669 190.328 41.4186 189.74 42.8218 189.303C43.0867 189.21 43.3731 189.124 43.6452 189.053C44.3924 188.836 45.1499 188.657 45.9149 188.516C46.7455 188.358 47.5832 188.229 48.4424 188.143C51.1756 187.855 53.935 187.932 56.6478 188.372L56.8984 188.408C57.8649 188.566 58.8213 188.782 59.7624 189.053C61.0674 189.409 62.3357 189.888 63.55 190.485C63.9152 190.656 64.266 190.85 64.6169 191.05C65.1692 191.367 65.7023 191.716 66.2136 192.096C66.9705 192.659 67.6558 193.313 68.2542 194.043C70.932 197.365 70.4523 201.361 66.7434 204.447Z" fill="#263238"/>
<path d="M52.3804 142.727V156.102H59.2397V147.002C59.2397 147.002 56.6836 143.272 52.3804 142.727Z" fill="#FE662E"/>
<path opacity="0.3" d="M52.3804 142.727V156.102H59.2397V147.002C59.2397 147.002 56.6836 143.272 52.3804 142.727Z" fill="white"/>
<path d="M56.6621 146.078V208.635C55.7671 208.786 54.8506 208.893 53.9413 208.957C53.569 208.957 53.2253 209.008 52.8315 209.015C52.1155 209.015 51.3995 209.015 50.7408 209.015C49.8744 209.015 49.0081 208.936 48.156 208.836C47.0667 208.717 45.9858 208.531 44.9197 208.277C44.4901 208.177 44.0748 208.077 43.6595 207.948V146.078H56.6621Z" fill="#FE662E"/>
<path opacity="0.7" d="M56.6621 146.078V208.635C55.7671 208.786 54.8506 208.893 53.9413 208.957C53.569 208.957 53.2253 209.008 52.8315 209.015C52.1155 209.015 51.3995 209.015 50.7408 209.015C49.8744 209.015 49.0081 208.936 48.156 208.836C47.0667 208.717 45.9858 208.531 44.9197 208.277C44.4901 208.177 44.0748 208.077 43.6595 207.948V146.078H56.6621Z" fill="white"/>
<path d="M59.7552 148.169V207.934C58.741 208.24 57.7077 208.479 56.6621 208.65C55.7671 208.8 54.8506 208.907 53.9413 208.972C53.569 208.972 53.2253 209.022 52.8315 209.029V153.303C54.1786 153.103 55.4773 152.657 56.6621 151.985C57.7373 151.39 58.6306 150.514 59.2469 149.451C59.4861 149.055 59.6579 148.621 59.7552 148.169Z" fill="#FE662E"/>
<path opacity="0.5" d="M59.7552 148.169V207.934C58.741 208.24 57.7077 208.479 56.6621 208.65C55.7671 208.8 54.8506 208.907 53.9413 208.972C53.569 208.972 53.2253 209.022 52.8315 209.029V153.303C54.1786 153.103 55.4773 152.657 56.6621 151.985C57.7373 151.39 58.6306 150.514 59.2469 149.451C59.4861 149.055 59.6579 148.621 59.7552 148.169Z" fill="white"/>
<path d="M53.1537 153.568C53.0732 153.565 52.9963 153.533 52.9378 153.478C52.8792 153.423 52.843 153.348 52.8359 153.267C52.8288 153.187 52.8515 153.107 52.8995 153.042C52.9475 152.978 53.0176 152.933 53.0964 152.916C54.3082 152.696 55.4746 152.275 56.5476 151.67C58.1944 150.725 59.0965 149.479 59.0965 148.176C59.0965 146.873 58.1944 145.627 56.5476 144.675C54.5867 143.629 52.39 143.104 50.168 143.15C50.1212 143.157 50.0734 143.154 50.0279 143.14C49.9824 143.127 49.9404 143.104 49.9045 143.074C49.8686 143.043 49.8399 143.004 49.8202 142.961C49.8004 142.918 49.7902 142.871 49.7902 142.824C49.7902 142.777 49.8004 142.73 49.8202 142.687C49.8399 142.644 49.8686 142.606 49.9045 142.575C49.9404 142.544 49.9824 142.521 50.0279 142.508C50.0734 142.495 50.1212 142.491 50.168 142.498C52.5078 142.451 54.8206 143.005 56.8841 144.109C58.7385 145.183 59.7481 146.622 59.7481 148.176C59.7481 149.73 58.7242 151.169 56.8841 152.243C55.7446 152.879 54.5087 153.324 53.2253 153.561L53.1537 153.568Z" fill="#FE662E"/>
<path opacity="0.5" d="M53.1537 153.568C53.0732 153.565 52.9963 153.533 52.9378 153.478C52.8792 153.423 52.843 153.348 52.8359 153.267C52.8288 153.187 52.8515 153.107 52.8995 153.042C52.9475 152.978 53.0176 152.933 53.0964 152.916C54.3082 152.696 55.4746 152.275 56.5476 151.67C58.1944 150.725 59.0965 149.479 59.0965 148.176C59.0965 146.873 58.1944 145.627 56.5476 144.675C54.5867 143.629 52.39 143.104 50.168 143.15C50.1212 143.157 50.0734 143.154 50.0279 143.14C49.9824 143.127 49.9404 143.104 49.9045 143.074C49.8686 143.043 49.8399 143.004 49.8202 142.961C49.8004 142.918 49.7902 142.871 49.7902 142.824C49.7902 142.777 49.8004 142.73 49.8202 142.687C49.8399 142.644 49.8686 142.606 49.9045 142.575C49.9404 142.544 49.9824 142.521 50.0279 142.508C50.0734 142.495 50.1212 142.491 50.168 142.498C52.5078 142.451 54.8206 143.005 56.8841 144.109C58.7385 145.183 59.7481 146.622 59.7481 148.176C59.7481 149.73 58.7242 151.169 56.8841 152.243C55.7446 152.879 54.5087 153.324 53.2253 153.561L53.1537 153.568Z" fill="white"/>
<path d="M54.7576 143.601C57.2994 145.033 57.2994 147.439 54.7576 148.907C53.3334 149.63 51.7584 150.008 50.1608 150.008C48.5633 150.008 46.9883 149.63 45.5641 148.907C43.0223 147.475 43.0223 145.062 45.5641 143.601C46.9883 142.877 48.5633 142.5 50.1608 142.5C51.7584 142.5 53.3334 142.877 54.7576 143.601Z" fill="#FE662E"/>
<path opacity="0.5" d="M54.7576 143.601C57.2994 145.033 57.2994 147.439 54.7576 148.907C53.3334 149.63 51.7584 150.008 50.1608 150.008C48.5633 150.008 46.9883 149.63 45.5641 148.907C43.0223 147.475 43.0223 145.062 45.5641 143.601C46.9883 142.877 48.5633 142.5 50.1608 142.5C51.7584 142.5 53.3334 142.877 54.7576 143.601Z" fill="white"/>
<path d="M66.7792 165.718L65.3472 175.642L70.4236 176.358L71.4045 169.599C70.4177 167.76 68.7617 166.37 66.7792 165.718Z" fill="#FE662E"/>
<path opacity="0.3" d="M66.7792 165.718L65.3472 175.642L70.4236 176.358L71.4045 169.599C70.4177 167.76 68.7617 166.37 66.7792 165.718Z" fill="white"/>
<path d="M69.5931 168.654L68.9988 172.742L68.9558 173.036V173.301L68.5477 176.1L66.2422 192.074L64.1944 206.179C63.2009 206.712 62.1666 207.164 61.1013 207.533C60.6789 207.676 60.235 207.819 59.791 207.934C58.7767 208.24 57.7435 208.479 56.6979 208.65C55.8029 208.8 54.8864 208.907 53.9771 208.972L56.6979 190.127L56.9485 188.408L59.8125 168.761L60.0273 167.286L66.4713 168.224L69.6289 168.682L69.5931 168.654Z" fill="#FE662E"/>
<path opacity="0.7" d="M69.5931 168.654L68.9988 172.742L68.9558 173.036V173.301L68.5477 176.1L66.2422 192.074L64.1944 206.179C63.2009 206.712 62.1666 207.164 61.1013 207.533C60.6789 207.676 60.235 207.819 59.791 207.934C58.7767 208.24 57.7435 208.479 56.6979 208.65C55.8029 208.8 54.8864 208.907 53.9771 208.972L56.6979 190.127L56.9485 188.408L59.8125 168.761L60.0273 167.286L66.4713 168.224L69.6289 168.682L69.5931 168.654Z" fill="white"/>
<path d="M71.648 170.544L68.247 194.05L66.7434 204.475C66.0703 205.029 65.3517 205.525 64.5954 205.957C64.4522 206.043 64.3018 206.129 64.1443 206.208C63.1508 206.74 62.1165 207.193 61.0512 207.561L63.5429 190.47L65.6909 175.699L65.9916 173.601C67.0076 173.596 68.0142 173.407 68.963 173.043C69.8096 172.717 70.552 172.168 71.111 171.453C71.3378 171.181 71.5192 170.874 71.648 170.544Z" fill="#FE662E"/>
<path opacity="0.5" d="M71.648 170.544L68.247 194.05L66.7434 204.475C66.0703 205.029 65.3517 205.525 64.5954 205.957C64.4522 206.043 64.3018 206.129 64.1443 206.208C63.1508 206.74 62.1165 207.193 61.0512 207.561L63.5429 190.47L65.6909 175.699L65.9916 173.601C67.0076 173.596 68.0142 173.407 68.963 173.043C69.8096 172.717 70.552 172.168 71.111 171.453C71.3378 171.181 71.5192 170.874 71.648 170.544Z" fill="white"/>
<path d="M66.1921 173.823C66.1357 173.816 66.0837 173.79 66.0456 173.747C66.0074 173.705 65.9857 173.651 65.9844 173.594C65.9825 173.562 65.9869 173.53 65.9974 173.5C66.0078 173.47 66.0242 173.442 66.0455 173.418C66.0668 173.394 66.0926 173.374 66.1214 173.36C66.1502 173.346 66.1816 173.338 66.2136 173.336C67.1351 173.302 68.0447 173.115 68.9057 172.785C70.2231 172.262 71.0537 171.439 71.1683 170.472C71.2828 169.506 70.7673 168.489 69.6575 167.608C68.3132 166.627 66.7412 166.003 65.0894 165.797C65.0557 165.795 65.0228 165.786 64.9928 165.77C64.9628 165.755 64.9364 165.733 64.9151 165.707C64.8939 165.681 64.8783 165.651 64.8694 165.618C64.8605 165.585 64.8585 165.551 64.8635 165.518C64.8685 165.485 64.8804 165.453 64.8984 165.424C64.9164 165.396 64.9401 165.371 64.9681 165.352C64.9961 165.333 65.0277 165.32 65.0609 165.314C65.0941 165.308 65.1282 165.309 65.161 165.317C66.898 165.531 68.5503 166.189 69.9582 167.229C71.2112 168.217 71.8127 169.377 71.648 170.544C71.4833 171.711 70.574 172.649 69.0847 173.243C68.1693 173.596 67.2011 173.792 66.2207 173.823H66.1921Z" fill="#FE662E"/>
<path opacity="0.5" d="M66.1921 173.823C66.1357 173.816 66.0837 173.79 66.0456 173.747C66.0074 173.705 65.9857 173.651 65.9844 173.594C65.9825 173.562 65.9869 173.53 65.9974 173.5C66.0078 173.47 66.0242 173.442 66.0455 173.418C66.0668 173.394 66.0926 173.374 66.1214 173.36C66.1502 173.346 66.1816 173.338 66.2136 173.336C67.1351 173.302 68.0447 173.115 68.9057 172.785C70.2231 172.262 71.0537 171.439 71.1683 170.472C71.2828 169.506 70.7673 168.489 69.6575 167.608C68.3132 166.627 66.7412 166.003 65.0894 165.797C65.0557 165.795 65.0228 165.786 64.9928 165.77C64.9628 165.755 64.9364 165.733 64.9151 165.707C64.8939 165.681 64.8783 165.651 64.8694 165.618C64.8605 165.585 64.8585 165.551 64.8635 165.518C64.8685 165.485 64.8804 165.453 64.8984 165.424C64.9164 165.396 64.9401 165.371 64.9681 165.352C64.9961 165.333 65.0277 165.32 65.0609 165.314C65.0941 165.308 65.1282 165.309 65.161 165.317C66.898 165.531 68.5503 166.189 69.9582 167.229C71.2112 168.217 71.8127 169.377 71.648 170.544C71.4833 171.711 70.574 172.649 69.0847 173.243C68.1693 173.596 67.2011 173.792 66.2207 173.823H66.1921Z" fill="white"/>
<path d="M68.4475 166.62C70.1659 167.981 69.8795 169.735 67.8747 170.551C66.743 170.933 65.5374 171.042 64.3555 170.87C63.1737 170.699 62.049 170.251 61.0727 169.563C59.3543 168.21 59.6407 166.449 61.6383 165.639C62.7705 165.256 63.9771 165.145 65.1602 165.316C66.3432 165.486 67.4695 165.933 68.4475 166.62Z" fill="#FE662E"/>
<path opacity="0.5" d="M68.4475 166.62C70.1659 167.981 69.8795 169.735 67.8747 170.551C66.743 170.933 65.5374 171.042 64.3555 170.87C63.1737 170.699 62.049 170.251 61.0727 169.563C59.3543 168.21 59.6407 166.449 61.6383 165.639C62.7705 165.256 63.9771 165.145 65.1602 165.316C66.3432 165.486 67.4695 165.933 68.4475 166.62Z" fill="white"/>
<path d="M39.0915 158.479L40.2943 169.463L45.9149 168.847L45.0987 161.365C45.0987 161.365 42.6715 158.537 39.0915 158.479Z" fill="#FE662E"/>
<path opacity="0.3" d="M39.0915 158.479L40.2943 169.463L45.9149 168.847L45.0987 161.365C45.0987 161.365 42.6715 158.537 39.0915 158.479Z" fill="white"/>
<path d="M48.1561 208.821C47.0667 208.703 45.9858 208.516 44.9197 208.263C44.4901 208.163 44.0749 208.062 43.6596 207.934C41.9639 207.471 40.333 206.797 38.8051 205.929C38.1451 205.55 37.5134 205.124 36.9148 204.654L35.6905 193.435L32.268 161.995L39.428 161.215L42.9292 160.828L43.4233 165.367V165.675V165.983L43.6166 167.709L43.7598 169.076L45.9078 188.487L48.1561 208.821Z" fill="#FE662E"/>
<path opacity="0.7" d="M48.1561 208.821C47.0667 208.703 45.9858 208.516 44.9197 208.263C44.4901 208.163 44.0749 208.062 43.6596 207.934C41.9639 207.471 40.333 206.797 38.8051 205.929C38.1451 205.55 37.5134 205.124 36.9148 204.654L35.6905 193.435L32.268 161.995L39.428 161.215L42.9292 160.828L43.4233 165.367V165.675V165.983L43.6166 167.709L43.7598 169.076L45.9078 188.487L48.1561 208.821Z" fill="white"/>
<path d="M48.156 208.821C47.0667 208.703 45.9858 208.516 44.9197 208.263L43.6596 196.757L42.8362 189.275L40.6882 169.427L40.4376 167.1C41.5286 166.818 42.5563 166.333 43.4662 165.668C43.545 165.611 43.6238 165.561 43.6882 165.503C44.4108 164.936 44.9815 164.198 45.3493 163.355C45.5088 163.007 45.6104 162.634 45.65 162.253L48.514 188.086L50.7981 208.972C49.8744 208.979 49.0081 208.922 48.156 208.821Z" fill="#FE662E"/>
<path opacity="0.5" d="M48.156 208.821C47.0667 208.703 45.9858 208.516 44.9197 208.263L43.6596 196.757L42.8362 189.275L40.6882 169.427L40.4376 167.1C41.5286 166.818 42.5563 166.333 43.4662 165.668C43.545 165.611 43.6238 165.561 43.6882 165.503C44.4108 164.936 44.9815 164.198 45.3493 163.355C45.5088 163.007 45.6104 162.634 45.65 162.253L48.514 188.086L50.7981 208.972C49.8744 208.979 49.0081 208.922 48.156 208.821Z" fill="white"/>
<path d="M40.7025 167.293C40.6397 167.299 40.5769 167.283 40.5246 167.248C40.4724 167.213 40.434 167.161 40.4161 167.1C40.4049 167.067 40.4006 167.031 40.4032 166.996C40.4059 166.961 40.4154 166.927 40.4314 166.896C40.4474 166.864 40.4695 166.837 40.4964 166.814C40.5232 166.791 40.5544 166.774 40.5879 166.764C41.5629 166.475 42.4825 166.025 43.3087 165.432C44.576 164.508 45.2061 163.413 45.0844 162.339C44.9627 161.265 44.1178 160.334 42.6858 159.704C40.9817 159.019 39.1297 158.784 37.3086 159.024C37.2736 159.029 37.238 159.026 37.2039 159.017C37.1698 159.008 37.138 158.991 37.1105 158.969C37.083 158.947 37.0603 158.92 37.0439 158.888C37.0275 158.857 37.0177 158.823 37.0151 158.787C37.0088 158.717 37.0297 158.646 37.0736 158.59C37.1175 158.534 37.1811 158.497 37.2513 158.487C39.1647 158.237 41.1099 158.484 42.9006 159.203C44.5187 159.919 45.4853 161 45.6214 162.274C45.7574 163.549 45.0557 164.816 43.6309 165.854C42.7619 166.487 41.7942 166.97 40.7669 167.286L40.7025 167.293Z" fill="#FE662E"/>
<path opacity="0.5" d="M40.7025 167.293C40.6397 167.299 40.5769 167.283 40.5246 167.248C40.4724 167.213 40.434 167.161 40.4161 167.1C40.4049 167.067 40.4006 167.031 40.4032 166.996C40.4059 166.961 40.4154 166.927 40.4314 166.896C40.4474 166.864 40.4695 166.837 40.4964 166.814C40.5232 166.791 40.5544 166.774 40.5879 166.764C41.5629 166.475 42.4825 166.025 43.3087 165.432C44.576 164.508 45.2061 163.413 45.0844 162.339C44.9627 161.265 44.1178 160.334 42.6858 159.704C40.9817 159.019 39.1297 158.784 37.3086 159.024C37.2736 159.029 37.238 159.026 37.2039 159.017C37.1698 159.008 37.138 158.991 37.1105 158.969C37.083 158.947 37.0603 158.92 37.0439 158.888C37.0275 158.857 37.0177 158.823 37.0151 158.787C37.0088 158.717 37.0297 158.646 37.0736 158.59C37.1175 158.534 37.1811 158.497 37.2513 158.487C39.1647 158.237 41.1099 158.484 42.9006 159.203C44.5187 159.919 45.4853 161 45.6214 162.274C45.7574 163.549 45.0557 164.816 43.6309 165.854C42.7619 166.487 41.7942 166.97 40.7669 167.286L40.7025 167.293Z" fill="white"/>
<path d="M41.1178 158.966C43.3302 159.94 43.545 161.888 41.5975 163.312C40.4941 164.033 39.2363 164.483 37.9263 164.626C36.6162 164.769 35.2909 164.601 34.058 164.136C31.8456 163.169 31.6379 161.215 33.5854 159.79C34.6875 159.069 35.9441 158.619 37.253 158.476C38.5619 158.333 39.8861 158.501 41.1178 158.966Z" fill="#FE662E"/>
<path opacity="0.5" d="M41.1178 158.966C43.3302 159.94 43.545 161.888 41.5975 163.312C40.4941 164.033 39.2363 164.483 37.9263 164.626C36.6162 164.769 35.2909 164.601 34.058 164.136C31.8456 163.169 31.6379 161.215 33.5854 159.79C34.6875 159.069 35.9441 158.619 37.253 158.476C38.5619 158.333 39.8861 158.501 41.1178 158.966Z" fill="white"/>
<path d="M213.824 112.691L205.232 117.639C204.892 117.793 204.52 117.865 204.147 117.849C203.774 117.833 203.41 117.729 203.084 117.546L173.9 100.698C173.263 100.333 173.184 99.7817 173.75 99.4595L182.342 94.512C182.682 94.3582 183.054 94.2865 183.427 94.3027C183.8 94.3188 184.164 94.4224 184.49 94.6051L213.667 111.453C214.304 111.818 214.368 112.369 213.824 112.691Z" fill="#263238"/>
<path d="M188.929 99.4524L182.327 103.262L176.886 100.125L183.487 96.3163L188.929 99.4524Z" fill="#FE662E"/>
<path d="M196.096 103.591L189.494 107.4L184.06 104.264L190.654 100.455L196.096 103.591Z" fill="#FE662E"/>
<path d="M203.263 107.729L196.669 111.546L191.227 108.402L197.829 104.593L203.263 107.729Z" fill="#FE662E"/>
<path d="M210.437 111.875L203.836 115.684L198.401 112.541L204.996 108.732L210.437 111.875Z" fill="#FE662E"/>
<path opacity="0.4" d="M188.929 99.4524L182.327 103.262L176.886 100.125L183.487 96.3163L188.929 99.4524Z" fill="black"/>
<path opacity="0.5" d="M196.096 103.591L189.494 107.4L184.06 104.264L190.654 100.455L196.096 103.591Z" fill="black"/>
<path opacity="0.6" d="M203.263 107.729L196.669 111.546L191.227 108.402L197.829 104.593L203.263 107.729Z" fill="black"/>
<path opacity="0.8" d="M210.437 111.875L203.836 115.684L198.401 112.541L204.996 108.732L210.437 111.875Z" fill="black"/>
<path d="M215.485 103.598L208.218 110.314C207.915 110.543 207.563 110.697 207.19 110.764C206.817 110.831 206.433 110.81 206.07 110.701L173.893 100.677C173.177 100.462 173.005 99.9607 173.47 99.5025L180.738 92.7864C181.04 92.5567 181.392 92.4018 181.765 92.3346C182.139 92.2674 182.523 92.2897 182.886 92.3998L215.063 102.424C215.757 102.639 215.951 103.161 215.485 103.598Z" fill="#37474F"/>
<path d="M188.277 96.1731L182.685 101.35L176.685 99.481L182.284 94.3115L188.277 96.1731Z" fill="#FE662E"/>
<path d="M196.189 98.6362L190.59 103.806L184.597 101.937L190.189 96.7674L196.189 98.6362Z" fill="#FE662E"/>
<path d="M204.094 101.092L198.502 106.262L192.502 104.393L198.101 99.2233L204.094 101.092Z" fill="#FE662E"/>
<path d="M211.998 103.548L206.406 108.717L200.406 106.856L206.005 101.679L211.998 103.548Z" fill="#FE662E"/>
<path opacity="0.1" d="M188.277 96.1731L182.685 101.35L176.685 99.481L182.284 94.3115L188.277 96.1731Z" fill="white"/>
<path opacity="0.1" d="M204.094 101.092L198.502 106.262L192.502 104.393L198.101 99.2233L204.094 101.092Z" fill="black"/>
<path opacity="0.2" d="M211.998 103.548L206.406 108.717L200.406 106.856L206.005 101.679L211.998 103.548Z" fill="black"/>
<path d="M215.192 94.9846L209.464 103.054C209.218 103.335 208.91 103.555 208.565 103.695C208.219 103.836 207.845 103.893 207.473 103.863L173.929 100.698C173.213 100.634 172.905 100.154 173.277 99.6385L179.005 91.5692C179.251 91.288 179.558 91.0679 179.904 90.9262C180.249 90.7846 180.623 90.7252 180.996 90.753L214.54 93.9177C215.263 93.9893 215.564 94.4619 215.192 94.9846Z" fill="#455A64"/>
<path d="M187.046 93.3163L182.628 99.5312L176.377 98.944L180.788 92.7292L187.046 93.3163Z" fill="#FE662E"/>
<path d="M195.287 94.0967L190.876 100.304L184.618 99.7173L189.036 93.5024L195.287 94.0967Z" fill="#FE662E"/>
<path d="M203.528 94.87L199.117 101.085L192.867 100.498L197.277 94.2829L203.528 94.87Z" fill="#FE662E"/>
<path d="M211.769 95.6504L207.359 101.865L201.108 101.271L205.519 95.0633L211.769 95.6504Z" fill="#FE662E"/>
<path opacity="0.8" d="M187.046 93.3163L182.628 99.5312L176.377 98.944L180.788 92.7292L187.046 93.3163Z" fill="white"/>
<path opacity="0.6" d="M195.287 94.0967L190.876 100.304L184.618 99.7173L189.036 93.5024L195.287 94.0967Z" fill="white"/>
<path opacity="0.4" d="M203.528 94.87L199.117 101.085L192.867 100.498L197.277 94.2829L203.528 94.87Z" fill="white"/>
<path opacity="0.2" d="M211.769 95.6504L207.359 101.865L201.108 101.271L205.519 95.0633L211.769 95.6504Z" fill="white"/>
<path d="M172.153 102.596C171.523 102.599 170.909 102.395 170.407 102.014C169.905 101.634 169.542 101.098 169.375 100.491C169.273 100.126 169.244 99.7444 169.289 99.3683C169.334 98.9922 169.453 98.6288 169.639 98.2987C169.825 97.9685 170.074 97.6783 170.372 97.4444C170.67 97.2105 171.011 97.0377 171.376 96.9357C171.741 96.8336 172.122 96.8045 172.498 96.8498C172.874 96.8952 173.238 97.0142 173.568 97.2C173.898 97.3858 174.188 97.6349 174.422 97.9329C174.656 98.2309 174.829 98.5721 174.931 98.9369L174.373 99.0872C174.207 98.4976 173.815 97.9978 173.281 97.6976C172.747 97.3975 172.116 97.3218 171.526 97.487C170.937 97.6522 170.437 98.0449 170.137 98.5786C169.837 99.1123 169.761 99.7434 169.926 100.333C170.009 100.627 170.148 100.901 170.337 101.14C170.526 101.38 170.76 101.58 171.026 101.729C171.292 101.878 171.584 101.973 171.887 102.008C172.19 102.044 172.497 102.02 172.79 101.937C173.083 101.855 173.356 101.717 173.595 101.529C173.833 101.341 174.032 101.107 174.179 100.841L174.68 101.128C174.428 101.572 174.063 101.942 173.621 102.2C173.18 102.458 172.678 102.594 172.167 102.596H172.153Z" fill="#E0E0E0"/>
<path d="M131.57 170.064L107.326 184.062L76.7316 166.398L101.004 152.372C101.319 152.189 101.678 152.093 102.042 152.093C102.407 152.093 102.765 152.189 103.08 152.372L131.549 168.804C131.663 168.864 131.76 168.953 131.828 169.063C131.896 169.172 131.933 169.299 131.935 169.428C131.937 169.557 131.905 169.684 131.84 169.796C131.776 169.908 131.683 170.001 131.57 170.064Z" fill="#FE662E"/>
<path opacity="0.7" d="M131.57 170.064L107.326 184.062L76.7316 166.398L101.004 152.372C101.319 152.189 101.678 152.093 102.042 152.093C102.407 152.093 102.765 152.189 103.08 152.372L131.549 168.804C131.663 168.864 131.76 168.953 131.828 169.063C131.896 169.172 131.933 169.299 131.935 169.428C131.937 169.557 131.905 169.684 131.84 169.796C131.776 169.908 131.683 170.001 131.57 170.064Z" fill="black"/>
<path d="M129.895 169.549L107.326 182.594L78.8509 166.126L101.462 153.074C101.756 152.905 102.09 152.816 102.429 152.816C102.768 152.816 103.101 152.905 103.395 153.074L129.887 168.375C129.992 168.432 130.079 168.517 130.141 168.62C130.202 168.723 130.234 168.84 130.235 168.96C130.236 169.079 130.205 169.197 130.145 169.3C130.085 169.404 129.999 169.49 129.895 169.549Z" fill="white"/>
<path d="M107.326 182.58V180.038L130.231 166.814V168.983L107.326 182.58Z" fill="white"/>
<path d="M107.326 182.58V180.038L78.8509 163.592V166.133L107.326 182.58Z" fill="#E0E0E0"/>
<path d="M131.57 166.04L107.326 180.038L76.7316 162.374L101.004 148.348C101.319 148.165 101.678 148.069 102.042 148.069C102.407 148.069 102.765 148.165 103.08 148.348L131.549 164.816C131.655 164.878 131.743 164.966 131.806 165.072C131.868 165.179 131.902 165.299 131.904 165.422C131.906 165.545 131.877 165.667 131.818 165.775C131.76 165.883 131.674 165.975 131.57 166.04Z" fill="#FE662E"/>
<path opacity="0.5" d="M131.57 166.04L107.326 180.038L76.7316 162.374L101.004 148.348C101.319 148.165 101.678 148.069 102.042 148.069C102.407 148.069 102.765 148.165 103.08 148.348L131.549 164.816C131.655 164.878 131.743 164.966 131.806 165.072C131.868 165.179 131.902 165.299 131.904 165.422C131.906 165.545 131.877 165.667 131.818 165.775C131.76 165.883 131.674 165.975 131.57 166.04Z" fill="black"/>
<path d="M104.169 182.236C104.097 182.27 104.019 182.287 103.94 182.287C103.86 182.287 103.782 182.27 103.71 182.236C103.623 182.191 103.549 182.122 103.499 182.037C103.448 181.953 103.422 181.855 103.424 181.757V179.458C103.424 178.937 103.559 178.425 103.816 177.972C104.074 177.519 104.444 177.14 104.892 176.873L104.978 176.823C105.018 176.797 105.066 176.783 105.114 176.783C105.162 176.783 105.209 176.797 105.25 176.823C105.292 176.846 105.328 176.88 105.352 176.922C105.376 176.964 105.388 177.011 105.386 177.06C105.386 177.187 105.436 177.309 105.526 177.399C105.616 177.489 105.738 177.539 105.866 177.539C105.993 177.539 106.115 177.489 106.205 177.399C106.295 177.309 106.345 177.187 106.345 177.06C106.345 176.843 106.287 176.63 106.178 176.443C106.069 176.256 105.913 176.101 105.725 175.993C105.537 175.886 105.324 175.83 105.107 175.831C104.89 175.832 104.678 175.89 104.491 176L104.405 176.057C103.815 176.408 103.326 176.906 102.986 177.502C102.646 178.098 102.466 178.772 102.465 179.458V181.757C102.466 182.028 102.54 182.295 102.68 182.528C102.82 182.761 103.02 182.952 103.259 183.081C103.481 183.195 103.726 183.254 103.975 183.253C104.274 183.256 104.566 183.169 104.813 183.002C104.903 182.937 104.968 182.844 104.999 182.738L104.169 182.236Z" fill="white"/>
<path d="M99.6364 179.623C99.5552 179.65 99.4689 179.657 99.3843 179.645C99.2997 179.632 99.2192 179.6 99.1495 179.55C99.0797 179.501 99.0226 179.436 98.9828 179.36C98.943 179.284 98.9216 179.2 98.9204 179.115V176.816C98.9178 176.299 99.0481 175.789 99.2989 175.337C99.5496 174.884 99.9124 174.504 100.352 174.231L100.445 174.181C100.487 174.158 100.534 174.146 100.582 174.146C100.629 174.146 100.676 174.158 100.718 174.181C100.758 174.206 100.792 174.241 100.815 174.282C100.839 174.323 100.852 174.37 100.854 174.418C100.845 174.485 100.851 174.553 100.872 174.618C100.892 174.683 100.925 174.743 100.97 174.794C101.015 174.845 101.071 174.886 101.133 174.913C101.195 174.941 101.262 174.956 101.33 174.956C101.398 174.956 101.465 174.941 101.527 174.913C101.589 174.886 101.644 174.845 101.689 174.794C101.734 174.743 101.768 174.683 101.788 174.618C101.808 174.553 101.814 174.485 101.806 174.418C101.806 174.202 101.748 173.99 101.64 173.803C101.531 173.617 101.375 173.462 101.188 173.355C101 173.248 100.788 173.193 100.572 173.195C100.356 173.197 100.144 173.255 99.9586 173.365L99.8727 173.415C99.2821 173.767 98.7929 174.266 98.4528 174.863C98.1127 175.461 97.9333 176.136 97.9323 176.823V179.122C97.9326 179.394 98.0066 179.661 98.1466 179.894C98.2865 180.127 98.4872 180.318 98.7271 180.446C98.9484 180.56 99.1941 180.619 99.4431 180.618C99.7384 180.617 100.027 180.53 100.274 180.368C100.367 180.306 100.434 180.212 100.46 180.103L99.6364 179.623Z" fill="white"/>
<path d="M95.1041 177.01C95.0336 177.043 94.9566 177.06 94.8786 177.06C94.8006 177.06 94.7236 177.043 94.653 177.01C94.564 176.963 94.4894 176.893 94.4376 176.807C94.3858 176.722 94.3588 176.623 94.3595 176.523V174.224C94.3612 173.704 94.498 173.193 94.7566 172.741C95.0151 172.289 95.3865 171.912 95.8344 171.647L95.9204 171.597C95.9612 171.571 96.0083 171.558 96.0564 171.558C96.1045 171.558 96.1516 171.571 96.1924 171.597C96.2339 171.621 96.2683 171.655 96.2922 171.696C96.3161 171.738 96.3286 171.785 96.3285 171.833C96.3202 171.9 96.3263 171.969 96.3465 172.034C96.3666 172.098 96.4003 172.158 96.4453 172.209C96.4903 172.26 96.5456 172.301 96.6076 172.329C96.6695 172.357 96.7367 172.371 96.8046 172.371C96.8726 172.371 96.9397 172.357 97.0017 172.329C97.0636 172.301 97.1189 172.26 97.1639 172.209C97.2089 172.158 97.2426 172.098 97.2628 172.034C97.2829 171.969 97.289 171.9 97.2808 171.833C97.2805 171.617 97.2232 171.405 97.1146 171.219C97.006 171.032 96.8501 170.877 96.6625 170.771C96.475 170.664 96.2625 170.608 96.0467 170.61C95.8308 170.612 95.6193 170.671 95.4335 170.78L95.3476 170.83C94.758 171.182 94.2695 171.679 93.9294 172.275C93.5894 172.871 93.4095 173.545 93.4072 174.231V176.53C93.4067 176.802 93.4804 177.069 93.6204 177.303C93.7605 177.536 93.9615 177.727 94.202 177.854C94.4215 177.974 94.6679 178.036 94.918 178.033C95.2134 178.033 95.5023 177.946 95.7485 177.783C95.8407 177.72 95.9069 177.626 95.9347 177.518L95.1041 177.01Z" fill="white"/>
<path d="M90.579 174.389C90.5073 174.423 90.4291 174.44 90.3499 174.44C90.2706 174.44 90.1924 174.423 90.1208 174.389C90.0335 174.341 89.9609 174.271 89.9105 174.185C89.86 174.099 89.8337 174.002 89.8344 173.902V171.604C89.8309 171.087 89.9609 170.578 90.2118 170.127C90.4627 169.675 90.8259 169.296 91.2663 169.026L91.3523 168.969C91.3936 168.945 91.4406 168.932 91.4883 168.932C91.5361 168.932 91.583 168.945 91.6243 168.969C91.6668 168.992 91.7021 169.026 91.7262 169.068C91.7502 169.109 91.7621 169.157 91.7604 169.205C91.7604 169.332 91.8109 169.454 91.9009 169.544C91.9909 169.634 92.1129 169.685 92.2401 169.685C92.3028 169.685 92.3648 169.672 92.4226 169.648C92.4804 169.624 92.5328 169.589 92.5768 169.544C92.6208 169.499 92.6555 169.446 92.6788 169.388C92.7021 169.33 92.7136 169.268 92.7127 169.205C92.7146 168.988 92.6587 168.775 92.5507 168.587C92.4426 168.399 92.2864 168.244 92.0981 168.136C91.9098 168.029 91.6963 167.974 91.4795 167.977C91.2628 167.98 91.0508 168.04 90.8654 168.153L90.7795 168.203C90.1899 168.554 89.7014 169.052 89.3613 169.648C89.0213 170.244 88.8414 170.918 88.8391 171.604V173.902C88.8386 174.174 88.9123 174.441 89.0524 174.675C89.1924 174.908 89.3935 175.099 89.6339 175.227C89.8534 175.346 90.0999 175.408 90.3499 175.406C90.6475 175.405 90.9386 175.318 91.1876 175.155C91.2758 175.088 91.3409 174.996 91.3738 174.89L90.579 174.389Z" fill="white"/>
<path d="M86.0467 171.776C85.9746 171.808 85.8965 171.824 85.8176 171.824C85.7387 171.824 85.6606 171.808 85.5885 171.776C85.5013 171.728 85.4286 171.657 85.3782 171.572C85.3278 171.486 85.3015 171.388 85.3021 171.289V168.99C85.3039 168.47 85.44 167.958 85.6971 167.506C85.9542 167.053 86.3237 166.674 86.7699 166.406L86.863 166.355C86.9044 166.332 86.9514 166.319 86.9992 166.319C87.047 166.319 87.094 166.332 87.1353 166.356C87.1767 166.38 87.211 166.414 87.2349 166.455C87.2587 166.497 87.2712 166.544 87.2711 166.592C87.2854 166.708 87.3417 166.815 87.4294 166.893C87.5171 166.97 87.6301 167.013 87.7472 167.013C87.8643 167.013 87.9774 166.97 88.0651 166.893C88.1528 166.815 88.2091 166.708 88.2234 166.592C88.2249 166.375 88.1686 166.162 88.0604 165.975C87.9522 165.787 87.7958 165.632 87.6076 165.525C87.4214 165.414 87.2086 165.355 86.9918 165.355C86.7751 165.355 86.5623 165.414 86.3761 165.525L86.2902 165.575C85.7006 165.926 85.2121 166.424 84.872 167.02C84.532 167.616 84.3521 168.29 84.3498 168.976V171.274C84.3485 171.547 84.4219 171.814 84.562 172.048C84.7021 172.281 84.9036 172.472 85.1446 172.599C85.3837 172.728 85.6538 172.789 85.9253 172.775C86.1968 172.762 86.4593 172.673 86.684 172.52C86.7757 172.46 86.842 172.368 86.8701 172.262L86.0467 171.776Z" fill="white"/>
<path d="M81.5144 169.162C81.4333 169.188 81.3474 169.194 81.2634 169.181C81.1794 169.167 81.0996 169.135 81.0303 169.086C80.961 169.036 80.904 168.972 80.8637 168.897C80.8235 168.822 80.8012 168.739 80.7984 168.654V166.355C80.7996 165.834 80.9362 165.321 81.1947 164.868C81.4532 164.415 81.8249 164.037 82.2734 163.771L82.3593 163.721C82.4002 163.695 82.4473 163.682 82.4954 163.682C82.5434 163.682 82.5906 163.695 82.6314 163.721C82.6739 163.743 82.7092 163.777 82.7332 163.819C82.7573 163.861 82.7691 163.909 82.7674 163.957C82.7817 164.073 82.838 164.18 82.9257 164.258C83.0134 164.335 83.1265 164.378 83.2436 164.378C83.3607 164.378 83.4737 164.335 83.5614 164.258C83.6491 164.18 83.7054 164.073 83.7197 163.957C83.722 163.74 83.6661 163.527 83.5578 163.339C83.4494 163.152 83.2927 162.996 83.104 162.89C82.917 162.781 82.7045 162.724 82.4882 162.724C82.2719 162.724 82.0594 162.781 81.8724 162.89L81.7865 162.947C81.197 163.298 80.7084 163.796 80.3684 164.392C80.0283 164.988 79.8484 165.662 79.8462 166.348V168.647C79.8472 168.918 79.9216 169.185 80.0614 169.418C80.2013 169.651 80.4015 169.842 80.6409 169.971C80.8617 170.088 81.1073 170.149 81.3569 170.15C81.6538 170.152 81.944 170.062 82.1875 169.892C82.2792 169.832 82.3455 169.741 82.3736 169.635L81.5144 169.162Z" fill="white"/>
<path d="M134.699 159.711L108.486 174.847L74.3759 155.157L100.589 140.021L134.699 159.711Z" fill="#E6E6E6"/>
<path d="M136.203 159.217L108.816 172.105L76.481 149.623L103.868 136.742L136.203 159.217Z" fill="#FAFAFA"/>
<path d="M101.298 150.303C100.256 151.323 99.5501 152.636 99.275 154.068C98.9999 155.5 99.1685 156.981 99.7581 158.315C100.982 161.179 104.054 162.797 107.047 162.897C108.587 162.96 110.114 162.591 111.455 161.832C112.796 161.073 113.898 159.954 114.637 158.601C115.35 157.24 115.499 155.653 115.052 154.183C114.552 152.69 113.579 151.401 112.281 150.51C110.562 149.389 108.549 148.801 106.496 148.821C104.756 148.785 102.658 148.942 101.484 150.374C101.247 150.654 101.656 151.09 101.892 150.782C102.88 149.601 104.527 149.422 105.973 149.401C107.699 149.33 109.417 149.671 110.985 150.396C113.613 151.699 115.481 154.62 114.479 157.556C113.958 158.88 113.069 160.028 111.917 160.864C110.765 161.7 109.398 162.189 107.978 162.274C106.58 162.406 105.172 162.161 103.901 161.565C102.63 160.97 101.54 160.045 100.746 158.888C99.958 157.616 99.625 156.114 99.8019 154.629C99.9789 153.143 100.655 151.762 101.72 150.711C101.992 150.467 101.584 150.059 101.312 150.303H101.298Z" fill="#FE662E"/>
<path d="M105.336 158.787C106.005 158.983 106.71 159.031 107.4 158.927C108.09 158.823 108.749 158.57 109.331 158.186C109.891 157.801 110.342 157.279 110.642 156.67C110.941 156.06 111.079 155.384 111.042 154.706C111.005 153.938 110.721 153.203 110.233 152.608C109.997 152.322 109.589 152.73 109.825 153.016C110.268 153.613 110.495 154.342 110.471 155.084C110.446 155.827 110.17 156.539 109.689 157.105C109.163 157.665 108.491 158.068 107.748 158.268C107.006 158.467 106.223 158.456 105.486 158.236C105.415 158.222 105.341 158.235 105.279 158.273C105.218 158.311 105.173 158.371 105.154 158.441C105.134 158.511 105.143 158.586 105.176 158.65C105.21 158.715 105.267 158.763 105.336 158.787Z" fill="#FE662E"/>
<path d="M99.8083 160.169C98.9775 159.997 98.194 159.646 97.5117 159.142C96.8294 158.638 96.2645 157.992 95.8559 157.248C95.548 156.646 95.3118 155.716 95.7986 155.1C96.5146 154.269 97.6316 154.978 98.0827 155.666C98.3158 155.97 98.4729 156.326 98.5409 156.704C98.5409 157.305 97.5958 156.439 97.4096 156.26C96.7918 155.653 96.3597 154.883 96.1638 154.04C95.8058 152.444 96.5147 150.46 98.3118 150.202C99.0278 150.117 100.002 150.374 100.224 151.162C100.338 151.577 100.123 152.057 99.6221 151.763C99.4461 151.632 99.2983 151.467 99.1876 151.278C99.0769 151.088 99.0055 150.878 98.9777 150.661C98.8963 150.281 98.8914 149.889 98.9633 149.507C99.0353 149.126 99.1825 148.762 99.3965 148.438C99.6105 148.114 99.8869 147.836 100.21 147.62C100.532 147.405 100.895 147.255 101.276 147.181C102.05 147.059 102.842 147.238 103.488 147.682C103.732 147.847 104.376 148.348 104.09 148.67C103.66 149.136 103.202 148.377 103.152 148.019C103.136 147.611 103.253 147.208 103.485 146.873C103.718 146.537 104.053 146.286 104.441 146.157C104.875 146.026 105.334 145.998 105.781 146.074C106.228 146.149 106.651 146.327 107.018 146.594C107.476 146.857 107.873 147.214 108.185 147.639C108.536 148.219 107.82 148.584 107.391 148.205C106.553 147.489 107.448 146.465 108.257 146.307C109.317 146.1 110.405 146.787 111.228 147.36C112.096 147.966 112.862 148.705 113.498 149.551C113.72 149.844 114.214 149.551 113.999 149.257C113.17 148.153 112.137 147.218 110.956 146.501C109.897 145.864 108.515 145.319 107.376 146.043C107.162 146.163 106.978 146.33 106.837 146.532C106.696 146.733 106.602 146.963 106.561 147.205C106.521 147.448 106.535 147.696 106.603 147.932C106.671 148.168 106.791 148.386 106.954 148.57C107.634 149.286 109.152 148.849 108.873 147.718C108.65 147.167 108.256 146.703 107.749 146.393C107.22 145.972 106.603 145.673 105.944 145.52C105.388 145.385 104.804 145.422 104.269 145.626C103.735 145.831 103.275 146.193 102.951 146.665C102.414 147.467 102.4 149.014 103.539 149.336C103.755 149.394 103.984 149.378 104.19 149.291C104.396 149.204 104.567 149.051 104.677 148.856C104.935 148.341 104.555 147.833 104.19 147.496C103.784 147.123 103.296 146.853 102.764 146.706C102.233 146.559 101.675 146.54 101.135 146.651C100.596 146.763 100.09 147 99.66 147.345C99.2302 147.69 98.8883 148.132 98.6626 148.634C98.4274 149.143 98.3251 149.702 98.3651 150.261C98.4052 150.819 98.5864 151.358 98.8918 151.828C99.0313 152.055 99.241 152.23 99.4891 152.327C99.7372 152.424 100.01 152.437 100.266 152.365C100.454 152.284 100.612 152.147 100.718 151.972C100.825 151.798 100.875 151.595 100.861 151.391C100.861 150.274 99.708 149.637 98.7128 149.615C98.1456 149.606 97.5872 149.756 97.1002 150.047C96.6133 150.338 96.2171 150.758 95.9562 151.262C95.6817 151.815 95.5276 152.42 95.5042 153.038C95.4807 153.655 95.5884 154.27 95.8201 154.842C96.034 155.399 96.3416 155.914 96.7294 156.367C97.1013 156.863 97.5944 157.255 98.1614 157.506C98.2718 157.542 98.3893 157.551 98.5038 157.531C98.6183 157.512 98.7264 157.465 98.8187 157.394C98.9111 157.324 98.9848 157.232 99.0337 157.127C99.0826 157.021 99.1052 156.906 99.0994 156.79C99.0284 156.209 98.7979 155.658 98.4335 155.2C97.7748 154.298 96.4144 153.718 95.4764 154.57C94.6817 155.286 94.8678 156.525 95.276 157.391C95.8572 158.522 96.772 159.447 97.8965 160.04C98.4417 160.334 99.0248 160.551 99.6293 160.685C99.9873 160.763 100.145 160.205 99.7796 160.126L99.8083 160.169Z" fill="#FE662E"/>
<path d="M103.66 155.386C103.641 155.423 103.617 155.456 103.589 155.487C103.639 155.451 103.589 155.487 103.589 155.487L103.546 155.53C103.523 155.557 103.497 155.581 103.467 155.601C103.467 155.601 103.417 155.658 103.467 155.601L103.395 155.644L103.295 155.709H103.252C103.214 155.728 103.173 155.74 103.13 155.744H103.002C103.002 155.744 103.073 155.744 103.002 155.744H102.765C102.765 155.744 102.823 155.744 102.765 155.744H102.644C102.644 155.744 102.601 155.744 102.586 155.744C102.572 155.744 102.586 155.744 102.586 155.744L102.5 155.687L102.457 155.651V155.615C102.407 155.558 102.457 155.651 102.457 155.615L102.407 155.544V155.494C102.407 155.494 102.407 155.422 102.407 155.393C102.404 155.36 102.404 155.327 102.407 155.293C102.407 155.358 102.407 155.329 102.407 155.293V155.15C102.407 155.15 102.407 155.114 102.407 155.1C102.407 155.086 102.407 155.143 102.407 155.1C102.404 155.059 102.404 155.019 102.407 154.978C102.407 154.978 102.407 154.942 102.407 154.978L102.45 154.892V154.849C102.45 154.814 102.486 154.849 102.45 154.849C102.414 154.849 102.5 154.799 102.522 154.778H102.558C102.522 154.828 102.522 154.778 102.558 154.778L102.644 154.728C102.644 154.728 102.572 154.728 102.644 154.728H102.701H102.772H102.887C102.959 154.728 102.83 154.728 102.887 154.728L103.052 154.778C103.123 154.778 103.002 154.778 103.052 154.778L103.138 154.828L103.267 154.907C103.267 154.907 103.338 154.964 103.267 154.907L103.345 154.978L103.46 155.086L103.589 155.222L103.632 155.279V155.315C103.672 155.379 103.735 155.426 103.808 155.445C103.881 155.465 103.958 155.457 104.025 155.422C104.058 155.403 104.086 155.378 104.109 155.347C104.132 155.317 104.148 155.283 104.158 155.246C104.167 155.209 104.169 155.171 104.163 155.134C104.158 155.097 104.145 155.061 104.126 155.028C103.855 154.584 103.42 154.265 102.916 154.14C102.698 154.101 102.473 154.133 102.275 154.232C102.078 154.332 101.918 154.493 101.82 154.692C101.732 154.87 101.686 155.066 101.686 155.265C101.686 155.463 101.732 155.659 101.82 155.837C101.927 156.021 102.082 156.172 102.269 156.273C102.456 156.374 102.668 156.422 102.88 156.41C103.127 156.402 103.369 156.332 103.583 156.207C103.797 156.082 103.976 155.906 104.104 155.694C104.127 155.662 104.142 155.625 104.15 155.586C104.157 155.547 104.157 155.507 104.148 155.469C104.139 155.43 104.123 155.394 104.099 155.362C104.076 155.33 104.046 155.304 104.012 155.284C103.978 155.264 103.94 155.252 103.901 155.247C103.862 155.243 103.822 155.246 103.784 155.258C103.746 155.27 103.711 155.289 103.681 155.315C103.652 155.341 103.627 155.372 103.61 155.408L103.66 155.386Z" fill="#FE662E"/>
<path d="M105.071 152.15C105.091 152.371 105.176 152.58 105.317 152.751C105.457 152.922 105.646 153.047 105.858 153.109C106.065 153.182 106.289 153.184 106.497 153.117C106.706 153.05 106.886 152.916 107.011 152.737C107.112 152.56 107.164 152.361 107.164 152.157C107.164 151.954 107.112 151.754 107.011 151.577C106.908 151.384 106.741 151.233 106.538 151.149C106.336 151.066 106.111 151.055 105.901 151.119C105.651 151.195 105.432 151.351 105.278 151.563C105.13 151.77 105.068 152.027 105.107 152.279C105.13 152.351 105.18 152.412 105.246 152.45C105.313 152.487 105.391 152.498 105.465 152.479C105.536 152.455 105.596 152.405 105.633 152.339C105.67 152.273 105.682 152.195 105.665 152.121C105.665 152.121 105.665 152.186 105.665 152.157V152.078C105.668 152.059 105.668 152.04 105.665 152.021C105.668 152.002 105.668 151.983 105.665 151.964C105.665 151.964 105.665 151.892 105.722 151.864C105.78 151.835 105.765 151.799 105.722 151.864C105.679 151.928 105.722 151.864 105.722 151.864L105.808 151.778C105.808 151.778 105.844 151.778 105.858 151.778L105.959 151.72H106.016H106.066C106.109 151.72 106.066 151.72 106.066 151.72C106.102 151.724 106.138 151.724 106.173 151.72C106.224 151.72 106.173 151.72 106.173 151.72H106.231H106.288C106.338 151.72 106.238 151.72 106.288 151.72C106.317 151.741 106.348 151.758 106.381 151.771C106.331 151.771 106.338 151.771 106.381 151.771V151.806V151.842C106.4 151.869 106.417 151.898 106.431 151.928C106.431 151.928 106.431 151.985 106.431 151.928C106.431 151.871 106.431 151.928 106.431 151.928C106.434 151.961 106.434 151.995 106.431 152.028C106.428 152.042 106.428 152.057 106.431 152.071C106.431 151.993 106.431 152.071 106.431 152.071V152.222C106.431 152.272 106.431 152.15 106.431 152.222V152.315C106.429 152.331 106.429 152.348 106.431 152.365C106.431 152.422 106.431 152.322 106.431 152.365C106.419 152.398 106.402 152.429 106.381 152.458V152.494C106.381 152.494 106.424 152.451 106.381 152.494V152.53C106.381 152.53 106.324 152.572 106.381 152.53C106.438 152.487 106.381 152.53 106.381 152.53H106.324H106.274H106.231H106.195C106.195 152.53 106.267 152.53 106.231 152.53H106.073H105.959C105.94 152.526 105.92 152.526 105.901 152.53L105.801 152.465C105.744 152.429 105.801 152.465 105.801 152.465L105.751 152.422L105.708 152.379C105.708 152.379 105.658 152.315 105.708 152.379C105.758 152.444 105.708 152.379 105.708 152.379L105.672 152.322C105.672 152.286 105.672 152.322 105.672 152.322C105.672 152.322 105.672 152.322 105.672 152.265C105.668 152.246 105.668 152.226 105.672 152.207C105.672 152.207 105.672 152.164 105.672 152.207C105.672 152.25 105.672 152.207 105.672 152.207C105.669 152.131 105.636 152.059 105.582 152.006C105.527 151.953 105.455 151.923 105.379 151.921C105.303 151.923 105.232 151.953 105.178 152.007C105.125 152.06 105.094 152.132 105.092 152.207L105.071 152.15Z" fill="#FE662E"/>
<path d="M148.912 124.412L137.298 131.042C136.395 131.558 135.374 131.83 134.334 131.83C133.294 131.83 132.272 131.558 131.37 131.042L123.923 126.746L123.078 126.259C122.198 125.751 121.466 125.021 120.956 124.141C120.446 123.262 120.175 122.264 120.171 121.247V99.7531L137.606 89.8294V111.71C137.606 112.59 137.838 113.454 138.278 114.215C138.718 114.977 139.35 115.61 140.112 116.049L148.926 121.14C149.216 121.304 149.457 121.543 149.624 121.831C149.791 122.119 149.878 122.447 149.877 122.78C149.875 123.114 149.785 123.44 149.616 123.727C149.446 124.014 149.203 124.25 148.912 124.412Z" fill="#E0E0E0"/>
<path d="M134.814 131.758C135.687 131.691 136.536 131.432 137.298 130.999L148.912 124.384C149.199 124.219 149.437 123.982 149.604 123.696C149.77 123.41 149.857 123.085 149.857 122.755C149.857 122.424 149.77 122.099 149.604 121.813C149.437 121.527 149.199 121.29 148.912 121.126L142.89 117.653H134.799L134.814 131.758Z" fill="#E6E6E6"/>
<path d="M148.704 119.715L149.026 119.973C149.287 120.18 149.498 120.444 149.643 120.744C149.788 121.044 149.863 121.373 149.864 121.706V122.787H148.697L148.704 119.715Z" fill="#E6E6E6"/>
<path d="M138.952 91.4905V111.18C138.951 112.034 139.175 112.872 139.601 113.611C140.027 114.35 140.64 114.964 141.379 115.391L148.711 119.687C148.989 119.846 149.221 120.075 149.381 120.353C149.542 120.63 149.627 120.945 149.627 121.265C149.627 121.586 149.542 121.901 149.381 122.178C149.221 122.455 148.989 122.685 148.711 122.844L147.88 123.317L137.463 129.245C136.591 129.744 135.603 130.006 134.599 130.006C133.594 130.006 132.607 129.744 131.735 129.245L124.517 124.985C123.779 124.56 123.166 123.947 122.74 123.209C122.314 122.471 122.09 121.634 122.09 120.782V101.092L138.952 91.4905Z" fill="#F0F0F0"/>
<path d="M138.952 111.18V91.4905L122.076 101.092V120.789C122.075 121.641 122.299 122.478 122.726 123.216C123.152 123.954 123.765 124.567 124.503 124.992L141.1 115.233C140.436 114.787 139.892 114.183 139.517 113.476C139.142 112.769 138.948 111.981 138.952 111.18Z" fill="#E6E6E6"/>
<path d="M85.5456 135.453L83.6267 136.563V140.071C82.3962 140.069 81.189 139.736 80.1326 139.104L79.9823 139.019C79.5422 138.757 79.1599 138.409 78.8583 137.996C78.5568 137.582 78.3424 137.112 78.2281 136.613C78.1612 136.397 78.1274 136.173 78.1278 135.947V131.171L85.5456 135.453Z" fill="#E0E0E0"/>
<path d="M168.887 6.60153L168.737 6.51561C167.681 5.88358 166.474 5.54954 165.243 5.54901C164.848 5.54391 164.459 5.64797 164.119 5.84973L81.471 53.3778C80.4543 53.9631 79.6099 54.8061 79.0229 55.8218C78.4358 56.8375 78.1269 57.99 78.1273 59.1631V131.171L85.545 135.467L164.062 90.3592C165.078 89.7722 165.923 88.9278 166.51 87.911C167.097 86.8942 167.405 85.7408 167.405 84.5668V9.86649H170.742C170.743 9.20817 170.572 8.561 170.247 7.98857C169.922 7.41614 169.453 6.93814 168.887 6.60153Z" fill="#37474F"/>
<path d="M78.808 56.1631C78.3393 57.0938 78.0942 58.121 78.092 59.1631V131.171L85.5097 135.467L88.2878 133.863V62.0414L78.808 56.1631Z" fill="#263238"/>
<path d="M81.4644 133.097V137.873C81.4644 138.258 81.5656 138.635 81.7579 138.968C81.9502 139.301 82.2268 139.578 82.5598 139.77C82.8929 139.963 83.2707 140.064 83.6553 140.064C84.0399 140.064 84.4177 139.963 84.7508 139.77L167.399 92.2423C168.415 91.657 169.26 90.814 169.847 89.7983C170.434 88.7826 170.743 87.6301 170.742 86.457V81.5524L81.4644 133.097Z" fill="#F0F0F0"/>
<path d="M170.742 9.67315C170.742 9.28961 170.64 8.91297 170.448 8.58091C170.256 8.24884 169.981 7.97297 169.649 7.78089C169.317 7.58881 168.94 7.48724 168.557 7.48633C168.173 7.48543 167.796 7.58523 167.463 7.77575L84.8081 55.3038C83.7913 55.8909 82.947 56.7352 82.3601 57.752C81.7731 58.7688 81.4642 59.9222 81.4644 61.0963V133.097L170.742 81.5452" fill="#455A64"/>
<path d="M165.952 12.9883C165.575 12.9863 165.202 13.0721 164.864 13.2389L87.1708 57.8958C86.2745 58.4149 85.5303 59.1604 85.0126 60.0576C84.4949 60.9548 84.2219 61.9722 84.2209 63.008V124.362C84.2199 124.626 84.2735 124.886 84.3785 125.128C84.4881 125.378 84.6491 125.603 84.851 125.786C85.053 125.97 85.2913 126.11 85.5506 126.195C85.8099 126.281 86.0843 126.311 86.356 126.284C86.6278 126.257 86.8907 126.173 87.1279 126.037L164.8 81.3806C165.696 80.8614 166.44 80.1159 166.958 79.2187C167.476 78.3216 167.749 77.3042 167.749 76.2683V14.9143C167.749 14.4255 167.563 13.9551 167.23 13.5978C166.896 13.2404 166.44 13.0226 165.952 12.9883Z" fill="#FE662E"/>
<path opacity="0.5" d="M165.952 12.9883C165.575 12.9863 165.202 13.0721 164.864 13.2389L87.1708 57.8958C86.2745 58.4149 85.5303 59.1604 85.0126 60.0576C84.4949 60.9548 84.2219 61.9722 84.2209 63.008V124.362C84.2199 124.626 84.2735 124.886 84.3785 125.128C84.4881 125.378 84.6491 125.603 84.851 125.786C85.053 125.97 85.2913 126.11 85.5506 126.195C85.8099 126.281 86.0843 126.311 86.356 126.284C86.6278 126.257 86.8907 126.173 87.1279 126.037L164.8 81.3806C165.696 80.8614 166.44 80.1159 166.958 79.2187C167.476 78.3216 167.749 77.3042 167.749 76.2683V14.9143C167.749 14.4255 167.563 13.9551 167.23 13.5978C166.896 13.2404 166.44 13.0226 165.952 12.9883Z" fill="white"/>
<path d="M198.452 136.921L197.843 137.264C197.59 137.001 197.3 136.774 196.984 136.591L173.277 122.909C171.501 121.878 168.809 121.77 167.27 122.658L125.427 146.794C125.316 146.863 125.211 146.94 125.112 147.023L124.396 146.615V148.384C124.462 148.79 124.627 149.174 124.877 149.501C125.127 149.828 125.453 150.089 125.828 150.26L149.563 163.978C151.339 165.002 154.031 165.117 155.57 164.229L197.413 140.071C197.7 139.937 197.946 139.729 198.126 139.469C198.306 139.208 198.414 138.905 198.437 138.589L198.452 136.921Z" fill="#263238"/>
<path d="M197.413 138.396L155.57 162.546C154.031 163.441 151.339 163.327 149.563 162.303L125.856 148.613C124.081 147.589 123.887 146.035 125.427 145.148L167.27 121.018C168.809 120.123 171.501 120.238 173.277 121.262L196.984 134.952C198.767 135.954 198.96 137.486 197.413 138.396Z" fill="#37474F"/>
<path d="M192.358 137.551L159.53 156.503C159.066 156.714 158.56 156.813 158.051 156.792C157.542 156.771 157.046 156.63 156.601 156.382L136.088 144.553C135.222 144.059 135.129 143.3 135.88 142.871L168.738 123.882C169.201 123.673 169.708 123.575 170.216 123.596C170.725 123.617 171.221 123.757 171.666 124.004L192.151 135.832C193.017 136.362 193.11 137.114 192.358 137.551Z" fill="#455A64"/>
<path d="M142.124 154.584C143.63 154.584 144.852 153.879 144.852 153.009C144.852 152.139 143.63 151.434 142.124 151.434C140.617 151.434 139.396 152.139 139.396 153.009C139.396 153.879 140.617 154.584 142.124 154.584Z" fill="#263238"/>
<path d="M148.375 154.95L145.511 156.596C145.331 156.676 145.135 156.713 144.939 156.705C144.743 156.696 144.551 156.642 144.379 156.546C144.05 156.353 144.014 156.059 144.301 155.895L147.165 154.248C147.344 154.168 147.54 154.131 147.736 154.14C147.932 154.148 148.124 154.202 148.296 154.298C148.625 154.491 148.668 154.785 148.375 154.95Z" fill="#263238"/>
<path d="M151.081 156.51L148.217 158.157C148.037 158.237 147.842 158.274 147.645 158.266C147.449 158.257 147.257 158.203 147.086 158.107C146.756 157.914 146.721 157.627 147.007 157.456L149.871 155.816C150.05 155.733 150.245 155.694 150.442 155.701C150.638 155.709 150.83 155.763 151.002 155.859C151.332 156.052 151.367 156.346 151.081 156.51Z" fill="#263238"/>
<path d="M137.269 148.541L134.405 150.181C134.228 150.264 134.034 150.304 133.838 150.296C133.642 150.289 133.452 150.235 133.281 150.138C132.945 149.945 132.909 149.651 133.195 149.486L136.059 147.84C136.239 147.76 136.435 147.723 136.631 147.731C136.827 147.74 137.019 147.794 137.191 147.89C137.52 148.083 137.563 148.37 137.269 148.541Z" fill="#263238"/>
<path d="M139.976 150.102L137.112 151.749C136.932 151.829 136.737 151.866 136.54 151.857C136.344 151.849 136.152 151.794 135.981 151.699C135.651 151.506 135.615 151.212 135.902 151.047L138.766 149.401C138.945 149.321 139.141 149.284 139.337 149.292C139.534 149.301 139.725 149.355 139.897 149.451C140.234 149.658 140.269 149.938 139.976 150.102Z" fill="#263238"/>
<path d="M165.358 108.288L160.504 107.873L155.642 108.274L156.866 115.212V115.283C156.945 115.549 157.078 115.795 157.257 116.007C157.435 116.219 157.656 116.392 157.904 116.515C158.705 116.919 159.589 117.129 160.486 117.129C161.382 117.129 162.266 116.919 163.067 116.515C163.331 116.389 163.564 116.205 163.747 115.977C163.931 115.749 164.06 115.482 164.127 115.197L165.358 108.288Z" fill="#37474F"/>
<path d="M163.948 106.09C165.852 107.192 165.852 108.954 163.948 110.071C162.881 110.614 161.701 110.898 160.504 110.898C159.306 110.898 158.126 110.614 157.06 110.071C155.155 108.975 155.155 107.207 157.06 106.09C158.127 105.549 159.307 105.268 160.504 105.268C161.7 105.268 162.88 105.549 163.948 106.09Z" fill="#455A64"/>
<path d="M160.504 92.8294C160.326 92.8284 160.149 92.8628 159.985 92.9305C159.82 92.9981 159.67 93.0978 159.545 93.2236C159.419 93.3495 159.319 93.499 159.251 93.6637C159.184 93.8283 159.149 94.0047 159.15 94.1826V107.586C159.161 107.705 159.203 107.819 159.272 107.916C159.341 108.013 159.435 108.089 159.544 108.137C159.84 108.289 160.168 108.369 160.5 108.369C160.832 108.369 161.16 108.289 161.456 108.137C161.566 108.09 161.661 108.013 161.731 107.916C161.802 107.819 161.845 107.705 161.857 107.586V94.1826C161.857 93.8237 161.714 93.4795 161.46 93.2257C161.207 92.972 160.862 92.8294 160.504 92.8294Z" fill="#263238"/>
<path d="M124.346 0.0140381C124.065 0.0141482 123.789 0.0777952 123.537 0.200197L66.1706 33.1863C65.5141 33.5745 64.9704 34.1277 64.5937 34.7908C64.2169 35.454 64.02 36.2041 64.0226 36.9668V82.2681C64.0212 82.4633 64.0628 82.6564 64.1443 82.8338C64.2244 83.0187 64.3427 83.1846 64.4913 83.3207C64.64 83.4568 64.8156 83.56 65.0069 83.6235C65.1982 83.687 65.4007 83.7095 65.6012 83.6894C65.8017 83.6693 65.9958 83.607 66.1706 83.5068L123.529 50.5278C124.193 50.1441 124.743 49.5929 125.127 48.9295C125.51 48.266 125.712 47.5135 125.713 46.7474V1.44604C125.714 1.07715 125.572 0.722355 125.317 0.455581C125.062 0.188807 124.714 0.0306377 124.346 0.0140381Z" fill="#E0E0E0"/>
<path d="M124.317 0.73032C124.498 0.743026 124.668 0.824036 124.791 0.95696C124.915 1.08988 124.983 1.2648 124.983 1.44632V46.7476C124.983 47.3917 124.814 48.0245 124.492 48.5825C124.17 49.1404 123.707 49.604 123.15 49.9267L65.7839 82.9056C65.6734 82.9712 65.5473 83.0059 65.4188 83.0059C65.2678 83.0171 65.1172 82.9801 64.9886 82.9004C64.8599 82.8206 64.7599 82.7021 64.7028 82.562C64.6659 82.4684 64.6465 82.3689 64.6455 82.2684V36.9671C64.6455 36.323 64.8148 35.6902 65.1365 35.1323C65.4583 34.5743 65.921 34.1107 66.4785 33.788L123.916 0.809081C124.053 0.74652 124.202 0.714747 124.353 0.716L124.317 0.73032ZM124.353 0C124.072 0.000110133 123.796 0.0637599 123.544 0.186162L66.1706 33.1866C65.5141 33.5748 64.9704 34.1279 64.5937 34.7911C64.2169 35.4542 64.02 36.2044 64.0226 36.9671V82.2684C64.0212 82.4636 64.0628 82.6567 64.1443 82.834C64.2545 83.0904 64.4373 83.309 64.6701 83.4629C64.9028 83.6168 65.1755 83.6994 65.4546 83.7004C65.7057 83.6971 65.9519 83.6306 66.1706 83.5071L123.529 50.5281C124.193 50.1444 124.743 49.5932 125.127 48.9298C125.51 48.2663 125.712 47.5138 125.713 46.7476V1.44632C125.714 1.08328 125.577 0.733445 125.33 0.467597C125.083 0.201749 124.744 0.0397324 124.381 0.0143203L124.353 0Z" fill="#E0E0E0"/>
<path d="M64.6169 83.4498L66.6288 84.8603V81.5954L64.6169 83.4498Z" fill="#E0E0E0"/>
<path d="M124.99 0.236267L127.031 1.66111L124.517 3.44395L124.99 0.236267Z" fill="#E0E0E0"/>
<path d="M126.307 1.40337C126.029 1.40066 125.754 1.46449 125.506 1.58953L68.1324 34.5685C67.476 34.955 66.9322 35.5068 66.5554 36.1688C66.1785 36.8308 65.9816 37.58 65.9844 38.3418V83.6503C65.985 83.8445 66.0239 84.0368 66.099 84.2159C66.1798 84.4003 66.2985 84.5655 66.4475 84.7008C66.5964 84.8361 66.7722 84.9386 66.9634 85.0014C67.1546 85.0642 67.3569 85.086 67.5571 85.0654C67.7573 85.0448 67.9509 84.9823 68.1252 84.8818L125.491 51.9458C126.148 51.5581 126.692 51.0051 127.069 50.3419C127.446 49.6786 127.642 48.9282 127.639 48.1653V2.82821C127.638 2.46641 127.5 2.11836 127.253 1.85403C127.006 1.58971 126.668 1.4287 126.307 1.40337Z" fill="white"/>
<path d="M126.279 2.09787C126.46 2.11058 126.629 2.19159 126.753 2.32451C126.877 2.45744 126.945 2.63235 126.945 2.81387V48.1295C126.943 48.7733 126.773 49.4055 126.452 49.9632C126.13 50.521 125.668 50.9848 125.112 51.3086L67.7458 84.2875C67.6352 84.3531 67.5091 84.3877 67.3806 84.3878C67.2297 84.3989 67.079 84.362 66.9504 84.2822C66.8218 84.2025 66.7217 84.084 66.6646 83.9438C66.6278 83.8503 66.6083 83.7508 66.6073 83.6503V38.3418C66.6086 37.6989 66.7785 37.0676 67.1001 36.511C67.4218 35.9544 67.8839 35.492 68.4403 35.1699L125.835 2.16231C125.974 2.09728 126.126 2.06542 126.279 2.06923V2.09787ZM126.279 1.35323C126 1.35052 125.725 1.41435 125.477 1.53939L68.1324 34.5685C67.476 34.955 66.9322 35.5067 66.5554 36.1688C66.1785 36.8308 65.9816 37.58 65.9844 38.3418V83.6503C65.985 83.8445 66.0239 84.0368 66.099 84.2159C66.2108 84.4721 66.3951 84.6899 66.6292 84.8426C66.8633 84.9953 67.1369 85.0761 67.4164 85.0751C67.6683 85.0775 67.916 85.0106 68.1324 84.8818L125.498 51.9458C126.155 51.5581 126.699 51.0051 127.076 50.3419C127.453 49.6786 127.65 48.9282 127.646 48.1653V2.82819C127.647 2.4663 127.511 2.11744 127.266 1.85177C127.02 1.58611 126.683 1.42333 126.322 1.39619L126.279 1.35323Z" fill="#E0E0E0"/>
<path d="M94.7032 50.8503C94.7074 50.2325 94.7505 49.6155 94.8321 49.003C90.8296 50.3778 87.7222 48.4302 87.085 44.1128C82.5956 47.7572 79.209 54.2943 79.209 59.7932C79.209 66.0653 83.6124 68.6071 89.0468 65.471C92.1972 63.6524 94.9896 60.323 96.7939 56.6284C95.4836 55.4828 94.7032 53.5138 94.7032 50.8503Z" fill="#FE662E"/>
<path opacity="0.7" d="M94.7032 50.8503C94.7074 50.2325 94.7505 49.6155 94.8321 49.003C90.8296 50.3778 87.7222 48.4302 87.085 44.1128C82.5956 47.7572 79.209 54.2943 79.209 59.7932C79.209 66.0653 83.6124 68.6071 89.0468 65.471C92.1972 63.6524 94.9896 60.323 96.7939 56.6284C95.4836 55.4828 94.7032 53.5138 94.7032 50.8503Z" fill="white"/>
<path d="M106.496 32.9503C105.664 38.3442 102.913 43.2565 98.7486 46.7834C98.8359 47.3425 98.8814 47.9073 98.8846 48.4732C98.8035 51.327 98.0894 54.1272 96.7939 56.6714C98.5911 58.2896 101.391 58.3898 104.534 56.5712C109.968 53.4351 114.372 45.8312 114.372 39.5304C114.372 34.0243 111.028 31.3894 106.496 32.9503Z" fill="#FE662E"/>
<path opacity="0.3" d="M106.496 32.9503C105.664 38.3442 102.913 43.2565 98.7486 46.7834C98.8359 47.3425 98.8814 47.9073 98.8846 48.4732C98.8035 51.327 98.0894 54.1272 96.7939 56.6714C98.5911 58.2896 101.391 58.3898 104.534 56.5712C109.968 53.4351 114.372 45.8312 114.372 39.5304C114.372 34.0243 111.028 31.3894 106.496 32.9503Z" fill="black"/>
<path d="M98.7486 46.7691C98.1323 47.2691 97.4788 47.7215 96.7939 48.1224C96.169 48.4845 95.5123 48.7889 94.8321 49.0317C94.7505 49.6441 94.7074 50.2611 94.7032 50.879C94.7032 53.5139 95.4836 55.4828 96.7939 56.6571C98.0794 54.1106 98.7837 51.3105 98.856 48.4589C98.8622 47.8938 98.8263 47.3289 98.7486 46.7691Z" fill="#FE662E"/>
<path opacity="0.5" d="M98.7486 46.7691C98.1323 47.2691 97.4788 47.7215 96.7939 48.1224C96.169 48.4845 95.5123 48.7889 94.8321 49.0317C94.7505 49.6441 94.7074 50.2611 94.7032 50.879C94.7032 53.5139 95.4836 55.4828 96.7939 56.6571C98.0794 54.1106 98.7837 51.3105 98.856 48.4589C98.8622 47.8938 98.8263 47.3289 98.7486 46.7691Z" fill="black"/>
<path d="M96.7939 42.6807C98.5911 38.9862 101.391 35.6568 104.534 33.8382C105.158 33.4802 105.815 33.1829 106.496 32.9503C106.577 32.3378 106.62 31.7209 106.625 31.103C106.625 24.8309 102.221 22.2891 96.7939 25.4252C91.3666 28.5612 86.9561 36.1652 86.9561 42.4588C86.9571 43.0268 87.0001 43.594 87.0849 44.1557C87.7018 43.651 88.3578 43.1961 89.0468 42.7953C92.1972 40.9624 94.9896 41.0626 96.7939 42.6807Z" fill="#FE662E"/>
<path d="M94.8321 49.0317C95.1365 46.8222 95.7992 44.677 96.7939 42.6808C94.9896 41.0626 92.1972 40.9624 89.0468 42.781C88.3578 43.1818 87.7018 43.6366 87.085 44.1414C87.7222 48.4589 90.8296 50.4064 94.8321 49.0317Z" fill="#FE662E"/>
<path opacity="0.3" d="M94.8321 49.0317C95.1365 46.8222 95.7992 44.677 96.7939 42.6808C94.9896 41.0626 92.1972 40.9624 89.0468 42.781C88.3578 43.1818 87.7018 43.6366 87.085 44.1414C87.7222 48.4589 90.8296 50.4064 94.8321 49.0317Z" fill="white"/>
<path d="M96.7939 42.6807C97.9039 43.7727 98.5957 45.2195 98.7486 46.7691C102.91 43.2457 105.661 38.339 106.496 32.9503C105.814 33.1875 105.157 33.4896 104.534 33.8525C101.391 35.6568 98.5911 38.9862 96.7939 42.6807Z" fill="#FE662E"/>
<path opacity="0.7" d="M96.7939 42.6807C97.9039 43.7727 98.5957 45.2195 98.7486 46.7691C102.91 43.2457 105.661 38.339 106.496 32.9503C105.814 33.1875 105.157 33.4896 104.534 33.8525C101.391 35.6568 98.5911 38.9862 96.7939 42.6807Z" fill="black"/>
<path d="M96.7939 42.6808C95.7992 44.677 95.1365 46.8222 94.8321 49.0317C95.5123 48.7889 96.169 48.4845 96.7939 48.1224C97.4788 47.7215 98.1323 47.2691 98.7486 46.7691C98.5956 45.2196 97.9039 43.7727 96.7939 42.6808Z" fill="#263238"/>
<path d="M159.422 36.5303C159.192 36.5277 158.964 36.5792 158.757 36.6807L111.357 63.9316C110.807 64.2458 110.35 64.7003 110.033 65.2488C109.716 65.7972 109.551 66.4199 109.553 67.0534V104.493C109.553 104.655 109.585 104.816 109.646 104.966C109.713 105.118 109.812 105.254 109.935 105.365C110.058 105.477 110.203 105.561 110.361 105.613C110.519 105.665 110.686 105.684 110.852 105.667C111.017 105.65 111.177 105.599 111.322 105.517L158.728 78.2659C159.277 77.9508 159.732 77.4959 160.048 76.9476C160.363 76.3992 160.528 75.7769 160.525 75.1442V37.7189C160.529 37.417 160.417 37.1251 160.212 36.9038C160.006 36.6824 159.724 36.5487 159.422 36.5303Z" fill="#E0E0E0"/>
<path d="M159.401 37.1175C159.55 37.1317 159.689 37.2014 159.79 37.3126C159.89 37.4239 159.946 37.5688 159.945 37.7189V75.1943C159.945 75.7252 159.805 76.2468 159.54 76.7067C159.275 77.1667 158.894 77.5488 158.434 77.8149L111.028 105.03C110.938 105.086 110.834 105.116 110.727 105.116C110.609 105.117 110.492 105.083 110.393 105.018C110.293 104.953 110.215 104.86 110.169 104.751C110.134 104.674 110.117 104.591 110.119 104.507V67.0677C110.119 66.5368 110.258 66.0153 110.523 65.5553C110.789 65.0954 111.17 64.7132 111.629 64.4472L159.036 37.1891C159.151 37.1379 159.275 37.1134 159.401 37.1175ZM159.401 36.5447C159.17 36.542 158.942 36.5935 158.735 36.695L111.336 63.946C110.786 64.2602 110.329 64.7147 110.012 65.2631C109.695 65.8115 109.529 66.4343 109.532 67.0677V104.507C109.532 104.669 109.564 104.83 109.625 104.98C109.691 105.133 109.789 105.27 109.912 105.382C110.035 105.494 110.181 105.579 110.339 105.631C110.497 105.683 110.664 105.701 110.83 105.684C110.996 105.667 111.156 105.615 111.3 105.531L158.706 78.2803C159.255 77.9652 159.711 77.5103 160.026 76.9619C160.342 76.4135 160.507 75.7913 160.504 75.1585V37.7189C160.508 37.4205 160.399 37.1315 160.198 36.9108C159.997 36.69 159.72 36.554 159.422 36.5303L159.401 36.5447Z" fill="#E0E0E0"/>
<path d="M110.069 105.481L111.73 106.648V103.949L110.069 105.481Z" fill="#E0E0E0"/>
<path d="M159.952 36.7236L161.642 37.8979L159.566 39.3657L159.952 36.7236Z" fill="#E0E0E0"/>
<path d="M161.041 37.6831C160.809 37.681 160.581 37.735 160.375 37.8406L112.976 65.0916C112.427 65.4051 111.97 65.8585 111.653 66.4056C111.337 66.9527 111.17 67.5739 111.171 68.2062V105.646C111.17 105.809 111.205 105.97 111.271 106.118C111.339 106.27 111.437 106.407 111.56 106.518C111.684 106.63 111.829 106.714 111.987 106.766C112.145 106.818 112.312 106.836 112.477 106.82C112.642 106.803 112.802 106.752 112.947 106.67L160.353 79.4187C160.902 79.1036 161.357 78.6487 161.673 78.1003C161.989 77.5519 162.153 76.9297 162.15 76.297V38.8573C162.151 38.5567 162.036 38.2674 161.83 38.049C161.623 37.8305 161.341 37.6996 161.041 37.6831Z" fill="white"/>
<path d="M161.019 38.2559C161.169 38.2686 161.309 38.3377 161.41 38.4493C161.511 38.561 161.566 38.7068 161.563 38.8573V76.2969C161.562 76.8286 161.422 77.3508 161.157 77.8117C160.892 78.2727 160.512 78.6563 160.053 78.9247L112.646 106.176C112.554 106.227 112.451 106.254 112.345 106.254C112.227 106.255 112.111 106.22 112.012 106.155C111.912 106.09 111.834 105.998 111.787 105.889C111.753 105.813 111.736 105.73 111.737 105.646V68.2062C111.738 67.6746 111.878 67.1525 112.145 66.6925C112.411 66.2325 112.794 65.8508 113.255 65.5856L160.654 38.3346C160.768 38.2817 160.893 38.2548 161.019 38.2559ZM161.019 37.6831C160.788 37.681 160.559 37.735 160.353 37.8406L112.954 65.0915C112.405 65.4051 111.949 65.8585 111.632 66.4056C111.315 66.9527 111.149 67.5739 111.15 68.2062V105.646C111.149 105.809 111.183 105.97 111.25 106.118C111.343 106.33 111.496 106.509 111.689 106.636C111.882 106.763 112.107 106.832 112.338 106.834C112.544 106.835 112.747 106.78 112.925 106.677L160.332 79.4259C160.88 79.1108 161.336 78.6559 161.652 78.1075C161.967 77.5591 162.132 76.9369 162.129 76.3041V38.8573C162.13 38.5591 162.017 38.2717 161.813 38.0536C161.61 37.8356 161.331 37.7031 161.033 37.6831H161.019Z" fill="#E0E0E0"/>
<path d="M156.215 75.0941L120.458 95.7364L131.026 68.2491L138.336 76.9414L145.818 66.2873L156.215 75.0941Z" fill="#FE662E"/>
<path opacity="0.4" d="M156.215 75.0941L120.458 95.7364L131.026 68.2491L138.336 76.9414L145.818 66.2873L156.215 75.0941Z" fill="white"/>
<path d="M143.814 57.9459C143.752 59.0771 143.425 60.178 142.859 61.1594C142.293 62.1409 141.504 62.9753 140.556 63.5951C138.752 64.6333 137.291 63.7884 137.291 61.712C137.351 60.5798 137.679 59.4778 138.246 58.4961C138.814 57.5144 139.605 56.6806 140.556 56.0628C142.353 55.0246 143.814 55.8623 143.814 57.9459Z" fill="#FE662E"/>
</svg>
