<svg width="354" height="346" viewBox="0 0 354 346" fill="none" xmlns="http://www.w3.org/2000/svg">
<path d="M277.713 185.706L226.22 166.731C225.374 166.419 224.6 165.948 223.941 165.345C223.282 164.741 222.751 164.017 222.38 163.213C222.008 162.409 221.803 161.542 221.776 160.661C221.748 159.78 221.899 158.903 222.22 158.079L249.166 88.6232C249.813 86.958 251.111 85.6112 252.776 84.8788C254.441 84.1465 256.336 84.0885 258.045 84.7178L290.705 96.7514L306.125 131.458L286.591 181.828C285.94 183.488 284.639 184.829 282.975 185.556C281.31 186.283 279.418 186.337 277.713 185.706Z" fill="#F5F5F5"/>
<path d="M290.705 96.7514L283.115 116.299C282.817 117.066 282.677 117.883 282.703 118.703C282.728 119.522 282.92 120.329 283.266 121.077C283.611 121.825 284.105 122.499 284.718 123.061C285.331 123.622 286.052 124.061 286.839 124.351L306.125 131.458L290.705 96.7514Z" fill="#EBEBEB"/>
<path d="M282.711 118.114C282.711 118.114 280.623 122.764 285.543 126.394C285.729 126.529 285.923 126.653 286.124 126.766C288.475 128.146 303.937 137.116 304.079 136.751L306.118 131.493L286.832 124.386C286.832 124.386 282.088 122.419 282.711 118.114Z" fill="#E0E0E0"/>
<path d="M279.108 113.912C279.009 114.167 273.6 112.401 267.022 109.979C260.445 107.557 255.192 105.383 255.291 105.149C255.39 104.914 260.799 106.66 267.376 109.082C273.954 111.504 279.207 113.643 279.108 113.912Z" fill="#E0E0E0"/>
<path d="M290.202 130.637C290.103 130.886 281.253 127.877 270.428 123.868C259.602 119.859 250.901 116.437 251 116.182C251.099 115.926 259.949 118.942 270.782 122.958C281.614 126.973 290.28 130.382 290.202 130.637Z" fill="#E0E0E0"/>
<path d="M290.153 141.167C290.053 141.415 280.41 138.096 268.608 133.742C256.806 129.388 247.319 125.662 247.418 125.414C247.517 125.166 257.16 128.484 268.962 132.838C280.764 137.192 290.28 140.911 290.153 141.167Z" fill="#E0E0E0"/>
<path d="M286.775 149.874C286.676 150.123 277.033 146.804 265.231 142.45C253.429 138.096 243.941 134.343 244.041 134.122C244.14 133.901 253.783 137.192 265.585 141.539C277.387 145.886 286.874 149.619 286.775 149.874Z" fill="#E0E0E0"/>
<path d="M283.398 158.582C283.299 158.831 273.649 155.512 261.854 151.158C250.059 146.804 240.564 143.078 240.656 142.83C240.748 142.581 250.398 145.9 262.208 150.247C274.017 154.594 283.49 158.327 283.398 158.582Z" fill="#E0E0E0"/>
<path d="M280.014 167.29C279.922 167.538 270.272 164.213 258.477 159.866C246.681 155.519 237.18 151.786 237.279 151.537C237.378 151.289 247.021 154.608 258.824 158.955C270.626 163.302 280.113 167.035 280.014 167.29Z" fill="#E0E0E0"/>
<path d="M106.035 113.599L38.151 136.767C35.8039 137.568 34.5675 140.072 35.3895 142.36L69.4488 237.145C70.2707 239.432 72.8398 240.637 75.1869 239.836L143.07 216.668C145.418 215.867 146.654 213.363 145.832 211.076L111.773 116.291C110.951 114.003 108.382 112.798 106.035 113.599Z" fill="#EBEBEB"/>
<path d="M106.905 119.491L41.2399 141.902L74.9973 235.847L140.662 213.436L106.905 119.491Z" fill="#E0E0E0"/>
<path d="M105.73 119.049L40.0647 141.46L73.1787 233.614L138.844 211.203L105.73 119.049Z" fill="#FAFAFA"/>
<path d="M138.832 211.202L105.634 119.08L105.754 119.135L40.1011 141.553L40.1649 141.429C52.5407 176.039 64.0599 208.007 73.2568 233.585L73.1506 233.537L138.839 211.202L73.2001 233.703H73.1222V233.627C63.9183 208.048 52.4345 176.081 39.9879 141.477V141.381H40.0799L105.74 118.983H105.832V119.066L138.832 211.202Z" fill="#E0E0E0"/>
<path d="M115.546 219.15C115.546 219.15 130.166 207.131 132.7 194.614C131.233 196.598 129.369 198.272 127.22 199.535C125.071 200.798 122.682 201.624 120.197 201.963C120.197 201.963 119.907 215.073 115.546 219.15Z" fill="#E0E0E0"/>
<path d="M62.5054 161.994L59.0507 163.173C57.7886 163.604 57.1238 164.95 57.5657 166.18L58.7755 169.547C59.2175 170.777 60.599 171.425 61.8611 170.994L65.3158 169.815C66.5779 169.384 67.2427 168.038 66.8008 166.808L65.591 163.441C65.149 162.211 63.7675 161.563 62.5054 161.994Z" fill="#EBEBEB"/>
<path d="M62.0845 167.794C62.0604 167.806 62.0337 167.812 62.0066 167.812C61.9795 167.812 61.9528 167.806 61.9288 167.794L60.3428 166.897C60.3044 166.868 60.2781 166.827 60.2687 166.781C60.2593 166.734 60.2676 166.687 60.2919 166.646C60.3163 166.605 60.355 166.575 60.4009 166.56C60.4468 166.545 60.4966 166.547 60.5411 166.566L61.9571 167.352L63.628 163.902C63.6523 163.856 63.6934 163.821 63.7432 163.803C63.793 163.785 63.8479 163.786 63.897 163.806C63.921 163.817 63.9424 163.832 63.9601 163.851C63.9778 163.871 63.9913 163.893 63.9999 163.918C64.0085 163.942 64.0119 163.968 64.0101 163.994C64.0082 164.02 64.001 164.045 63.989 164.068L62.2261 167.739C62.2079 167.757 62.1859 167.772 62.1615 167.781C62.137 167.791 62.1108 167.795 62.0845 167.794Z" fill="white"/>
<path d="M107.425 147.729C107.425 147.784 98.9289 150.744 88.3867 154.339C77.8446 157.934 69.2707 160.804 69.2707 160.756C69.2707 160.707 77.7667 157.74 88.3159 154.146C98.8651 150.551 107.411 147.68 107.425 147.729Z" fill="#E0E0E0"/>
<path d="M87.4026 160.99C87.4026 160.99 87.1831 161.087 86.7866 161.239L85.0733 161.86C83.6573 162.37 81.6182 163.067 79.4093 163.826C77.2003 164.585 75.1613 165.261 73.7453 165.738L72.0107 166.296C71.8007 166.372 71.5854 166.431 71.3664 166.476C71.5644 166.375 71.7704 166.289 71.9824 166.221L73.6957 165.606C75.1117 165.089 77.1508 164.392 79.3597 163.633C81.5687 162.874 83.6077 162.205 85.0237 161.722L86.7583 161.163C86.9676 161.087 87.1832 161.03 87.4026 160.99Z" fill="#E0E0E0"/>
<path d="M108.324 150.268C108.324 150.316 99.828 153.276 89.2788 156.871C78.7296 160.466 70.1628 163.343 70.1628 163.288C70.1628 163.233 78.6588 160.28 89.2151 156.685C99.7714 153.09 108.324 150.213 108.324 150.268Z" fill="#E0E0E0"/>
<path d="M67.437 175.724L63.9823 176.903C62.7202 177.333 62.0553 178.68 62.4973 179.91L63.7071 183.276C64.1491 184.507 65.5306 185.154 66.7927 184.724L70.2474 183.545C71.5095 183.114 72.1743 181.768 71.7323 180.538L70.5225 177.171C70.0806 175.941 68.6991 175.293 67.437 175.724Z" fill="#EBEBEB"/>
<path d="M67.0193 181.525C66.994 181.537 66.9661 181.543 66.9379 181.543C66.9096 181.543 66.8818 181.537 66.8565 181.525L65.2776 180.628C65.2547 180.616 65.2346 180.599 65.2186 180.579C65.2025 180.559 65.1908 180.536 65.1842 180.512C65.1775 180.487 65.1761 180.461 65.18 180.436C65.1839 180.411 65.193 180.387 65.2068 180.366C65.2193 180.343 65.2363 180.324 65.2568 180.308C65.2773 180.292 65.3009 180.281 65.3261 180.274C65.3513 180.268 65.3775 180.267 65.4033 180.27C65.4291 180.274 65.4538 180.283 65.4759 180.297L66.8919 181.083L68.5627 177.599C68.5857 177.553 68.6256 177.518 68.6742 177.5C68.7228 177.482 68.7766 177.483 68.8247 177.502C68.8725 177.523 68.9099 177.562 68.9284 177.61C68.947 177.658 68.9454 177.711 68.9238 177.757L67.1609 181.435C67.1452 181.459 67.1244 181.479 67.1 181.495C67.0756 181.51 67.0481 181.52 67.0193 181.525Z" fill="white"/>
<path d="M112.36 161.46C112.36 161.515 103.864 164.468 93.3144 168.07C82.7652 171.672 74.1984 174.535 74.1984 174.487C74.1984 174.438 82.6944 171.471 93.2436 167.877C103.793 164.282 112.345 161.411 112.36 161.46Z" fill="#E0E0E0"/>
<path d="M92.3374 174.721C92.3374 174.721 92.1179 174.818 91.7143 174.97L90.0081 175.591C88.5921 176.101 86.553 176.798 84.3441 177.557C82.1351 178.316 80.096 178.992 78.68 179.469L76.9454 180.027C76.7355 180.103 76.5201 180.162 76.3012 180.207C76.4983 180.104 76.7044 180.019 76.9171 179.952L78.6305 179.337C80.0465 178.82 82.0855 178.123 84.2945 177.364C86.5035 176.605 88.5425 175.936 89.9585 175.453L91.6931 174.894C91.9024 174.818 92.1179 174.761 92.3374 174.721Z" fill="#E0E0E0"/>
<path d="M113.28 164.013C113.28 164.061 104.784 167.021 94.2348 170.616C83.6856 174.211 75.1188 177.088 75.1188 177.033C75.1188 176.978 83.6148 174.024 94.164 170.43C104.713 166.835 113.28 163.944 113.28 164.013Z" fill="#E0E0E0"/>
<path d="M72.3756 189.453L68.921 190.632C67.6589 191.063 66.994 192.409 67.436 193.639L68.6458 197.006C69.0878 198.236 70.4693 198.884 71.7314 198.453L75.186 197.274C76.4482 196.844 77.113 195.497 76.671 194.267L75.4612 190.9C75.0192 189.67 73.6378 189.022 72.3756 189.453Z" fill="#EBEBEB"/>
<path d="M71.954 195.256C71.9287 195.268 71.9009 195.274 71.8726 195.274C71.8444 195.274 71.8165 195.268 71.7912 195.256L70.2053 194.373C70.1795 194.362 70.1563 194.346 70.1372 194.326C70.1182 194.305 70.1038 194.282 70.095 194.256C70.0862 194.23 70.0831 194.202 70.0861 194.175C70.089 194.148 70.0978 194.121 70.112 194.098C70.1262 194.074 70.1453 194.053 70.1682 194.038C70.1911 194.022 70.2172 194.011 70.2448 194.005C70.2723 194 70.3007 194.001 70.3281 194.007C70.3555 194.013 70.3812 194.025 70.4035 194.041L71.8195 194.828L73.4904 191.343C73.5003 191.319 73.5152 191.297 73.5341 191.279C73.553 191.26 73.5755 191.246 73.6003 191.236C73.6251 191.226 73.6517 191.221 73.6785 191.222C73.7052 191.222 73.7316 191.228 73.756 191.239C73.7804 191.25 73.8023 191.265 73.8204 191.284C73.8385 191.304 73.8525 191.326 73.8614 191.351C73.8703 191.375 73.874 191.401 73.8723 191.427C73.8706 191.453 73.8635 191.479 73.8515 191.502L72.0886 195.18C72.0539 195.219 72.0065 195.246 71.954 195.256Z" fill="white"/>
<path d="M117.294 175.191C117.294 175.246 108.798 178.199 98.2492 181.801C87.7 185.403 79.1332 188.266 79.1332 188.211C79.1332 188.156 87.6292 185.202 98.1854 181.608C108.742 178.013 117.273 175.142 117.294 175.191Z" fill="#E0E0E0"/>
<path d="M97.2721 188.445C97.0712 188.545 96.8629 188.631 96.6491 188.701L94.9357 189.322C93.5197 189.832 91.4878 190.529 89.2717 191.288C87.0557 192.047 85.0237 192.717 83.6077 193.2L81.8731 193.758C81.6628 193.832 81.4476 193.892 81.2289 193.938C81.426 193.835 81.6321 193.75 81.8448 193.683L83.5582 193.062C84.9742 192.551 87.0132 191.854 89.2222 191.095C91.4311 190.336 93.4702 189.667 94.8862 189.184L96.6137 188.625C96.8295 188.553 97.0494 188.493 97.2721 188.445Z" fill="#E0E0E0"/>
<path d="M118.236 177.73C118.236 177.778 109.74 180.738 99.1908 184.333C88.6416 187.928 80.0748 190.805 80.0748 190.75C80.0748 190.695 88.5708 187.742 99.12 184.14C109.669 180.538 118.186 177.675 118.236 177.73Z" fill="#E0E0E0"/>
<path d="M77.3072 203.183L73.8526 204.362C72.5905 204.792 71.9256 206.139 72.3676 207.369L73.5774 210.736C74.0194 211.966 75.4009 212.614 76.663 212.183L80.1176 211.004C81.3798 210.573 82.0446 209.227 81.6026 207.997L80.3928 204.63C79.9508 203.4 78.5694 202.752 77.3072 203.183Z" fill="#EBEBEB"/>
<path d="M76.8817 208.987C76.8571 208.997 76.8306 209.002 76.8039 209.002C76.7771 209.002 76.7506 208.997 76.726 208.987L75.14 208.09C75.095 208.063 75.0626 208.02 75.05 207.971C75.0373 207.921 75.0456 207.868 75.0728 207.824C75.1 207.78 75.144 207.749 75.1951 207.736C75.2463 207.724 75.3003 207.732 75.3454 207.759L76.7614 208.545L78.4323 205.095C78.4539 205.049 78.4936 205.012 78.5427 204.994C78.5918 204.976 78.6463 204.978 78.6942 204.999C78.7408 205.021 78.777 205.06 78.7954 205.107C78.8138 205.155 78.813 205.207 78.7933 205.254L77.0233 208.932C76.9852 208.967 76.9344 208.987 76.8817 208.987Z" fill="white"/>
<path d="M122.229 188.922C122.229 188.977 113.733 191.93 103.184 195.525C92.6347 199.12 84.0679 201.997 84.0679 201.942C84.0679 201.887 92.5639 198.933 103.113 195.339C113.662 191.744 122.208 188.853 122.229 188.922Z" fill="#E0E0E0"/>
<path d="M102.2 202.176C102.003 202.279 101.797 202.365 101.584 202.432L99.8705 203.053C98.4545 203.563 96.4155 204.26 94.2065 205.019C91.9975 205.778 89.9585 206.448 88.5425 206.931L86.8079 207.489C86.3973 207.614 86.1636 207.676 86.1636 207.669C86.3608 207.566 86.5669 207.481 86.7796 207.414L88.4929 206.793C89.9089 206.282 91.948 205.585 94.1569 204.826C96.3659 204.067 98.4049 203.398 99.8209 202.915L101.556 202.356C101.766 202.282 101.981 202.222 102.2 202.176Z" fill="#E0E0E0"/>
<path d="M123.142 191.461C123.142 191.509 114.646 194.469 104.097 198.064C93.5481 201.659 84.9813 204.529 84.9813 204.481C84.9813 204.433 93.4772 201.473 104.026 197.871C114.576 194.269 123.121 191.406 123.142 191.461Z" fill="#E0E0E0"/>
<path d="M47.4997 132.48L49.2272 137.31C49.7104 138.654 50.7215 139.757 52.0385 140.375C53.3554 140.994 54.8704 141.077 56.2506 140.608L92.571 128.188C93.2538 127.955 93.883 127.594 94.4224 127.125C94.9618 126.655 95.4009 126.086 95.7145 125.451C96.0282 124.816 96.2103 124.127 96.2504 123.423C96.2905 122.719 96.1878 122.015 95.9482 121.35L94.2207 116.52L47.4997 132.48Z" fill="#E0E0E0"/>
<path d="M71.3452 125.938C70.3803 126.269 69.3365 126.314 68.3457 126.066C67.355 125.818 66.4619 125.29 65.7795 124.547C65.0972 123.805 64.6563 122.881 64.5126 121.894C64.3689 120.907 64.529 119.901 64.9725 119.003C65.4159 118.105 66.1229 117.355 67.0039 116.848C67.8849 116.342 68.9002 116.102 69.9214 116.158C70.9426 116.214 71.9237 116.564 72.7405 117.164C73.5573 117.764 74.1731 118.587 74.5099 119.528C74.9605 120.787 74.8804 122.169 74.2871 123.371C73.6938 124.572 72.6359 125.496 71.3452 125.938ZM68.584 118.259C67.9889 118.461 67.4688 118.831 67.0895 119.322C66.7103 119.812 66.4888 120.402 66.4532 121.015C66.4177 121.628 66.5695 122.238 66.8896 122.767C67.2097 123.296 67.6837 123.721 68.2516 123.988C68.8194 124.254 69.4557 124.351 70.0798 124.265C70.7039 124.179 71.2878 123.914 71.7577 123.505C72.2276 123.095 72.5623 122.559 72.7195 121.965C72.8767 121.37 72.8493 120.743 72.6408 120.163C72.3615 119.387 71.7774 118.75 71.0167 118.393C70.2561 118.036 69.3811 117.987 68.584 118.259Z" fill="#E0E0E0"/>
<path d="M100.373 138.483C100.373 138.572 90.8293 141.933 78.9845 145.969C67.1397 150.006 57.5109 153.214 57.4755 153.124C57.4401 153.035 67.0193 149.674 78.8641 145.638C90.709 141.601 100.338 138.365 100.373 138.483Z" fill="#E0E0E0"/>
<path d="M88.1035 140.173C88.1035 140.263 83.9263 141.788 78.6942 143.575C73.4621 145.362 69.1929 146.763 69.1575 146.638C69.1221 146.514 73.3417 145.024 78.5739 143.237C83.806 141.45 88.0752 140.083 88.1035 140.173Z" fill="#E0E0E0"/>
<path d="M276.828 279.988C279.435 278.795 282.366 278.449 285.19 279.001C286.705 279.243 288.291 279.691 289.317 280.795C290.344 281.899 290.549 283.859 289.36 284.811C288.592 285.32 287.664 285.547 286.74 285.453C284.524 285.453 282.074 285.045 280.311 286.343C279.299 287.081 278.633 288.309 277.43 288.675C276.824 288.812 276.189 288.752 275.622 288.502C275.055 288.253 274.588 287.829 274.293 287.295C273.721 286.216 273.594 284.964 273.939 283.797C274.088 282.988 274.426 282.224 274.927 281.563C275.428 280.902 276.078 280.363 276.828 279.988Z" fill="#FE4000"/>
<path d="M270.966 269.031C272.523 271.19 275.547 270.48 276.948 269.155C278.35 267.83 278.938 265.919 279.476 264.097C280.708 259.923 281.954 255.548 281.041 251.298C280.813 250.02 280.233 248.828 279.363 247.848C278.919 247.361 278.352 246.997 277.718 246.791C277.084 246.585 276.406 246.545 275.752 246.675C274.223 247.068 273.281 248.524 272.594 249.904C270.575 253.995 269.518 258.474 269.5 263.014C269.5 265.125 269.748 267.333 270.966 269.079" fill="#FE4000"/>
<path d="M266.697 272.136C267.496 271.118 268.029 269.926 268.249 268.662C268.469 267.398 268.368 266.101 267.957 264.884C267.101 262.459 265.577 260.311 263.553 258.674C261.251 256.677 258.572 255.138 255.666 254.14C254.543 253.698 253.335 253.498 252.126 253.554C251.521 253.587 250.934 253.764 250.415 254.07C249.897 254.375 249.463 254.8 249.152 255.306C248.317 256.852 249.152 258.722 249.974 260.247C251.489 262.939 253.222 265.509 255.156 267.933C256.707 269.886 258.484 271.811 260.856 272.694C263.227 273.578 265.677 273.467 266.93 271.873" fill="#FE4000"/>
<path d="M270.867 301.674C270.944 301.353 270.989 301.025 271.001 300.695C271.079 300.005 271.164 299.08 271.27 298.011C271.406 296.687 271.614 295.372 271.893 294.071C272.253 292.487 272.743 290.934 273.359 289.427C273.963 287.921 274.783 286.507 275.794 285.225C276.618 284.18 277.67 283.326 278.874 282.727C279.69 282.332 280.564 282.067 281.465 281.94C281.805 281.929 282.142 281.882 282.471 281.802C282.13 281.767 281.785 281.767 281.444 281.802C280.51 281.876 279.597 282.109 278.747 282.492C277.479 283.073 276.366 283.933 275.497 285.004C274.445 286.306 273.596 287.752 272.976 289.296C272.348 290.824 271.86 292.403 271.518 294.015C271.257 295.333 271.078 296.665 270.98 298.004C270.888 299.142 270.86 300.074 270.845 300.702C270.813 301.025 270.82 301.352 270.867 301.674Z" fill="#263238"/>
<path d="M271.051 299.611C271.072 299.46 271.072 299.307 271.051 299.156V297.873C271.051 296.741 271.051 295.113 271.107 293.043C271.214 288.992 271.568 284.638 272.261 278.497C272.913 272.722 273.791 266.001 274.718 261.634C274.916 260.64 275.115 259.743 275.306 258.963C275.497 258.184 275.639 257.501 275.787 256.956C275.936 256.41 276.014 256.017 276.099 255.686C276.138 255.536 276.166 255.384 276.184 255.231C276.113 255.367 276.058 255.51 276.021 255.658C275.915 255.99 275.787 256.404 275.631 256.914C275.476 257.425 275.277 258.129 275.079 258.908C274.881 259.688 274.647 260.578 274.428 261.572C273.293 266.745 272.44 271.973 271.872 277.235C271.164 283.389 270.867 288.965 270.845 293.049C270.845 295.078 270.845 296.72 270.916 297.879C270.916 298.411 270.973 298.845 270.994 299.184C271 299.327 271.019 299.471 271.051 299.611Z" fill="#263238"/>
<path d="M271.079 288.806C271.118 288.347 271.118 287.885 271.079 287.426C270.999 286.189 270.855 284.957 270.647 283.734C270.344 281.919 269.932 280.122 269.415 278.352C268.816 276.175 268.044 274.045 267.107 271.984C265.505 268.184 263.209 264.698 260.332 261.696C259.83 261.183 259.296 260.701 258.732 260.254C258.491 260.047 258.271 259.847 258.024 259.688L257.408 259.274C257.036 258.997 256.641 258.752 256.225 258.543C257.585 259.578 258.874 260.698 260.084 261.896C262.875 264.919 265.112 268.387 266.697 272.149C267.615 274.199 268.39 276.305 269.019 278.456C269.551 280.208 269.989 281.986 270.329 283.783C270.619 285.321 270.789 286.543 270.888 287.44C270.917 287.899 270.981 288.356 271.079 288.806Z" fill="#263238"/>
<path d="M260.36 307.871L261.471 322.706H281.034L282.138 307.871H260.36Z" fill="#263238"/>
<path d="M284.482 302.019H258.477V307.871H284.482V302.019Z" fill="#263238"/>
<path d="M258.477 322.14V323.754H259.694H284.043V322.14H258.477Z" fill="#455A64"/>
<path d="M260.891 326.611L259.694 323.754H283.115L281.713 326.611H260.891Z" fill="#455A64"/>
<path d="M281.784 312.714C281.784 312.714 281.784 312.77 281.692 312.852L281.402 313.232L280.262 314.653L280.212 314.715L280.163 314.646L277.366 310.879H277.536L274.775 314.681L274.69 314.798L274.591 314.688L271.327 310.893H271.511L271.334 311.114L268.41 314.681L268.318 314.805L268.226 314.681C267.235 313.301 266.307 312.031 265.465 310.879H265.627L262.236 314.646L262.172 314.715L262.123 314.64C261.677 313.908 261.323 313.322 261.061 312.901L260.792 312.438C260.756 312.387 260.727 312.331 260.707 312.273C260.707 312.273 260.749 312.314 260.82 312.418L261.125 312.866L262.236 314.571H262.13L265.472 310.755L265.557 310.658L265.635 310.762L268.417 314.55H268.226L271.164 310.983L271.348 310.762L271.44 310.644L271.532 310.755L274.796 314.557H274.612L277.394 310.769L277.472 310.658L277.557 310.769C278.655 312.307 279.596 313.611 280.297 314.584H280.191L281.38 313.204L281.699 312.846L281.784 312.714Z" fill="#E0E0E0"/>
<path d="M282.414 307.767C282.414 307.836 277.515 307.891 271.468 307.891C265.422 307.891 260.523 307.836 260.523 307.767C260.523 307.698 265.422 307.65 271.468 307.65C277.515 307.65 282.414 307.705 282.414 307.767Z" fill="#455A64"/>
<path d="M283.405 323.92C283.405 323.982 278.074 324.037 271.511 324.037C264.948 324.037 259.617 323.982 259.617 323.92C259.617 323.858 264.941 323.796 271.511 323.796C278.081 323.796 283.405 323.851 283.405 323.92Z" fill="#263238"/>
<path d="M90.4824 276.586C90.4258 276.648 89.9797 276.386 89.4841 276C88.9885 275.613 88.6274 275.247 88.6841 275.178C88.7407 275.109 89.1797 275.379 89.6753 275.765C90.1709 276.151 90.532 276.517 90.4824 276.586Z" fill="#263238"/>
<path d="M104.076 256.824C104.269 254.984 104.113 253.125 103.616 251.339C103.021 249.579 101.633 247.972 99.7784 247.592C97.6544 247.164 95.488 248.469 94.2985 250.235C93.1091 252.001 92.7055 254.14 92.3515 256.217C89.936 270.568 89.0463 285.124 89.6965 299.653L98.3624 300.84C102.136 285.68 103.368 272.425 104.076 256.824Z" fill="#455A64"/>
<path d="M98.5394 247.503L98.497 247.641L98.3554 248.02L97.7748 249.483C97.6545 249.8 97.4916 250.173 97.3642 250.539L96.9464 251.815L96.4579 253.285L96.0119 254.961C95.2844 257.731 94.7241 260.539 94.3339 263.373C93.8666 266.547 93.5622 270.066 93.3144 273.764C92.8754 281.168 92.8046 287.888 92.6064 292.746C92.5144 295.182 92.4294 297.148 92.3374 298.5C92.2878 299.19 92.2524 299.68 92.2241 300.067C92.2241 300.225 92.2241 300.363 92.2241 300.467C92.2241 300.57 92.2241 300.605 92.2241 300.605C92.2241 300.605 92.2241 300.564 92.2241 300.467C92.2241 300.37 92.2241 300.225 92.2241 300.06C92.2241 299.68 92.2241 299.156 92.2736 298.494C92.3303 297.114 92.3798 295.175 92.4436 292.739C92.5852 287.909 92.6206 281.161 93.0666 273.75C93.3073 270.045 93.6259 266.519 94.1074 263.331C94.5134 260.507 95.0975 257.709 95.8561 254.955L96.3234 253.278C96.5075 252.763 96.6774 252.273 96.8332 251.808L97.2863 250.532C97.4208 250.145 97.5907 249.8 97.7182 249.483L98.3554 248.048C98.4214 247.896 98.4781 247.772 98.5253 247.675C98.5202 247.617 98.525 247.559 98.5394 247.503Z" fill="#263238"/>
<path d="M99.3395 247.537C99.7911 248.057 100.15 248.647 100.401 249.283C101.064 251.028 101.332 252.892 101.187 254.748C100.961 259.419 100.529 265.85 99.9625 272.957C99.3961 280.064 98.7518 286.481 98.2421 291.124C97.9801 293.443 97.7606 295.32 97.5978 296.644C97.5128 297.272 97.4491 297.769 97.3996 298.135L97.3429 298.521C97.3462 298.565 97.3462 298.609 97.3429 298.652C97.3429 298.652 97.3429 298.611 97.3429 298.521C97.3429 298.431 97.3429 298.287 97.3429 298.128C97.3429 297.762 97.4208 297.265 97.4774 296.631C97.612 295.306 97.796 293.436 98.0226 291.111C98.4757 286.46 99.0775 280.071 99.651 272.936C100.224 265.801 100.685 259.405 100.968 254.748C101.122 252.914 100.881 251.069 100.26 249.331C100.008 248.708 99.7001 248.107 99.3395 247.537Z" fill="#263238"/>
<path d="M105.35 269.403C104.782 269.363 104.225 269.223 103.708 268.989C103.158 268.85 102.638 268.616 102.171 268.299C102.741 268.335 103.298 268.476 103.814 268.713C104.365 268.851 104.885 269.085 105.35 269.403Z" fill="#263238"/>
<path d="M106.398 260.792C105.929 261.158 105.4 261.444 104.834 261.641C104.307 261.925 103.735 262.118 103.141 262.213C104.134 261.559 105.236 261.078 106.398 260.792Z" fill="#263238"/>
<path d="M105.853 253.761C104.997 253.912 104.117 253.852 103.29 253.588C103.709 253.471 104.15 253.45 104.579 253.526C105.016 253.507 105.453 253.588 105.853 253.761Z" fill="#263238"/>
<path d="M96.904 249.262C96.8332 249.303 96.4508 248.841 96.0614 248.234C95.778 247.883 95.5774 247.475 95.4738 247.04C95.5446 246.999 95.9269 247.454 96.3234 248.068C96.7199 248.682 96.996 249.214 96.904 249.262Z" fill="#263238"/>
<path d="M93.9516 253.512C93.5574 253.651 93.1346 253.693 92.7197 253.637C92.3025 253.676 91.8818 253.614 91.4948 253.457C91.8891 253.319 92.3119 253.277 92.7268 253.333C93.144 253.294 93.5646 253.356 93.9516 253.512Z" fill="#263238"/>
<path d="M91.8276 261.993C91.3744 261.975 90.9314 261.857 90.532 261.648C90.0949 261.526 89.691 261.312 89.3496 261.02C89.8027 261.037 90.2458 261.155 90.6452 261.365C91.0823 261.486 91.4862 261.7 91.8276 261.993Z" fill="#263238"/>
<path d="M91.601 269.162C91.601 269.244 91.1267 269.417 90.4966 269.541C89.8664 269.665 89.3496 269.714 89.3284 269.631C89.3071 269.548 89.8098 269.376 90.4328 269.251C90.8086 269.128 91.21 269.097 91.601 269.162Z" fill="#263238"/>
<path d="M90.624 280.864C90.624 280.947 90.1142 281.106 89.4487 281.223C89.0511 281.338 88.6307 281.357 88.2239 281.278C88.581 281.071 88.9841 280.95 89.3992 280.926C89.7958 280.807 90.2168 280.785 90.624 280.864Z" fill="#263238"/>
<path d="M89.916 287.322C89.9585 287.391 89.5195 287.695 88.939 288.012C88.3584 288.33 87.8557 288.495 87.8203 288.42C87.7849 288.344 88.2168 288.047 88.7974 287.73C89.3779 287.412 89.916 287.247 89.916 287.322Z" fill="#263238"/>
<path d="M95.3464 294.65C95.2756 294.692 94.8933 294.181 94.4968 293.505C94.21 293.118 94.012 292.676 93.9162 292.208C93.987 292.166 94.3693 292.677 94.7658 293.353C95.0526 293.74 95.2506 294.182 95.3464 294.65Z" fill="#263238"/>
<path d="M96.911 282.472C96.9677 282.527 96.5429 283.031 95.9623 283.59C95.3818 284.148 94.8578 284.549 94.7941 284.487C94.7304 284.424 95.1623 283.928 95.7428 283.369C96.3234 282.81 96.8473 282.41 96.911 282.472Z" fill="#263238"/>
<path d="M96.5641 276.075C96.5004 276.138 96.111 275.82 95.6862 275.385C95.2614 274.951 94.9782 274.53 95.0349 274.475C95.0915 274.419 95.488 274.73 95.9128 275.165C96.3376 275.599 96.6278 276.02 96.5641 276.075Z" fill="#263238"/>
<path d="M97.6403 267.913C97.704 267.968 97.35 268.458 96.8473 268.996C96.3446 269.534 95.8915 269.941 95.8278 269.886C95.7641 269.831 96.1181 269.341 96.6137 268.796C97.1093 268.251 97.5766 267.857 97.6403 267.913Z" fill="#263238"/>
<path d="M98.2421 261.993C98.1784 262.055 97.6898 261.675 97.1376 261.151C96.5854 260.626 96.196 260.15 96.2526 260.088C96.3092 260.026 96.8048 260.406 97.3571 260.937C97.9093 261.468 98.2987 261.93 98.2421 261.993Z" fill="#263238"/>
<path d="M99.4315 253.975C99.3378 254.41 99.1468 254.82 98.8722 255.175C98.497 255.796 98.1288 256.266 98.058 256.224C97.9872 256.183 98.2279 255.645 98.6102 255.024C98.9926 254.403 99.3537 253.933 99.4315 253.975Z" fill="#263238"/>
<path d="M101.662 246.55C101.74 246.592 101.52 247.13 101.173 247.751C100.826 248.372 100.465 248.848 100.409 248.814C100.476 248.382 100.643 247.972 100.897 247.613C101.244 246.985 101.584 246.516 101.662 246.55Z" fill="#263238"/>
<path d="M104.196 249.924C104.232 250 103.885 250.235 103.418 250.456C102.95 250.677 102.547 250.787 102.511 250.711C102.476 250.635 102.823 250.401 103.29 250.18C103.757 249.959 104.161 249.849 104.196 249.924Z" fill="#263238"/>
<path d="M104.253 276.586C103.077 276.502 101.963 276.039 101.088 275.268C101.639 275.431 102.173 275.646 102.681 275.91C103.227 276.082 103.754 276.309 104.253 276.586Z" fill="#263238"/>
<path d="M103.219 282.23C103.219 282.313 102.717 282.479 102.051 282.603C101.656 282.726 101.235 282.752 100.826 282.679C101.18 282.467 101.581 282.34 101.994 282.306C102.66 282.182 103.205 282.147 103.219 282.23Z" fill="#263238"/>
<path d="M101.952 291.911C101.902 291.98 101.244 291.531 100.635 290.786C100.23 290.361 99.9443 289.84 99.8068 289.275C100.202 289.685 100.56 290.129 100.876 290.6C101.275 291.004 101.635 291.443 101.952 291.911Z" fill="#263238"/>
<path d="M88.0115 296.341C87.9548 296.279 88.3088 295.892 88.7974 295.485C89.2859 295.078 89.7319 294.795 89.7886 294.864C89.8452 294.933 89.4912 295.306 89.0027 295.72C88.5142 296.134 88.0681 296.403 88.0115 296.341Z" fill="#263238"/>
<path d="M84.0042 275.213C83.4378 273.495 82.3829 271.494 80.535 271.466C79.9844 271.495 79.452 271.668 78.9935 271.967C78.5351 272.266 78.1676 272.679 77.9296 273.164C77.421 274.121 77.177 275.191 77.2216 276.269C77.4497 283.916 78.787 291.494 81.1934 298.776H87.969C87.8869 290.771 86.5499 282.825 84.0042 275.213Z" fill="#455A64"/>
<path d="M71.7629 264.401C71.4278 262.791 70.5477 261.338 69.2638 260.275C67.9799 259.211 66.3667 258.599 64.6829 258.536C61.6881 259.046 60.5269 261.917 60.1729 264.856C59.8189 267.795 60.7535 270.721 61.681 273.543C64.6451 282.596 67.614 291.651 70.5876 300.708L79.0128 299.811C76.379 287.681 74.8498 276.434 71.7629 264.401Z" fill="#455A64"/>
<path d="M80.535 271.466C80.316 271.76 80.1241 272.071 79.9615 272.398C79.6123 273.331 79.5029 274.333 79.6429 275.316C79.7704 276.572 79.919 278.076 80.1385 279.732C80.358 281.388 80.6624 283.182 81.0448 285.101C81.8094 288.896 82.6732 292.29 83.2183 294.761C83.4944 295.996 83.7068 297.003 83.8343 297.7C83.8909 298.024 83.9405 298.287 83.9759 298.507C84.0113 298.728 84.0184 298.79 83.9759 298.79C83.9391 298.703 83.9107 298.613 83.8909 298.521L83.6927 297.728C83.5086 296.989 83.2679 296.003 82.9847 294.809C82.3829 292.339 81.4837 288.951 80.7191 285.149C80.3368 283.245 80.0111 281.423 79.8341 279.753C79.7208 278.925 79.65 278.125 79.5792 277.386C79.5084 276.648 79.4376 275.951 79.4022 275.316C79.2812 274.304 79.4274 273.278 79.827 272.336C79.9955 271.999 80.2371 271.703 80.535 271.466Z" fill="#263238"/>
<path d="M64.8386 258.301C64.4632 258.718 64.1223 259.163 63.8191 259.633C63.0437 260.944 62.6041 262.419 62.5376 263.931C62.5024 266.174 62.8542 268.406 63.5784 270.535C64.2864 272.977 65.1289 275.661 65.9856 278.47C67.6635 284.1 69.1787 289.192 70.2902 292.911L71.5646 297.3C71.7062 297.797 71.8124 298.19 71.8974 298.494C71.9437 298.63 71.9745 298.771 71.9894 298.914C71.9245 298.786 71.8723 298.652 71.8337 298.514C71.7416 298.211 71.6071 297.824 71.4513 297.327C71.1186 296.272 70.6513 294.788 70.0849 292.974L65.6882 278.553C64.8386 275.73 64.0386 273.033 63.3023 270.604C62.581 268.445 62.2481 266.18 62.3182 263.911C62.4094 262.369 62.8963 260.874 63.7341 259.564C64.0283 259.086 64.4015 258.66 64.8386 258.301Z" fill="#263238"/>
<path d="M77.2074 298.935C77.1361 298.808 77.0723 298.676 77.0162 298.542C76.91 298.273 76.7331 297.893 76.5419 297.383C76.1383 296.375 75.6215 294.892 75.1259 293.029C74.6303 291.166 74.0639 288.889 73.5541 286.405C73.0444 283.921 72.5346 281.14 71.9682 278.242C71.4018 275.344 70.7363 272.619 69.9787 270.183C69.3215 268.017 68.5003 265.903 67.522 263.856C66.8569 262.478 66.0976 261.146 65.2493 259.867C64.959 259.412 64.697 259.074 64.5413 258.839C64.4526 258.722 64.3744 258.597 64.3076 258.467C64.4115 258.569 64.5062 258.68 64.5908 258.798C64.7678 259.032 65.044 259.35 65.3484 259.805C66.2438 261.063 67.0368 262.387 67.7202 263.766C68.7358 265.808 69.581 267.926 70.2478 270.1C71.0474 272.761 71.7043 275.46 72.216 278.187C72.7753 281.078 73.2992 283.838 73.7807 286.356C74.2621 288.875 74.7719 291.104 75.2817 292.974C75.7914 294.843 76.2658 296.327 76.6339 297.341C76.8038 297.859 76.9667 298.245 77.0587 298.514C77.1244 298.649 77.1742 298.79 77.2074 298.935Z" fill="#263238"/>
<path d="M61.865 272.191C61.865 272.267 61.4261 272.446 60.8384 272.584C60.2508 272.722 59.7623 272.77 59.7481 272.688C59.734 272.605 60.18 272.432 60.7676 272.294C61.3553 272.156 61.8438 272.108 61.865 272.191Z" fill="#263238"/>
<path d="M60.973 266.588C60.5127 266.714 60.0343 266.765 59.557 266.74C59.086 266.804 58.6071 266.791 58.141 266.698C58.5819 266.493 59.0697 266.403 59.557 266.436C60.0345 266.368 60.5219 266.421 60.973 266.588Z" fill="#263238"/>
<path d="M61.9217 261.468C61.865 261.537 61.4048 261.247 60.9022 260.826C60.3995 260.406 60.0242 260.012 60.0809 259.95C60.1375 259.888 60.5906 260.171 61.1004 260.592C61.6102 261.013 61.9783 261.406 61.9217 261.468Z" fill="#263238"/>
<path d="M64.4917 256.735C64.5767 256.735 64.5484 257.156 64.5413 257.632C64.5342 258.108 64.5413 258.515 64.4351 258.529C64.3289 258.543 64.2156 258.142 64.2298 257.625C64.2439 257.107 64.428 256.714 64.4917 256.735Z" fill="#263238"/>
<path d="M69.738 258.963C69.8088 259.012 69.6035 259.419 69.2778 259.867C68.9521 260.316 68.6335 260.647 68.5698 260.599C68.5061 260.55 68.7043 260.15 69.0229 259.695C69.3415 259.239 69.6672 258.915 69.738 258.963Z" fill="#263238"/>
<path d="M73.1435 264.753C73.1435 264.835 72.7399 265.077 72.1735 265.305C71.6071 265.532 71.1115 265.65 71.0832 265.574C71.0549 265.498 71.4868 265.249 72.0532 265.029C72.6196 264.808 73.1152 264.656 73.1435 264.753Z" fill="#263238"/>
<path d="M75.2108 270.666C74.8362 270.983 74.3724 271.182 73.8798 271.239C73.4079 271.387 72.9025 271.404 72.4213 271.287C72.8756 271.111 73.3517 270.995 73.8373 270.942C74.282 270.796 74.7432 270.703 75.2108 270.666Z" fill="#263238"/>
<path d="M65.7236 268.982C65.6458 268.982 65.7236 268.548 65.8582 268.065C65.9927 267.582 66.2051 267.216 66.283 267.243C66.3608 267.271 66.283 267.678 66.1484 268.161C66.0139 268.644 65.844 269.01 65.7236 268.982Z" fill="#263238"/>
<path d="M67.0476 276.434C67.0762 275.999 67.2071 275.577 67.4299 275.199C67.7202 274.551 68.0176 274.054 68.0954 274.088C68.0668 274.523 67.936 274.946 67.7131 275.323C67.4228 275.972 67.1255 276.483 67.0476 276.434Z" fill="#263238"/>
<path d="M63.7766 278.477C63.3594 278.467 62.9482 278.378 62.566 278.214C61.9217 278.014 61.3978 277.835 61.419 277.752C61.8404 277.699 62.2686 277.759 62.658 277.925C63.3164 278.125 63.812 278.401 63.7766 278.477Z" fill="#263238"/>
<path d="M65.6599 284.549C65.7095 284.618 65.3484 284.949 64.8599 285.294C64.3714 285.639 63.9182 285.86 63.8687 285.798C63.8191 285.735 64.1802 285.39 64.6758 285.045C65.1714 284.7 65.6104 284.48 65.6599 284.549Z" fill="#263238"/>
<path d="M67.175 290.607C67.175 290.683 66.7503 290.862 66.1768 290.993C65.6033 291.124 65.1289 291.173 65.1077 291.097C65.0865 291.021 65.5325 290.841 66.106 290.703C66.6795 290.565 67.1538 290.524 67.175 290.607Z" fill="#263238"/>
<path d="M75.3808 275.73C75.4232 275.799 75.0409 276.096 74.4887 276.296C73.9364 276.496 73.4408 276.524 73.4267 276.448C73.4125 276.372 73.8515 276.213 74.3754 276.013C74.8993 275.813 75.3383 275.655 75.3808 275.73Z" fill="#263238"/>
<path d="M76.549 285.149C76.5136 285.225 76.0604 285.094 75.5365 284.852C75.0126 284.611 74.6161 284.355 74.6515 284.28C74.6869 284.204 75.1471 284.342 75.671 284.576C76.195 284.811 76.5914 285.073 76.549 285.149Z" fill="#263238"/>
<path d="M78.6234 291.897C78.1545 291.874 77.696 291.754 77.2782 291.545C76.5702 291.276 76.025 290.993 76.0534 290.91C76.52 290.934 76.9761 291.054 77.3915 291.262C78.0995 291.531 78.6517 291.814 78.6234 291.897Z" fill="#263238"/>
<path d="M67.5078 297.183C67.4653 297.107 68.0176 296.748 68.6548 296.258C69.292 295.768 69.7876 295.326 69.8513 295.389C69.915 295.451 69.5114 295.982 68.8459 296.493C68.4757 296.841 68.0117 297.08 67.5078 297.183Z" fill="#263238"/>
<path d="M72.9736 293.733C72.8886 293.733 72.7682 293.291 72.5558 292.767C72.3434 292.242 72.131 291.821 72.2018 291.773C72.2726 291.725 72.6266 292.083 72.8461 292.656C73.0656 293.229 73.0585 293.733 72.9736 293.733Z" fill="#263238"/>
<path d="M71.508 285.639C71.4584 285.708 71.1044 285.542 70.715 285.273C70.3256 285.004 70.0566 284.728 70.1062 284.659C70.1557 284.59 70.5097 284.756 70.8991 285.025C71.2885 285.294 71.5788 285.57 71.508 285.639Z" fill="#263238"/>
<path d="M84.252 272.929C84.3016 272.998 83.9546 273.329 83.4803 273.667C83.0059 274.005 82.5811 274.233 82.5316 274.164C82.482 274.095 82.8218 273.771 83.2962 273.426C83.7706 273.081 84.252 272.86 84.252 272.929Z" fill="#263238"/>
<path d="M86.199 278.049C86.199 278.132 85.668 278.242 85.0025 278.173C84.337 278.104 83.8343 277.883 83.8555 277.807C83.8768 277.732 84.4007 277.807 85.0379 277.869C85.6751 277.932 86.1919 277.966 86.199 278.049Z" fill="#263238"/>
<path d="M77.9366 279.201C77.9366 279.277 77.4623 279.45 76.8109 279.491C76.1596 279.532 75.6498 279.429 75.6569 279.346C75.664 279.263 76.1737 279.236 76.7968 279.194C77.4198 279.153 77.9225 279.118 77.9366 279.201Z" fill="#263238"/>
<path d="M78.6517 274.357C78.6517 274.44 78.142 274.454 77.5897 274.199C77.0375 273.943 76.7189 273.578 76.7755 273.509C76.8322 273.44 77.2145 273.702 77.7172 273.923C78.2198 274.143 78.6588 274.275 78.6517 274.357Z" fill="#263238"/>
<path d="M86.907 283.548C86.8645 283.617 86.3477 283.383 85.753 283.017C85.1582 282.651 84.7193 282.327 84.7688 282.23C84.8184 282.134 85.3282 282.403 85.9229 282.762C86.5176 283.12 86.9566 283.479 86.907 283.548Z" fill="#263238"/>
<path d="M107.064 297.914H62.9908V305.525H107.064V297.914Z" fill="#FE4000"/>
<path d="M66.283 304.02L71.6425 326.77H97.9093L103.772 304.02H66.283Z" fill="#FE4000"/>
<path d="M107.043 305.538C107.043 305.621 97.1305 305.69 84.8396 305.69C72.5488 305.69 62.6368 305.621 62.6368 305.538C62.6368 305.456 72.5488 305.387 84.8396 305.387C97.1305 305.387 107.043 305.463 107.043 305.538Z" fill="#263238"/>
<path d="M82.5316 279.367C82.4608 279.408 82.1563 279.07 81.859 278.601C81.5616 278.132 81.3775 277.718 81.4483 277.676C81.5191 277.635 81.8236 277.973 82.1209 278.442C82.4183 278.911 82.6024 279.318 82.5316 279.367Z" fill="#263238"/>
<path d="M82.5457 285.487C82.5245 285.09 82.6048 284.694 82.7794 284.335C82.9847 283.721 83.2254 283.245 83.3033 283.272C83.3251 283.671 83.2448 284.07 83.0696 284.431C82.836 285.039 82.6307 285.515 82.5457 285.487Z" fill="#263238"/>
<path d="M84.698 291.918C84.6202 291.959 84.2945 291.442 83.99 290.772C83.7457 290.384 83.5911 289.948 83.5369 289.496C83.6148 289.455 83.9405 289.972 84.2449 290.641C84.4892 291.03 84.6438 291.465 84.698 291.918Z" fill="#263238"/>
<path d="M80.0465 297.093C79.9828 297.038 80.2447 296.644 80.6341 296.203C81.0235 295.761 81.3846 295.458 81.4554 295.513C81.5262 295.568 81.2572 295.968 80.8678 296.403C80.4784 296.838 80.1102 297.183 80.0465 297.093Z" fill="#263238"/>
<path d="M79.0694 287.702C79.0694 287.785 78.6305 287.778 78.1207 287.702C77.611 287.626 77.2145 287.481 77.2286 287.398C77.2428 287.316 77.6676 287.322 78.1703 287.398C78.673 287.474 79.0836 287.619 79.0694 287.702Z" fill="#263238"/>
<path d="M232.401 245.598H127.886V326.825H232.401V245.598Z" fill="#E0E0E0"/>
<g opacity="0.3">
<path opacity="0.3" d="M135.497 245.764C147.802 250.042 161.374 250.959 174.579 251.201C177.319 251.249 180.087 251.242 182.735 251.891C185.383 252.54 187.939 254.009 189.298 256.321C190.778 258.839 190.622 261.993 189.779 264.773C188.937 267.554 187.485 270.128 186.438 272.839C184.582 277.637 184.015 282.817 184.788 287.888C185.026 290.049 185.772 292.127 186.969 293.96C187.575 294.871 188.391 295.632 189.352 296.18C190.314 296.729 191.393 297.051 192.505 297.12C196.477 297.176 199.196 293.374 201.164 290.007C209.242 276.207 217.979 260.544 223.147 245.481L135.497 245.764Z" fill="black"/>
</g>
<path d="M163.498 326.39C163.392 326.39 163.314 308.388 163.314 286.184C163.314 263.98 163.392 245.971 163.498 245.971C163.605 245.971 163.683 263.973 163.683 286.184C163.683 308.395 163.598 326.39 163.498 326.39Z" fill="#455A64"/>
<path d="M206.325 185.568C206.014 183.54 199.798 176.847 199.798 176.847C199.798 176.847 196.697 164.696 195.762 161.115C195.451 160.079 194.996 159.09 194.41 158.175C192.212 154.606 189.085 151.667 185.347 149.654L176.745 144.941L174.692 140.484L154.032 130.134L148.432 139.794C148.432 139.794 134.832 144.003 133.033 146.99C131.235 149.978 133.925 190.322 133.925 190.322C133.925 190.322 128.261 213.589 127.036 218.405C125.812 223.221 127.419 228.962 127.419 228.962L137.55 216.577C140.701 212.727 147.611 210.953 152.574 211.022L194.99 211.209L193.284 199.63L227.601 206.103C227.601 206.103 233.498 194.883 233.973 194.662C234.447 194.442 206.325 185.568 206.325 185.568Z" fill="#FE4000"/>
<path d="M153.155 143.554C152.857 143.257 155.548 152.124 158.932 161.156C160.752 166.037 161.68 171.191 161.672 176.384V209.09L182.006 207.745L178.968 186.203C178.968 186.203 176.49 172.306 175.796 167.021C175.159 162.191 172.964 149.081 172.964 149.081C172.964 149.081 161.672 152.007 153.155 143.554Z" fill="white"/>
<path d="M198.282 193.683C198.251 193.516 198.251 193.345 198.282 193.179C198.329 192.728 198.419 192.282 198.552 191.847C198.981 190.396 199.78 189.074 200.874 188.004C201.973 186.937 203.329 186.154 204.817 185.727C205.263 185.598 205.721 185.51 206.184 185.465C206.352 185.433 206.525 185.433 206.693 185.465C206.693 185.527 205.985 185.603 204.895 185.968C203.48 186.442 202.195 187.224 201.138 188.256C200.082 189.289 199.282 190.543 198.799 191.923C198.424 192.993 198.346 193.683 198.282 193.683Z" fill="#263238"/>
<path d="M199.33 185.844C200.275 185.304 201.344 185.002 202.438 184.968C203.523 184.822 204.627 184.95 205.646 185.34C205.646 185.451 204.23 185.182 202.467 185.34C200.704 185.499 199.373 185.948 199.33 185.844Z" fill="#263238"/>
<g opacity="0.3">
<path opacity="0.3" d="M131.879 203.694L130.109 205.64C131.955 207.861 134.456 209.474 137.274 210.263C140.114 210.851 143.017 211.105 145.919 211.022C147.095 211.078 148.272 210.968 149.416 210.698C150.57 210.374 151.639 209.739 152.836 209.67C153.638 209.673 154.437 209.785 155.208 210.001C155.984 210.216 156.804 210.227 157.587 210.036C157.974 209.934 158.317 209.713 158.566 209.406C158.815 209.099 158.955 208.722 158.967 208.331C150.141 205.817 141.056 204.262 131.879 203.694Z" fill="black"/>
</g>
<path d="M189.935 206.192L184.979 201.031L174.678 198.513C174.678 198.513 165.276 201.273 165.049 201.273C164.822 201.273 156.864 199.147 156.864 199.147L154.082 209.097L168.419 210.056L184.788 209.415C184.788 209.415 185.645 208.642 185.135 208.11C184.625 207.579 187.875 209.007 188.257 209.021C188.64 209.035 189.376 209.325 189.886 208.731C190.233 208.29 190.7 206.986 189.935 206.192Z" fill="#FFBE9D"/>
<path d="M185.135 208.076C184.579 207.974 184.034 207.821 183.507 207.621C182.515 207.317 181.135 206.931 179.598 206.517C178.062 206.103 176.646 205.827 175.619 205.654C175.058 205.583 174.505 205.455 173.97 205.275C174.537 205.25 175.105 205.292 175.662 205.399C177.016 205.583 178.359 205.841 179.683 206.172C181.01 206.5 182.315 206.905 183.591 207.386C184.134 207.551 184.653 207.783 185.135 208.076Z" fill="#EB996E"/>
<path d="M189.935 206.192C189.163 206.002 188.402 205.772 187.655 205.502C186.239 205.047 184.307 204.481 182.133 203.895C179.959 203.308 178.034 202.639 176.568 202.556C175.779 202.516 174.987 202.546 174.203 202.646C174.395 202.543 174.603 202.473 174.819 202.439C175.398 202.317 175.991 202.27 176.582 202.301C178.097 202.301 180.122 202.929 182.246 203.55C184.37 204.171 186.367 204.743 187.755 205.268C188.463 205.523 188.994 205.758 189.376 205.923C189.575 205.986 189.763 206.076 189.935 206.192Z" fill="#EB996E"/>
<path d="M133.033 146.99C133.033 146.99 125.635 152.007 123.829 159.224C122.024 166.441 114.229 195.939 115.829 200.348C117.429 204.757 148.538 209.09 148.538 209.09L152.227 193.91L136.425 189.694C136.425 189.694 136.63 175.653 136.828 169.836C137.026 164.019 133.033 146.99 133.033 146.99Z" fill="#FE4000"/>
<path d="M152.029 196.194L157.119 197.415L154.054 208.856L149.055 208.076L152.029 196.194Z" fill="white"/>
<path d="M115.716 198.789C115.716 198.789 115.716 199.044 115.793 199.479C115.965 200.146 116.344 200.746 116.877 201.197C118.229 202.425 120.813 203.446 124.084 204.019C125.578 204.502 127.284 204.881 129.104 205.281C130.923 205.682 132.892 206.089 134.959 206.496C139.101 207.324 143.682 208.193 148.538 209.076L148.326 209.208C148.673 207.828 149.034 206.316 149.423 204.805C150.294 201.355 151.144 197.961 151.944 194.766L152.071 194.973L138.06 191.102C136.125 190.308 134.032 189.95 131.936 190.053C130.343 190.14 128.778 190.499 127.313 191.116C126.381 191.508 125.492 191.989 124.658 192.551L124.013 193.006C123.943 193.062 123.867 193.11 123.787 193.151C123.787 193.151 123.85 193.082 123.985 192.972C124.119 192.861 124.325 192.689 124.608 192.482C125.43 191.888 126.316 191.381 127.249 190.971C128.723 190.32 130.306 189.934 131.922 189.832C134.055 189.7 136.191 190.044 138.166 190.84L152.22 194.676L152.39 194.718L152.347 194.883C151.547 198.078 150.705 201.445 149.841 204.93C149.459 206.434 149.091 207.924 148.737 209.325L148.694 209.49H148.524C143.667 208.6 139.094 207.717 134.952 206.875C132.885 206.454 130.923 206.034 129.097 205.62C127.27 205.206 125.557 204.812 124.056 204.309C120.742 203.694 118.158 202.632 116.792 201.342C116.25 200.867 115.878 200.236 115.73 199.541C115.679 199.293 115.674 199.038 115.716 198.789Z" fill="#263238"/>
<path d="M137.288 190.722C137.246 190.771 136.715 190.295 135.766 189.681C133.281 188.059 130.345 187.223 127.355 187.286C126.208 187.286 125.507 187.438 125.493 187.376C126.086 187.167 126.71 187.053 127.341 187.038C130.413 186.821 133.463 187.685 135.936 189.474C136.454 189.814 136.911 190.236 137.288 190.722Z" fill="#263238"/>
<path d="M139.363 166.02C139.389 166.328 139.389 166.637 139.363 166.945C139.363 167.545 139.299 168.401 139.214 169.464C139.037 171.582 138.718 174.501 138.145 177.702C137.697 180.441 137.041 183.144 136.184 185.789C136.014 186.293 135.83 186.748 135.681 187.169L135.228 188.163C135.095 188.446 134.931 188.714 134.739 188.963C134.828 188.667 134.947 188.38 135.093 188.107C135.214 187.811 135.341 187.473 135.49 187.1C135.639 186.727 135.78 186.244 135.936 185.72C136.71 183.066 137.327 180.37 137.784 177.647C138.35 174.459 138.711 171.554 138.952 169.443C139.058 168.442 139.15 167.607 139.221 166.945C139.23 166.632 139.278 166.322 139.363 166.02Z" fill="#263238"/>
<path d="M157.403 158.203C157.403 158.203 157.332 158.016 157.162 157.692C156.91 157.232 156.542 156.843 156.093 156.561C155.76 156.338 155.38 156.193 154.982 156.136C154.583 156.078 154.176 156.11 153.792 156.229C153.305 156.392 152.87 156.675 152.53 157.051C152.189 157.428 151.956 157.884 151.852 158.375L151.753 158.865L151.533 158.41C150.705 156.678 149.984 154.899 149.374 153.083C148.292 150.058 147.751 146.875 147.774 143.671C147.774 143.057 147.859 142.505 147.894 142.015C147.93 141.525 148.043 141.118 148.121 140.787C148.195 140.439 148.3 140.097 148.432 139.766C148.191 141.055 148.056 142.361 148.029 143.671C148.087 146.839 148.658 149.978 149.721 152.973C150.331 154.775 151.04 156.543 151.845 158.272L151.526 158.313C151.648 157.771 151.915 157.269 152.299 156.858C152.683 156.448 153.171 156.143 153.714 155.974C154.135 155.85 154.581 155.824 155.015 155.897C155.448 155.97 155.859 156.14 156.213 156.395C156.673 156.71 157.035 157.142 157.261 157.644C157.323 157.776 157.368 157.915 157.395 158.058C157.41 158.148 157.417 158.203 157.403 158.203Z" fill="#263238"/>
<path d="M174.664 159.755C174.588 159.486 174.533 159.212 174.501 158.934C174.346 158.174 174.296 157.396 174.352 156.623C174.511 155.433 175.12 154.343 176.058 153.566C176.639 153.1 177.367 152.844 178.119 152.841C178.528 152.837 178.934 152.919 179.308 153.082C179.682 153.245 180.016 153.486 180.285 153.787L179.974 153.966L179.301 152.317C177.977 149.067 176.802 146.107 175.966 143.975L174.996 141.429C174.862 141.125 174.759 140.808 174.692 140.484C174.866 140.769 175.013 141.069 175.131 141.381C175.414 142.071 175.775 142.878 176.214 143.885C177.113 146.004 178.338 148.936 179.648 152.165L180.313 153.821L180.745 154.884L180.037 153.994C179.803 153.729 179.513 153.518 179.186 153.375C178.86 153.232 178.505 153.161 178.147 153.166C177.473 153.162 176.818 153.383 176.292 153.794C175.407 154.515 174.817 155.521 174.628 156.63C174.552 157.385 174.566 158.147 174.671 158.9C174.704 159.184 174.702 159.471 174.664 159.755Z" fill="#263238"/>
<path d="M187.797 161.466C187.896 161.466 189.496 171.941 191.372 184.892C193.249 197.843 194.679 208.352 194.58 208.352C194.48 208.352 192.88 197.878 191.004 184.892C189.128 171.906 187.698 161.48 187.797 161.466Z" fill="#263238"/>
<g opacity="0.3">
<path opacity="0.3" d="M149.586 153.193C149.672 155.876 150.27 158.52 151.349 160.99C152.121 160.059 152.978 159.079 154.181 158.803C155.64 158.465 157.119 159.341 158.174 160.418C157.992 159.341 157.555 158.321 156.9 157.437C156.573 157.002 156.147 156.647 155.656 156.399C155.164 156.152 154.621 156.018 154.068 156.009C153.517 156.021 152.986 156.213 152.558 156.553C152.131 156.892 151.833 157.361 151.71 157.885L149.678 153.242" fill="black"/>
</g>
<path d="M137.628 160.776C137.564 160.776 137.586 160.052 137.373 158.927C137.082 157.462 136.498 156.067 135.653 154.822C135.177 154.148 134.634 153.521 134.031 152.952C133.532 152.491 132.989 152.078 132.41 151.717C131.412 151.103 130.711 150.868 130.739 150.806C130.913 150.818 131.083 150.86 131.242 150.93C131.44 150.982 131.632 151.054 131.815 151.144C132.06 151.247 132.297 151.366 132.523 151.503C133.139 151.842 133.716 152.245 134.244 152.703C134.879 153.28 135.446 153.923 135.936 154.622C136.814 155.903 137.385 157.36 137.607 158.886C137.677 159.342 137.701 159.805 137.678 160.266C137.678 160.597 137.656 160.776 137.628 160.776Z" fill="#263238"/>
<path d="M178.728 111.573C178.323 107.878 176.506 104.467 173.638 102.018C170.771 99.57 167.062 98.2635 163.251 98.359H162.465C154.004 99.049 149.884 106.439 150.832 114.657L153.155 143.568L154.139 144.741C156.348 147.386 159.393 149.245 162.8 150.027C166.206 150.81 169.782 150.472 172.971 149.067L172.32 139.766C172.32 139.766 180.434 138.331 180.321 130.396C180.271 126.546 179.506 118.666 178.728 111.573Z" fill="#FFBE9D"/>
<path d="M172.384 139.745C168.606 139.848 164.878 138.89 161.643 136.985C161.643 136.985 164.298 142.636 172.405 141.719L172.384 139.745Z" fill="#EB996E"/>
<path d="M176.15 118.1C176.158 118.395 176.05 118.681 175.847 118.9C175.643 119.118 175.362 119.252 175.06 119.273C174.913 119.287 174.764 119.273 174.622 119.23C174.48 119.188 174.348 119.118 174.234 119.026C174.12 118.934 174.026 118.82 173.958 118.692C173.889 118.564 173.848 118.423 173.835 118.279C173.825 117.984 173.934 117.697 174.137 117.478C174.34 117.259 174.623 117.126 174.926 117.106C175.073 117.091 175.223 117.105 175.365 117.147C175.507 117.189 175.639 117.258 175.753 117.351C175.867 117.444 175.961 117.558 176.03 117.686C176.098 117.815 176.139 117.956 176.15 118.1Z" fill="#263238"/>
<path d="M176.667 113.787C176.575 113.925 175.655 114.022 174.543 114.602C173.432 115.181 172.78 115.906 172.632 115.892C172.483 115.878 172.632 115.692 172.908 115.368C173.331 114.91 173.835 114.529 174.395 114.243C174.929 113.952 175.515 113.762 176.122 113.684C176.54 113.643 176.717 113.718 176.667 113.787Z" fill="#263238"/>
<path d="M164.398 118.7C164.411 118.996 164.304 119.286 164.1 119.505C163.896 119.725 163.611 119.857 163.307 119.873C163.16 119.888 163.01 119.875 162.868 119.833C162.726 119.791 162.594 119.721 162.48 119.629C162.365 119.536 162.271 119.422 162.203 119.293C162.135 119.165 162.094 119.024 162.082 118.88C162.073 118.584 162.181 118.297 162.384 118.078C162.588 117.859 162.87 117.726 163.173 117.707C163.321 117.691 163.47 117.705 163.612 117.747C163.754 117.789 163.886 117.859 164.001 117.951C164.115 118.044 164.209 118.158 164.277 118.287C164.345 118.415 164.386 118.556 164.398 118.7Z" fill="#263238"/>
<path d="M164.256 115.45C164.093 115.45 163.336 114.988 162.132 114.698C160.928 114.408 159.93 114.471 159.824 114.374C159.718 114.277 159.951 114.236 160.383 114.201C161.014 114.162 161.647 114.221 162.259 114.374C162.852 114.511 163.417 114.744 163.93 115.064C164.213 115.285 164.298 115.437 164.256 115.45Z" fill="#263238"/>
<path d="M169.127 124.924C169.783 124.711 170.463 124.574 171.152 124.517C171.471 124.517 171.768 124.407 171.817 124.193C171.837 123.873 171.756 123.555 171.584 123.282L170.571 120.929C169.155 117.589 168.15 114.836 168.292 114.788C168.433 114.74 169.708 117.396 171.074 120.736C171.414 121.564 171.74 122.35 172.044 123.102C172.253 123.472 172.323 123.902 172.242 124.317C172.198 124.428 172.129 124.528 172.039 124.609C171.95 124.691 171.842 124.751 171.725 124.786C171.551 124.839 171.37 124.869 171.187 124.876C170.506 124.978 169.813 124.994 169.127 124.924Z" fill="#263238"/>
<path d="M164.256 110.745C164.114 111.069 162.875 110.855 161.424 110.952C159.973 111.048 158.741 111.393 158.592 111.083C158.507 110.938 158.734 110.634 159.222 110.337C159.879 109.973 160.613 109.76 161.368 109.714C162.123 109.669 162.878 109.792 163.576 110.075C164.044 110.317 164.298 110.586 164.256 110.745Z" fill="#263238"/>
<path d="M176.639 111.014C176.363 111.297 175.287 111.014 173.998 111.014C172.709 111.014 171.612 111.228 171.357 110.938C171.244 110.8 171.414 110.517 171.888 110.248C172.542 109.914 173.274 109.75 174.012 109.772C174.756 109.767 175.489 109.952 176.136 110.31C176.603 110.593 176.759 110.883 176.639 111.014Z" fill="#263238"/>
<path d="M181.099 104.521C181.028 104.159 180.822 103.834 180.523 103.609C180.223 103.385 179.849 103.274 179.471 103.299C179.878 103.186 180.258 102.996 180.59 102.741C180.755 102.611 180.879 102.439 180.947 102.243C181.016 102.048 181.027 101.838 180.979 101.637C180.767 101.022 179.959 100.891 179.322 100.719C178.486 100.482 177.744 100 177.198 99.3388C176.427 98.3866 176.129 97.1446 175.457 96.1165C175.022 95.4528 174.441 94.8925 173.755 94.4768C173.069 94.0611 172.296 93.8007 171.493 93.7146C170.69 93.6285 169.877 93.7191 169.115 93.9795C168.353 94.24 167.66 94.6637 167.088 95.2195C166.463 94.5937 165.694 94.1222 164.845 93.8443C163.996 93.5664 163.091 93.4901 162.205 93.6217C161.319 93.7533 160.479 94.089 159.753 94.6009C159.027 95.1129 158.438 95.7862 158.033 96.565C156.947 96.1236 155.759 95.9749 154.593 96.1344C153.428 96.294 152.328 96.7559 151.409 97.4719C150.49 98.1879 149.785 99.1316 149.368 100.204C148.952 101.277 148.839 102.439 149.041 103.569L154.11 106.598C154.151 106.222 154.274 105.859 154.47 105.533C154.665 105.207 154.93 104.925 155.246 104.705C155.562 104.486 155.922 104.335 156.302 104.262C156.682 104.188 157.074 104.194 157.452 104.279C158.981 104.714 159.958 106.439 161.544 106.556C162.783 106.646 163.838 105.714 165.035 105.404C166.486 105.024 168.023 105.59 169.332 106.308C170.642 107.025 171.895 107.922 173.354 108.281C175.096 108.622 176.904 108.411 178.515 107.681C179.23 107.436 179.883 107.043 180.427 106.529C180.695 106.27 180.896 105.953 181.013 105.604C181.13 105.255 181.16 104.883 181.099 104.521Z" fill="#263238"/>
<path d="M154.967 104.265L178.189 104.141C177.352 102.62 176.134 101.329 174.649 100.388C171.566 98.1916 167.849 97.001 164.029 96.9859C160.242 96.9859 152.666 101.726 149.997 104.341C147.873 106.411 147.93 108.198 147.93 108.198C147.66 111.138 149.438 114.408 150.195 117.286C150.577 118.762 151.377 123.234 151.377 123.234C152.652 123.199 153.098 122.192 152.871 120.963L152.496 116.133C153.749 115.115 154.627 113.725 154.996 112.176C155.366 110.627 155.206 109.003 154.542 107.55C154.224 107.122 153.459 105.128 154.967 104.265Z" fill="#263238"/>
<path d="M152.163 115.816C150.981 111.814 149.891 107.536 151.151 103.534H150.443L150.16 103.734C149.505 103.52 148.797 103.514 148.139 103.718C147.481 103.922 146.907 104.325 146.5 104.869C146.092 105.413 145.874 106.069 145.875 106.742C145.876 107.415 146.097 108.07 146.506 108.612C145.816 108.607 145.147 108.847 144.626 109.287C144.104 109.728 143.766 110.34 143.674 111.007C143.677 111.936 143.939 112.847 144.432 113.643C144.926 114.44 145.229 115.337 145.317 116.265C145.347 116.727 145.208 117.184 144.926 117.556C144.644 117.929 144.236 118.192 143.774 118.3C143.997 118.771 144.381 119.152 144.859 119.379C145.338 119.607 145.882 119.667 146.4 119.549C146.07 120.336 145.517 121.015 144.807 121.509C146.322 122.516 148.397 122.199 150.039 121.391C151.058 120.992 151.89 120.24 152.376 119.28C152.829 118.169 152.489 116.948 152.163 115.816Z" fill="#263238"/>
<path d="M151.781 120.487C151.639 120.432 146.117 119.018 146.464 124.434C146.811 129.851 152.305 128.422 152.305 128.264C152.305 128.105 151.781 120.487 151.781 120.487Z" fill="#FFBE9D"/>
<path d="M150.974 126.297C150.974 126.297 150.882 126.366 150.719 126.449C150.499 126.555 150.246 126.575 150.011 126.504C149.409 126.325 148.864 125.448 148.779 124.469C148.736 124.001 148.802 123.529 148.97 123.089C149.015 122.914 149.104 122.754 149.227 122.62C149.35 122.487 149.505 122.385 149.678 122.323C149.788 122.289 149.906 122.294 150.013 122.335C150.12 122.377 150.21 122.453 150.266 122.55C150.351 122.695 150.315 122.806 150.351 122.82C150.386 122.833 150.464 122.716 150.408 122.495C150.362 122.366 150.278 122.254 150.167 122.171C150.088 122.118 150 122.08 149.906 122.061C149.812 122.042 149.715 122.042 149.622 122.061C149.396 122.118 149.19 122.231 149.021 122.388C148.853 122.545 148.728 122.741 148.659 122.958C148.454 123.442 148.37 123.967 148.411 124.489C148.517 125.58 149.119 126.559 149.969 126.753C150.119 126.785 150.276 126.784 150.426 126.751C150.577 126.718 150.718 126.652 150.839 126.559C150.974 126.428 150.995 126.304 150.974 126.297Z" fill="#EB996E"/>
<path d="M146.011 115.995C146.011 115.995 145.855 115.788 145.905 115.361C145.964 115.07 146.088 114.796 146.268 114.558C146.448 114.319 146.679 114.122 146.945 113.981C147.743 113.611 148.611 113.406 149.494 113.38C149.988 113.38 150.475 113.267 150.916 113.048C151.356 112.83 151.738 112.514 152.029 112.125C152.491 111.247 152.646 110.246 152.468 109.275C152.333 108.364 152.085 107.543 151.965 106.832C151.741 106.071 151.753 105.262 152.001 104.507C152.005 105.268 152.093 106.027 152.262 106.77C152.418 107.46 152.694 108.267 152.864 109.227C153.078 110.288 152.913 111.388 152.397 112.345C152.09 112.84 151.625 113.223 151.073 113.436C150.579 113.614 150.062 113.726 149.537 113.767C148.699 113.772 147.871 113.931 147.094 114.236C146.851 114.358 146.635 114.525 146.459 114.729C146.283 114.933 146.15 115.169 146.067 115.423C146.036 115.612 146.017 115.804 146.011 115.995Z" fill="#455A64"/>
<path d="M144.666 113.643C144.666 113.643 144.545 113.491 144.496 113.153C144.438 112.676 144.535 112.194 144.772 111.773C144.934 111.474 145.159 111.21 145.43 111C145.748 110.768 146.112 110.603 146.499 110.517C146.875 110.438 147.232 110.293 147.554 110.089C147.697 109.965 147.808 109.811 147.88 109.639C147.953 109.467 147.984 109.281 147.972 109.095C147.972 108.688 147.922 108.254 147.937 107.819C147.942 107.404 147.99 106.99 148.078 106.584C148.221 105.897 148.492 105.243 148.878 104.652C149.001 104.435 149.177 104.252 149.391 104.118C149.605 103.984 149.85 103.904 150.103 103.886C150.471 103.886 150.627 104.052 150.613 104.065C150.599 104.079 150.429 104.003 150.117 104.065C149.904 104.11 149.705 104.201 149.534 104.333C149.364 104.464 149.226 104.633 149.133 104.824C148.814 105.403 148.589 106.027 148.468 106.674C148.399 107.056 148.364 107.444 148.361 107.833C148.361 108.233 148.425 108.661 148.404 109.13C148.414 109.376 148.367 109.62 148.265 109.845C148.163 110.07 148.009 110.269 147.816 110.427C147.451 110.666 147.039 110.828 146.606 110.903C146.283 110.957 145.976 111.077 145.705 111.256C145.434 111.434 145.205 111.667 145.034 111.938C144.743 112.459 144.615 113.052 144.666 113.643Z" fill="#455A64"/>
<path d="M177.205 99.3389C177.241 99.3389 176.788 99.6356 176.058 99.3044C175.648 99.0873 175.288 98.7888 175.003 98.4281C174.652 97.9793 174.215 97.6019 173.715 97.3172C173.065 96.9609 172.322 96.7967 171.578 96.8445C170.834 96.8923 170.12 97.15 169.524 97.5863C168.816 98.0693 168.228 98.7524 167.4 99.3182C166.978 99.6226 166.496 99.8366 165.984 99.946C165.453 100.037 164.908 99.9865 164.405 99.8012C163.399 99.4493 162.606 98.8489 161.743 98.5454C160.909 98.2335 160.023 98.0767 159.13 98.0831C157.592 98.0812 156.097 98.5789 154.882 99.4976C154.07 100.116 153.396 100.888 152.9 101.768C152.553 102.396 152.425 102.782 152.39 102.768C152.355 102.754 152.39 102.665 152.447 102.478C152.527 102.21 152.626 101.947 152.744 101.692C153.201 100.752 153.866 99.9227 154.691 99.263C155.934 98.273 157.483 97.7211 159.088 97.6967C160.033 97.6727 160.973 97.8298 161.856 98.159C162.79 98.4902 163.598 99.0905 164.511 99.401C164.944 99.5634 165.413 99.6087 165.87 99.5321C166.313 99.433 166.731 99.245 167.095 98.9801C167.838 98.4626 168.462 97.7795 169.219 97.2689C169.919 96.7575 170.772 96.4837 171.648 96.4892C172.394 96.4945 173.126 96.6895 173.772 97.055C174.289 97.3763 174.738 97.7908 175.095 98.2763C175.344 98.6308 175.664 98.9315 176.037 99.1594C176.388 99.3631 176.807 99.4274 177.205 99.3389Z" fill="#455A64"/>
<path d="M166.04 126.345C166.217 126.345 166.415 127.463 167.577 128.119C168.738 128.774 169.977 128.443 170.019 128.602C170.062 128.76 169.771 128.878 169.24 128.974C168.546 129.1 167.829 128.983 167.215 128.643C166.627 128.312 166.192 127.773 165.998 127.139C165.87 126.663 165.955 126.352 166.04 126.345Z" fill="#263238"/>
<path d="M239.304 234.158C237.148 232.353 234.351 231.446 231.516 231.633L226.73 246.447C230.235 246.599 233.732 248.358 237.116 247.454C238.468 247.048 239.672 246.274 240.586 245.222C241.501 244.171 242.088 242.886 242.278 241.52C242.425 240.151 242.232 238.766 241.714 237.485C241.196 236.203 240.37 235.062 239.304 234.158Z" fill="#FE4000"/>
<path d="M231.573 231.294C231.573 231.177 232.089 231.081 232.989 231.087C234.326 231.111 235.65 231.356 236.904 231.812C238.819 232.539 240.477 233.793 241.676 235.421C242.408 236.386 242.949 237.477 243.269 238.636C243.615 239.905 243.654 241.235 243.382 242.521C243.118 243.824 242.522 245.041 241.648 246.06C240.81 246.989 239.749 247.7 238.561 248.13C236.629 248.796 234.546 248.927 232.543 248.51C231.253 248.264 229.995 247.882 228.79 247.371C227.948 247.02 227.502 246.757 227.544 246.64C227.587 246.523 228.096 246.557 228.96 246.702C229.824 246.847 231.134 247.116 232.691 247.254C234.458 247.445 236.245 247.208 237.895 246.564C238.8 246.191 239.601 245.614 240.232 244.881C240.893 244.078 241.345 243.131 241.548 242.121C241.743 241.119 241.728 240.09 241.506 239.094C241.283 238.098 240.857 237.156 240.253 236.325C239.277 234.884 237.936 233.715 236.359 232.93C235.241 232.416 234.071 232.018 232.868 231.743C232.054 231.564 231.558 231.419 231.573 231.294Z" fill="#F5F5F5"/>
<path d="M187.231 286.874L176.823 315.295L213.037 328.095C214.085 324.645 197.865 311.259 197.865 311.259L205.299 293.319L187.231 286.874Z" fill="#FE4000"/>
<g opacity="0.6">
<path opacity="0.6" d="M187.238 305.773C186.851 305.753 186.47 305.873 186.168 306.11C185.866 306.346 185.664 306.684 185.602 307.056C185.567 307.432 185.682 307.805 185.922 308.101C186.161 308.396 186.508 308.59 186.891 308.643C187.303 308.665 187.709 308.535 188.029 308.28C188.349 308.025 188.559 307.662 188.618 307.263C188.618 306.511 187.854 305.649 187.089 305.752" fill="white"/>
</g>
<path d="M176.823 315.295L177.878 312.432L212.273 325.804C212.273 325.804 213.632 327.053 213.037 328.095L176.823 315.295Z" fill="white"/>
<path d="M198.523 311.286C198.452 311.459 197.539 311.224 196.463 311.472C195.387 311.721 194.65 312.28 194.516 312.162C194.381 312.045 195.012 311.134 196.321 310.858C197.631 310.582 198.615 311.141 198.523 311.286Z" fill="#263238"/>
<path d="M201.78 314.163C201.78 314.343 200.881 314.364 200.01 314.853C199.139 315.343 198.679 316.082 198.502 316.013C198.325 315.944 198.58 314.929 199.677 314.301C200.775 313.673 201.78 313.998 201.78 314.163Z" fill="#263238"/>
<path d="M202.254 319.352C202.084 319.352 202.155 318.386 202.962 317.6C203.77 316.813 204.732 316.737 204.754 316.91C204.775 317.082 204.081 317.4 203.43 318.055C202.778 318.711 202.438 319.401 202.254 319.352Z" fill="#263238"/>
<path d="M199.748 307.015C199.614 307.146 198.891 306.622 197.872 306.325C196.852 306.028 195.953 306.07 195.918 305.89C195.882 305.711 196.852 305.359 198.042 305.718C199.231 306.077 199.89 306.912 199.748 307.015Z" fill="#263238"/>
<path d="M200.442 302.523C199.792 302.467 199.168 302.244 198.636 301.875C198.023 301.532 197.457 301.115 196.951 300.633C196.649 300.351 196.368 300.049 196.109 299.729C195.946 299.547 195.812 299.342 195.712 299.121C195.641 298.958 195.628 298.776 195.676 298.605C195.723 298.433 195.829 298.282 195.974 298.176C196.107 298.087 196.26 298.03 196.42 298.008C196.579 297.987 196.742 298.002 196.895 298.052C197.124 298.132 197.341 298.244 197.539 298.383C197.893 298.613 198.225 298.874 198.53 299.163C199.042 299.646 199.472 300.205 199.805 300.819C200.168 301.356 200.354 301.99 200.336 302.634C200.237 302.634 200.024 301.978 199.408 301.047C199.043 300.511 198.61 300.022 198.12 299.591C197.83 299.337 197.519 299.106 197.192 298.901C196.845 298.666 196.52 298.549 196.364 298.68C196.208 298.811 196.286 298.756 196.328 298.894C196.402 299.056 196.5 299.207 196.619 299.342C196.851 299.648 197.104 299.939 197.376 300.212C197.836 300.683 198.341 301.111 198.884 301.488C199.819 302.144 200.484 302.433 200.442 302.523Z" fill="#263238"/>
<path d="M200.123 302.703C199.97 302.077 200.024 301.419 200.279 300.826C200.494 300.161 200.821 299.536 201.249 298.977C201.506 298.648 201.792 298.343 202.106 298.066C202.292 297.868 202.527 297.72 202.788 297.636C203.05 297.551 203.329 297.533 203.6 297.583C203.76 297.645 203.898 297.75 204 297.885C204.101 298.021 204.161 298.181 204.173 298.349C204.186 298.58 204.167 298.812 204.116 299.039C204.005 299.599 203.78 300.131 203.454 300.605C203.128 301.079 202.708 301.485 202.219 301.799C201.171 302.489 200.357 302.406 200.364 302.344C200.371 302.282 201.072 302.123 201.95 301.433C202.449 301.037 202.855 300.54 203.139 299.977C203.304 299.65 203.421 299.301 203.486 298.942C203.571 298.549 203.536 298.19 203.38 298.183C203.221 298.177 203.062 298.206 202.915 298.266C202.768 298.327 202.637 298.419 202.53 298.535C202.237 298.777 201.967 299.045 201.723 299.335C201.308 299.83 200.97 300.381 200.718 300.971C200.279 302.013 200.229 302.703 200.123 302.703Z" fill="#263238"/>
<path d="M152.149 210.974C146.655 211.098 141.444 211.85 137.656 215.735C132.637 220.889 126.435 228.224 126.081 233.309C125.557 240.899 130.265 243.176 133.699 245.039C135.218 245.84 136.929 246.228 138.655 246.164L202.148 245.695L204.138 235.214L163.074 225.347L164.78 210.284L152.149 210.974Z" fill="#263238"/>
<path d="M164.815 210.277L184.788 209.38C184.788 209.38 219.296 211.25 226.652 217.826C234.008 224.401 233.095 231.874 230.638 239.043C228.181 246.212 206.566 292.09 206.566 292.09C206.566 292.09 208.322 295.009 207.338 297.921C206.94 299.196 206.208 300.349 205.215 301.266C204.222 302.183 203.002 302.832 201.674 303.151L182.473 296.251C182.473 296.251 179.867 295.354 181.708 292.96C183.549 290.565 184.774 290.124 184.774 290.124V285.342C184.774 285.342 191.521 273.384 192.13 271.742C192.739 270.1 199.21 245.771 199.21 245.771L203.508 238.574C203.508 238.574 193.121 233.813 184.115 230.363L163.088 225.312L164.815 210.277Z" fill="#263238"/>
<path d="M197.213 295.409C196.632 295.08 196.07 294.721 195.528 294.333C192.816 292.62 189.76 291.489 186.565 291.014C185.895 290.951 185.229 290.854 184.569 290.724C185.242 290.648 185.923 290.66 186.593 290.759C189.868 291.1 192.997 292.26 195.677 294.126C196.245 294.486 196.761 294.917 197.213 295.409Z" fill="#455A64"/>
<path d="M206.807 292.125C206.388 291.79 206.015 291.405 205.695 290.979C205.044 290.241 204.18 289.192 203.281 287.992C202.382 286.791 201.603 285.68 201.072 284.859C200.755 284.43 200.489 283.967 200.279 283.479C200.659 283.854 200.996 284.268 201.284 284.714L203.578 287.778C204.435 288.909 205.221 289.931 205.901 290.821C206.25 291.222 206.554 291.659 206.807 292.125Z" fill="#455A64"/>
<path d="M213.816 232.033C213.816 232.088 213.108 232.24 211.996 232.599C209.086 233.535 206.449 235.139 204.308 237.277C203.89 237.747 203.448 238.196 202.984 238.622C203.283 238.065 203.665 237.554 204.116 237.104C205.146 235.971 206.339 234.988 207.656 234.186C208.973 233.378 210.405 232.762 211.904 232.357C212.521 232.155 213.166 232.046 213.816 232.033Z" fill="#455A64"/>
<path d="M194.204 264.518C194.213 264.38 194.239 264.243 194.282 264.111L194.58 262.972L195.727 258.798L199.656 245.06C200.456 242.376 201.136 239.823 201.907 237.504C202.722 235.49 203.954 233.66 205.525 232.129C206.563 231.092 207.712 230.167 208.952 229.369C209.398 229.093 209.745 228.886 209.993 228.762C210.112 228.689 210.237 228.626 210.368 228.576C210.368 228.576 209.887 228.893 209.037 229.48C207.838 230.314 206.723 231.259 205.709 232.302C204.193 233.826 203.009 235.634 202.226 237.615C201.518 239.899 200.81 242.486 200.01 245.157L195.981 258.86C195.458 260.578 195.026 261.979 194.714 263C194.565 263.455 194.452 263.828 194.353 264.118C194.322 264.257 194.272 264.392 194.204 264.518Z" fill="#455A64"/>
<path d="M176.54 229.473C176.434 229.473 176.016 225.843 175.598 221.345C175.18 216.846 174.89 213.189 175.032 213.182C175.173 213.175 175.549 216.811 175.966 221.31C176.384 225.809 176.639 229.466 176.54 229.473Z" fill="#455A64"/>
<path d="M143.292 239.223C143.235 239.223 142.931 238.664 142.301 237.801C141.487 236.679 140.512 235.678 139.405 234.827C138.29 233.988 137.057 233.307 135.745 232.806C134.732 232.419 134.074 232.274 134.088 232.212C134.684 232.239 135.272 232.358 135.83 232.564C138.599 233.454 140.964 235.254 142.52 237.656C142.864 238.134 143.125 238.663 143.292 239.223Z" fill="#455A64"/>
<path d="M155.526 225.975C155.526 226.03 154.648 225.505 153.183 224.85C149.338 223.148 145.073 222.554 140.892 223.139C139.299 223.359 138.329 223.635 138.315 223.573C138.521 223.46 138.743 223.376 138.973 223.325C139.589 223.139 140.215 222.992 140.85 222.883C145.078 222.16 149.433 222.769 153.282 224.622C153.859 224.9 154.417 225.213 154.953 225.561C155.163 225.672 155.356 225.811 155.526 225.975Z" fill="#455A64"/>
<path d="M203.359 235.193C203.189 235.185 203.02 235.157 202.856 235.11L201.44 234.813L196.272 233.703C191.903 232.75 185.857 231.467 179.152 230.177C172.448 228.886 166.359 227.817 161.948 227.079L156.716 226.202L155.3 225.961C155.133 225.942 154.968 225.902 154.811 225.843C154.98 225.848 155.147 225.862 155.314 225.885L156.73 226.064C157.969 226.23 159.76 226.492 161.976 226.83C166.401 227.52 172.504 228.528 179.216 229.825C185.928 231.122 191.96 232.44 196.321 233.454C198.495 233.965 200.258 234.393 201.468 234.703L202.884 235.062C203.046 235.092 203.205 235.135 203.359 235.193Z" fill="#455A64"/>
<path d="M163.109 227.113C163.038 227.113 162.89 226.299 162.231 225.14C161.846 224.471 161.37 223.856 160.815 223.311C160.116 222.64 159.373 222.013 158.592 221.434C157.152 220.398 155.63 219.475 154.04 218.674C153.367 218.362 152.718 218.003 152.1 217.598C152.812 217.817 153.502 218.102 154.16 218.447C155.803 219.189 157.364 220.093 158.819 221.145C159.611 221.733 160.358 222.377 161.056 223.07C161.624 223.644 162.102 224.297 162.472 225.009C162.726 225.49 162.919 226 163.045 226.527C163.104 226.717 163.125 226.915 163.109 227.113Z" fill="#455A64"/>
<path d="M233.831 236.463C233.909 236.545 232.847 237.587 232.019 239.181C231.19 240.775 230.921 242.21 230.815 242.189C230.813 241.074 231.116 239.979 231.693 239.016C232.162 237.996 232.9 237.115 233.831 236.463Z" fill="#263238"/>
<g opacity="0.3">
<path opacity="0.3" d="M188.385 165.765L192.93 196.967L193.157 197.464C194.223 186.677 192.585 175.799 188.385 165.765Z" fill="black"/>
</g>
<path d="M212.86 183.691L198.084 208.863L161.672 209.635L161.58 211.243L196.838 210.988L197.957 210.946L235.183 211.022L242.709 198.375L252.324 184.947C252.463 184.748 252.544 184.515 252.557 184.275C252.571 184.034 252.517 183.794 252.401 183.582C252.285 183.369 252.112 183.19 251.9 183.066C251.688 182.942 251.446 182.877 251.198 182.877L214.035 183.015C213.796 183.017 213.561 183.08 213.354 183.199C213.148 183.318 212.978 183.488 212.86 183.691Z" fill="#E0E0E0"/>
<path d="M242.71 198.395C242.71 198.395 244.621 200.106 244.324 201.555C244.026 203.004 244.118 204.088 242.71 204.184C242.736 204.715 242.552 205.234 242.196 205.636C241.841 206.038 241.34 206.292 240.798 206.344C240.798 206.344 241.23 208.621 238.511 209.014C238.511 209.014 237.676 211.45 235.962 210.857C234.975 210.529 234.026 210.102 233.13 209.58L232.628 208.697C232.628 208.697 230.1 207.772 230.723 206.385C231.105 205.544 232.408 205.323 232.408 205.323C232.258 204.977 232.195 204.602 232.223 204.227C232.251 203.853 232.371 203.491 232.571 203.17C233.173 202.377 235.141 203.032 235.141 203.032C235.1 202.352 235.323 201.683 235.764 201.155C236.472 200.376 239.573 202.48 239.573 202.48L241.279 200.493L242.71 198.395Z" fill="#FFBE9D"/>
<path d="M238.511 209.014C237.407 208.556 236.354 207.99 235.368 207.324C234.317 206.759 233.33 206.088 232.422 205.323C233.525 205.785 234.578 206.354 235.566 207.02C236.614 207.587 237.601 208.255 238.511 209.014Z" fill="#EB996E"/>
<path d="M240.798 206.344C239.771 205.951 238.792 205.446 237.881 204.84C236.907 204.337 235.993 203.731 235.155 203.032C236.184 203.422 237.163 203.927 238.072 204.536C239.046 205.039 239.96 205.646 240.798 206.344Z" fill="#EB996E"/>
<path d="M237.683 201.348C237.739 201.245 238.907 201.845 240.267 202.687C241.109 203.161 241.921 203.687 242.695 204.26C242.646 204.378 241.428 203.839 240.069 202.991C239.216 202.527 238.416 201.976 237.683 201.348Z" fill="#EB996E"/>
<path d="M252.324 183.843C252.266 183.852 252.206 183.852 252.147 183.843H251.623H249.612L242.221 183.898L217.83 183.954H216.053C215.791 183.929 215.528 183.974 215.29 184.083C215.052 184.193 214.848 184.362 214.701 184.575C214.135 185.559 213.582 186.53 213.044 187.486L209.901 193.006L204.57 202.342C203.054 204.978 201.815 207.117 200.945 208.628C200.527 209.318 200.187 209.911 199.946 210.325L199.677 210.76L199.578 210.905C199.578 210.905 199.578 210.843 199.642 210.739L199.883 210.284L200.824 208.559L204.364 202.218L209.632 192.841C210.623 191.081 211.671 189.232 212.747 187.321L214.411 184.388C214.592 184.126 214.842 183.915 215.134 183.777C215.426 183.638 215.751 183.578 216.075 183.602H217.852L242.242 183.65L249.634 183.712L251.644 183.747H252.168C252.225 183.77 252.278 183.803 252.324 183.843Z" fill="#263238"/>
<path d="M226.128 196.505C225.956 196.747 225.86 197.033 225.85 197.327C225.841 197.622 225.919 197.913 226.075 198.165C226.231 198.418 226.458 198.621 226.729 198.751C227.001 198.88 227.305 198.931 227.605 198.896C227.906 198.862 228.189 198.744 228.422 198.556C228.655 198.369 228.828 198.119 228.92 197.838C229.011 197.558 229.017 197.257 228.938 196.973C228.858 196.688 228.697 196.432 228.472 196.236C228.123 195.971 227.682 195.85 227.243 195.901C226.804 195.951 226.404 196.168 226.128 196.505Z" fill="white"/>
<g opacity="0.3">
<path opacity="0.3" d="M122.76 186.783C122.449 186.907 122.088 187.114 122.088 187.473C122.099 187.606 122.156 187.732 122.25 187.829C122.344 187.927 122.469 187.991 122.604 188.011C123.124 187.939 123.632 187.807 124.119 187.617C127.95 186.796 131.1 187.583 134.739 188.997L134.86 188.88C133.415 185.823 126.881 185.147 122.76 186.783Z" fill="black"/>
</g>
<path d="M320.016 326.853C320.016 326.949 255.977 327.032 177 327.032C98.0226 327.032 33.984 326.922 33.984 326.853C33.984 326.784 98.0084 326.673 177 326.673C255.992 326.673 320.016 326.721 320.016 326.853Z" fill="#263238"/>
<path d="M102.957 106.887C103.078 107.005 126.59 99.1319 126.59 99.1319L117.528 78.9149L96.6208 86.7326L108.133 93.1772L102.957 106.887Z" fill="#455A64"/>
<path d="M113.988 85.0007V57.4766C113.988 57.4766 146.421 51.6944 169.793 52.0394C193.164 52.3844 217.229 56.1173 217.229 56.1173V82.5443C217.229 82.5443 143.979 76.1687 113.988 85.0007Z" fill="#455A64"/>
<path d="M113.818 85.0282L126.562 99.2492V82.5443C126.562 82.5443 115.907 83.7862 113.818 85.0282Z" fill="#263238"/>
<path d="M113.988 57.4697C114.094 57.4697 114.137 63.6797 114.094 71.2697C114.052 78.8597 113.924 85.0697 113.825 85.0697C113.726 85.0697 113.676 78.9011 113.719 71.2697C113.761 63.6383 113.882 57.4697 113.988 57.4697Z" fill="#263238"/>
<path d="M228.203 104.776C228.082 104.893 204.57 97.0204 204.57 97.0204L213.611 76.7965L234.539 84.6004L223.02 91.045L228.203 104.776Z" fill="#455A64"/>
<path d="M217.356 82.9168L204.612 97.1377V81.6404C208.885 81.7829 213.143 82.2094 217.356 82.9168Z" fill="#263238"/>
<path d="M217.214 56.1172C217.314 56.1172 217.427 62.1134 217.462 69.5171C217.498 76.9208 217.462 82.9169 217.342 82.9169C217.221 82.9169 217.129 76.9208 217.094 69.5171C217.059 62.1134 217.108 56.1172 217.214 56.1172Z" fill="#263238"/>
<path d="M132.276 69.5446C132.209 68.7522 132.383 67.9582 132.777 67.2619C133.171 66.5655 133.766 65.9978 134.489 65.6296C135.212 65.2614 136.031 65.1091 136.842 65.1919C137.654 65.2746 138.422 65.5886 139.051 66.0946L138.06 67.2538C137.793 67.0165 137.476 66.8396 137.131 66.7358C136.786 66.6321 136.421 66.604 136.063 66.6535C135.429 66.7396 134.855 67.0678 134.469 67.5659C134.082 68.0641 133.915 68.6915 134.003 69.31C134.091 69.9286 134.428 70.4876 134.939 70.8642C135.451 71.2407 136.094 71.404 136.729 71.318C137.089 71.2718 137.434 71.1474 137.737 70.9539C138.041 70.7604 138.297 70.5028 138.485 70.2001L139.731 71.0488C139.269 71.7034 138.62 72.2107 137.864 72.5071C137.107 72.8036 136.278 72.8761 135.48 72.7155C134.682 72.5549 133.95 72.1684 133.376 71.6044C132.803 71.0403 132.412 70.3239 132.254 69.5446H132.276Z" fill="white"/>
<path d="M140 68.5097C139.868 67.713 139.985 66.8962 140.335 66.1649C140.685 65.4336 141.252 64.8216 141.963 64.408C142.674 63.9945 143.496 63.7985 144.322 63.8454C145.149 63.8923 145.942 64.18 146.599 64.6712C147.256 65.1625 147.746 65.8345 148.007 66.6005C148.267 67.3664 148.286 68.191 148.06 68.9673C147.834 69.7436 147.374 70.436 146.74 70.9547C146.106 71.4735 145.326 71.7947 144.503 71.8769C143.978 71.9584 143.442 71.9349 142.927 71.8078C142.412 71.6806 141.929 71.4525 141.508 71.1374C141.087 70.8223 140.736 70.4267 140.476 69.9749C140.217 69.5231 140.055 69.0245 140 68.5097ZM146.45 67.8611C146.392 67.4134 146.201 66.9921 145.899 66.6498C145.597 66.3075 145.199 66.0593 144.754 65.9362C144.308 65.813 143.836 65.8205 143.395 65.9575C142.953 66.0945 142.563 66.355 142.273 66.7066C141.983 67.0582 141.806 67.4853 141.763 67.9346C141.72 68.3838 141.814 68.8354 142.033 69.233C142.252 69.6306 142.586 69.9566 142.994 70.1703C143.401 70.384 143.865 70.476 144.326 70.4348C144.644 70.4144 144.954 70.3299 145.236 70.1866C145.519 70.0434 145.768 69.8445 145.968 69.6025C146.167 69.3606 146.313 69.0809 146.396 68.7811C146.479 68.4813 146.498 68.168 146.45 67.8611Z" fill="white"/>
<path d="M156.687 70.8073L156.383 66.4051L154.408 70.1725L153.629 70.2208L151.186 66.826L151.477 71.1316L149.841 71.2351L149.388 63.9005L150.804 63.8108L153.919 68.1922L156.39 63.4658L157.806 63.3761L158.316 70.7038L156.687 70.8073Z" fill="white"/>
<path d="M166.437 65.7842C166.479 67.4264 165.247 68.4752 163.236 68.5442L161.714 68.5856L161.778 70.6142L160.029 70.6625L159.817 63.2726L163.081 63.1829C165.099 63.1553 166.38 64.142 166.437 65.7842ZM164.667 65.8325C164.667 65.0252 164.093 64.5698 163.024 64.5974L161.608 64.6388L161.686 67.1918L163.102 67.1504C164.164 67.1228 164.688 66.6329 164.667 65.8325Z" fill="white"/>
<path d="M167.796 63.1138H169.538V69.0754H173.318V70.4554H167.796V63.1138Z" fill="white"/>
<path d="M180.08 69.2893V70.6693L174.239 70.5037L174.458 63.1553L180.122 63.3209L180.08 64.7009L176.115 64.5836L176.073 66.1844L179.57 66.281L179.528 67.6057L176.03 67.5022L175.98 69.2065L180.08 69.2893Z" fill="white"/>
<path d="M183.308 64.8596L180.901 64.7216L180.986 63.3416L187.542 63.728L187.457 65.108L185.05 64.9631L184.682 70.9178L182.94 70.8143L183.308 64.8596Z" fill="white"/>
<path d="M193.893 70.2968L193.765 71.6768L187.946 71.1523L188.654 63.8383L194.318 64.3489L194.19 65.7289L190.24 65.3425L190.091 66.9364L193.574 67.247L193.454 68.5648L189.963 68.2544L189.808 69.9448L193.893 70.2968Z" fill="white"/>
<path d="M196.074 64.5077L199.465 64.9493C201.907 65.2667 203.387 66.9158 203.09 69.0893C202.792 71.2628 200.909 72.5393 198.467 72.1943L195.075 71.7527L196.074 64.5077ZM198.573 70.835C198.881 70.8832 199.196 70.8707 199.499 70.7983C199.802 70.7259 200.087 70.5951 200.338 70.4135C200.588 70.2319 200.799 70.0033 200.957 69.7411C201.115 69.4789 201.218 69.1885 201.259 68.887C201.3 68.5855 201.279 68.279 201.197 67.9856C201.114 67.6922 200.972 67.4179 200.779 67.1788C200.586 66.9398 200.346 66.7408 200.073 66.5937C199.8 66.4466 199.499 66.3543 199.189 66.3224L197.61 66.1154L196.994 70.628L198.573 70.835Z" fill="white"/>
<path d="M231.721 58.622L233.576 60.7403L238.801 58.622L237.272 56.3932L231.721 58.622Z" fill="#455A64"/>
<path d="M229.328 48.5411C229.328 49.0651 229.169 49.5774 228.87 50.0131C228.571 50.4488 228.147 50.7884 227.65 50.989C227.153 51.1895 226.607 51.242 226.079 51.1397C225.552 51.0375 225.067 50.7852 224.687 50.4146C224.307 50.044 224.048 49.5719 223.943 49.058C223.838 48.544 223.892 48.0112 224.098 47.5271C224.304 47.0429 224.652 46.6291 225.099 46.338C225.546 46.0468 226.072 45.8914 226.61 45.8914C227.33 45.8933 228.02 46.173 228.53 46.6695C229.039 47.166 229.326 47.8389 229.328 48.5411Z" fill="#FE4000"/>
<path d="M168.426 88.0642C168.425 88.3268 168.343 88.5831 168.192 88.8005C168.041 89.0178 167.827 89.1865 167.577 89.2851C167.327 89.3837 167.053 89.4077 166.789 89.3541C166.526 89.3005 166.284 89.1717 166.096 88.9841C165.907 88.7965 165.78 88.5585 165.731 88.3003C165.681 88.0422 165.711 87.7756 165.818 87.5343C165.924 87.293 166.102 87.088 166.328 86.9452C166.554 86.8025 166.819 86.7285 167.088 86.7326C167.446 86.738 167.787 86.8809 168.038 87.1303C168.289 87.3796 168.428 87.7153 168.426 88.0642Z" fill="#FE4000"/>
<path d="M105.096 68.1509C105.096 68.3507 105.035 68.546 104.92 68.7119C104.806 68.8779 104.644 69.007 104.454 69.0828C104.264 69.1586 104.056 69.1778 103.855 69.1378C103.654 69.0978 103.47 69.0004 103.326 68.8582C103.182 68.7159 103.085 68.5351 103.046 68.3388C103.008 68.1425 103.031 67.9395 103.111 67.7557C103.191 67.5719 103.326 67.4155 103.498 67.3065C103.67 67.1975 103.871 67.1407 104.076 67.1435C104.348 67.1471 104.607 67.2548 104.798 67.4433C104.989 67.6319 105.096 67.886 105.096 68.1509Z" fill="#FE4000"/>
<path d="M101.258 57.0625L104.303 57.242L105.747 51.4046L102.901 51.5219L101.258 57.0625Z" fill="#455A64"/>
<path d="M196.413 103.658L197.44 106.46L203.515 105.466L202.29 102.961L196.413 103.658Z" fill="#FE4000"/>
<path d="M134.973 87.4915L133.097 89.8376L137.21 94.3019L138.726 91.949L134.973 87.4915Z" fill="#455A64"/>
<path d="M127.702 32.3812L134.888 39.5227L145.005 35.7967L145.409 38.2462L141.027 46.9885L145.069 53.5159L144.729 55.4686L134.938 53.8609L129.146 60.0502L127.787 59.0497L126.59 51.1768L117.457 46.54L117.054 44.7391L126.251 42.2896L127.702 32.3812Z" fill="#FE4000"/>
<g opacity="0.3">
<path opacity="0.3" d="M127.702 32.3812L134.888 39.5227L145.005 35.7967L145.409 38.2462L141.027 46.9885L145.069 53.5159L144.729 55.4686L134.938 53.8609L129.146 60.0502L127.787 59.0497L126.59 51.1768L117.457 46.54L117.054 44.7391L126.251 42.2896L127.702 32.3812Z" fill="black"/>
</g>
<path d="M127.702 30.3733L134.888 37.5217L145.005 35.7967L140.255 44.6701L145.069 53.5159L134.938 51.8599L127.787 59.0497L126.279 49.1482L117.054 44.7391L126.251 40.2817L127.702 30.3733Z" fill="#FE4000"/>
<path d="M202.219 32.3812L195.026 39.5227L184.908 35.7967L184.505 38.2462L188.887 46.9885L184.845 53.5159L185.184 55.4686L194.976 53.8609L200.768 60.0502L202.127 59.0497L203.323 51.1768L212.457 46.54L212.86 44.7391L203.663 42.2896L202.219 32.3812Z" fill="#FE4000"/>
<g opacity="0.3">
<path opacity="0.3" d="M202.219 32.3812L195.026 39.5227L184.908 35.7967L184.505 38.2462L188.887 46.9885L184.845 53.5159L185.184 55.4686L194.976 53.8609L200.768 60.0502L202.127 59.0497L203.323 51.1768L212.457 46.54L212.86 44.7391L203.663 42.2896L202.219 32.3812Z" fill="black"/>
</g>
<path d="M202.219 30.3733L195.026 37.5217L184.908 35.7967L189.659 44.6701L184.845 53.5159L194.976 51.8599L202.127 59.0497L203.635 49.1482L212.86 44.7391L203.663 40.2817L202.219 30.3733Z" fill="#FE4000"/>
<path d="M164.723 19.8439L170.706 31.2358L184.505 30.4423L184.038 33.5749L175.272 42.6208L177.644 52.0807L176.476 54.337L165.155 48.7411L155.675 54.1507L154.408 52.4188L156.022 42.3655L146.691 33.3196L146.903 30.9805L159.081 31.4014L164.723 19.8439Z" fill="#FE4000"/>
<g opacity="0.3">
<path opacity="0.3" d="M164.723 19.8439L170.706 31.2358L184.505 30.4423L184.038 33.5749L175.272 42.6208L177.644 52.0807L176.476 54.337L165.155 48.7411L155.675 54.1507L154.408 52.4188L156.022 42.3655L146.691 33.3196L146.903 30.9805L159.081 31.4014L164.723 19.8439Z" fill="black"/>
</g>
<path d="M165.502 17.4013L171.485 28.7863L184.505 30.4423L175.237 39.5089L177.644 52.0807L165.941 46.2985L154.408 52.4188L156.44 39.778L146.903 30.9805L159.866 28.9519L165.502 17.4013Z" fill="#FE4000"/>
<path d="M189.34 119.597L199.337 120.674C202.713 116.017 207.753 112.759 213.467 111.54C219.182 110.321 225.158 111.229 230.221 114.085C235.283 116.942 239.067 121.541 240.827 126.978C242.587 132.415 242.198 138.297 239.734 143.468C237.271 148.639 232.912 152.725 227.515 154.923C222.117 157.122 216.071 157.273 210.565 155.348C205.058 153.423 200.49 149.56 197.757 144.519C195.025 139.478 194.326 133.623 195.797 128.105L189.34 119.597Z" fill="#FAFAFA"/>
<path d="M189.34 119.597C189.73 120.108 191.755 122.716 195.889 128.064H195.741C195.746 128.052 195.753 128.042 195.763 128.034C195.772 128.026 195.784 128.02 195.796 128.017C195.808 128.013 195.821 128.013 195.834 128.015C195.846 128.017 195.858 128.022 195.868 128.029C195.885 128.039 195.898 128.053 195.905 128.071C195.913 128.088 195.915 128.107 195.911 128.126C194.897 131.997 194.951 136.06 196.066 139.904C196.394 141.057 196.828 142.18 197.362 143.257C197.645 143.809 197.914 144.375 198.219 144.934L199.274 146.569C202.642 151.328 207.738 154.665 213.533 155.905C216.74 156.592 220.061 156.606 223.275 155.946C226.663 155.228 229.846 153.791 232.599 151.737C235.483 149.603 237.801 146.828 239.361 143.644C240.975 140.406 241.772 136.838 241.683 133.239C241.58 129.795 240.685 126.419 239.063 123.358C237.539 120.456 235.378 117.917 232.734 115.92C227.971 112.332 221.978 110.663 215.99 111.255C213.459 111.551 210.989 112.216 208.662 113.229C204.959 114.896 201.769 117.48 199.408 120.722C199.401 120.735 199.389 120.746 199.375 120.752C199.361 120.758 199.345 120.76 199.33 120.756L189.34 119.597L199.352 120.584L199.267 120.625C201.62 117.339 204.825 114.72 208.556 113.035C210.894 111.985 213.385 111.292 215.94 110.979C222.01 110.353 228.095 112.028 232.932 115.657C235.622 117.678 237.819 120.253 239.368 123.199C241.023 126.304 241.936 129.734 242.037 133.232C242.13 136.888 241.324 140.512 239.686 143.802C238.099 147.036 235.742 149.854 232.812 152.02C230.013 154.102 226.779 155.558 223.339 156.285C220.068 156.955 216.688 156.934 213.427 156.222C207.57 154.964 202.425 151.582 199.033 146.763L197.971 145.107C197.667 144.541 197.397 143.961 197.107 143.402C196.575 142.31 196.143 141.174 195.819 140.007C194.708 136.122 194.679 132.019 195.734 128.119L195.904 128.181C195.89 128.201 195.87 128.215 195.847 128.222C195.823 128.228 195.798 128.226 195.776 128.215L189.34 119.597Z" fill="#263238"/>
<path d="M209.851 125.676C209.859 125.782 209.859 125.888 209.851 125.994C209.851 126.221 209.851 126.511 209.851 126.877C209.851 127.677 209.851 128.788 209.894 130.196C209.894 133.059 209.943 137.096 209.979 141.926L209.816 141.767H226.475C226.518 141.726 226.128 142.105 226.291 141.939V139.731C226.291 139.007 226.291 138.282 226.291 137.565V133.363C226.291 130.644 226.291 128.07 226.291 125.704L226.447 125.862L214.411 125.78L211.005 125.745H210.099H209.773H210.064H210.942L214.305 125.704L226.433 125.628H226.595V125.78C226.595 128.146 226.595 130.72 226.595 133.439V141.933C226.765 141.774 226.376 142.16 226.411 142.119H209.752H209.589V141.933C209.589 137.061 209.646 132.997 209.667 130.113C209.667 128.733 209.667 127.615 209.71 126.828C209.71 126.477 209.71 126.194 209.71 125.973C209.743 125.868 209.791 125.768 209.851 125.676Z" fill="#263238"/>
<path d="M224.712 128.36C224.953 128.547 222.716 131.693 219.707 135.391C219.112 136.13 218.524 136.833 217.979 137.461L217.625 137.882L217.229 137.53C214.623 135.246 212.86 133.494 213.016 133.314C213.172 133.135 215.218 134.584 217.915 136.764L217.158 136.833C217.675 136.143 218.241 135.453 218.843 134.722C221.845 131.024 224.478 128.181 224.712 128.36Z" fill="#FE4000"/>
</svg>
