<?xml version="1.0" standalone="no"?>
<!DOCTYPE svg PUBLIC "-//W3C//DTD SVG 20010904//EN"
 "http://www.w3.org/TR/2001/REC-SVG-20010904/DTD/svg10.dtd">
<svg version="1.0" xmlns="http://www.w3.org/2000/svg"
 width="300.000000pt" height="66.000000pt" viewBox="0 0 300.000000 66.000000"
 preserveAspectRatio="xMidYMid meet">

<g transform="translate(0.000000,66.000000) scale(0.100000,-0.100000)"
fill="#000000" stroke="none">
<path d="M249 646 c-60 -16 -130 -58 -165 -98 -112 -134 -104 -327 19 -447 62
-61 118 -85 207 -89 103 -5 176 22 246 92 83 84 94 126 94 361 l0 195 -177 -1
c-108 0 -196 -5 -224 -13z m271 -85 c7 -15 6 -23 -6 -35 -12 -12 -38 -16 -115
-16 l-99 0 0 -75 0 -74 88 -3 c85 -3 87 -3 87 -28 0 -24 -2 -25 -85 -30 l-85
-5 -3 -100 c-3 -92 -9 -114 -34 -115 -4 0 -14 7 -22 16 -14 13 -16 48 -16 230
0 129 4 223 10 235 10 17 22 19 140 19 118 0 130 -2 140 -19z"/>
<path d="M2135 625 c-16 -15 -25 -36 -25 -55 0 -19 9 -40 25 -55 25 -26 69
-33 81 -14 5 8 9 8 14 -1 13 -21 30 -1 30 36 0 31 -2 34 -30 34 -16 0 -30 -4
-30 -10 0 -5 7 -10 15 -10 22 0 18 -17 -6 -30 -30 -17 -69 11 -69 50 0 47 48
78 77 49 6 -6 17 -8 24 -4 9 6 7 11 -6 22 -29 21 -73 16 -100 -12z"/>
<path d="M2310 570 c0 -64 3 -80 15 -80 10 0 15 10 15 30 0 40 25 40 48 0 9
-16 23 -30 30 -30 16 0 15 12 -2 35 -12 17 -12 22 0 39 32 46 2 86 -64 86
l-42 0 0 -80z m85 30 c0 -20 -6 -26 -27 -28 -25 -3 -28 0 -28 28 0 28 3 31 28
28 21 -2 27 -8 27 -28z"/>
<path d="M2484 588 c6 -69 28 -98 72 -98 43 0 64 33 64 100 0 33 -4 60 -10 60
-5 0 -10 -21 -10 -48 0 -49 -21 -92 -44 -92 -27 0 -46 36 -46 88 0 42 -3 52
-16 52 -15 0 -16 -9 -10 -62z"/>
<path d="M2682 573 c2 -50 7 -78 16 -81 8 -2 12 7 12 27 0 29 3 31 35 31 24 0
37 6 45 19 25 48 -1 81 -66 81 l-45 0 3 -77z m83 27 c0 -20 -6 -26 -27 -28
-25 -3 -28 0 -28 28 0 28 3 31 28 28 21 -2 27 -8 27 -28z"/>
<path d="M2869 631 c-18 -14 -24 -29 -24 -61 0 -32 6 -47 24 -61 61 -50 146
15 120 91 -18 51 -76 67 -120 31z m87 -26 c34 -52 -13 -113 -62 -80 -28 18
-32 59 -7 87 23 25 50 23 69 -7z"/>
<path d="M852 549 c-147 -73 -179 -272 -62 -390 54 -54 114 -74 196 -66 66 7
134 46 134 77 0 31 -26 34 -62 9 -24 -18 -50 -25 -98 -27 -59 -3 -69 -1 -106
26 -57 41 -77 89 -72 167 3 49 10 70 31 99 57 74 153 92 237 44 48 -27 70 -27
70 1 0 67 -174 106 -268 60z"/>
<path d="M1235 407 c-44 -20 -61 -43 -45 -62 10 -13 17 -12 51 5 21 11 52 20
68 20 35 0 78 -35 86 -70 l6 -25 -96 0 c-94 0 -97 -1 -121 -28 -25 -30 -31
-75 -14 -108 27 -49 118 -63 185 -29 22 11 40 20 41 20 1 0 4 -9 7 -21 4 -13
12 -20 24 -17 16 3 18 16 21 116 4 164 -18 200 -127 208 -35 3 -67 -1 -86 -9z
m152 -193 c37 -51 -118 -103 -161 -55 -22 24 -13 58 17 72 34 14 129 3 144
-17z"/>
<path d="M1551 411 c-8 -5 -11 -51 -9 -162 3 -146 4 -154 23 -154 18 0 20 8
25 107 5 87 10 111 25 129 43 47 105 47 130 -2 10 -19 15 -59 15 -122 0 -72 4
-98 15 -107 12 -10 18 -10 30 0 11 10 15 35 15 110 0 83 3 101 21 124 16 21
29 26 64 26 65 0 75 -20 75 -146 0 -106 10 -134 45 -120 21 8 21 211 1 261
-30 70 -137 87 -196 30 -26 -25 -30 -26 -36 -11 -17 45 -107 59 -162 26 -39
-24 -42 -24 -42 -6 0 17 -23 27 -39 17z"/>
<path d="M2187 410 c-39 -12 -57 -29 -57 -52 0 -22 3 -22 86 3 51 15 96 0 113
-37 22 -48 17 -51 -64 -46 -93 6 -132 -8 -152 -56 -19 -45 -3 -97 37 -117 41
-21 108 -19 153 5 31 17 37 18 37 5 0 -21 27 -30 45 -15 11 10 15 35 14 109 0
110 -13 156 -51 184 -31 23 -116 32 -161 17z m118 -179 c45 -9 42 -50 -5 -73
-65 -33 -140 -18 -140 27 0 46 58 65 145 46z"/>
<path d="M2492 408 c-8 -8 -12 -58 -12 -159 0 -126 2 -148 16 -153 32 -12 44
13 44 96 0 119 24 164 97 175 21 3 41 11 45 17 12 18 -13 36 -49 36 -26 0 -42
-8 -64 -31 -24 -26 -29 -28 -29 -12 0 18 -17 43 -30 43 -3 0 -11 -5 -18 -12z"/>
<path d="M2787 410 c-39 -12 -57 -29 -57 -52 0 -22 3 -22 86 3 51 15 96 0 113
-37 21 -48 17 -51 -71 -47 -70 4 -88 1 -115 -16 -61 -38 -51 -133 17 -161 39
-16 124 -8 148 14 24 21 29 20 35 -4 7 -26 33 -26 48 1 17 33 7 206 -15 247
-28 54 -109 76 -189 52z m118 -179 c45 -9 42 -50 -5 -73 -65 -33 -140 -18
-140 27 0 46 58 65 145 46z"/>
</g>
</svg>
