<svg width="688" height="618" viewBox="0 0 688 618" fill="none" xmlns="http://www.w3.org/2000/svg">
<path fill-rule="evenodd" clip-rule="evenodd" d="M444.551 552.591V561.205L441.106 558.536C435.757 554.392 431.408 552.97 424.162 552.994C409.295 553.043 398.667 563.084 396.451 579.173C394.2 595.533 400.496 609.747 412.568 615.553C421.673 619.931 435.629 618.229 441.013 612.082C443.655 609.067 444.551 609.411 444.551 613.441V616.939H455.868H467.185V580.458V503.497C459.737 503.497 452.387 501.806 445.688 498.552L444.551 498V531.483V543.976V552.591ZM604.957 580.458V616.939H616.766H628.575V609.117C628.575 602.07 628.818 601.064 631.031 598.952C632.382 597.663 633.64 596.797 633.826 597.028C634.012 597.26 636.527 601.835 639.415 607.194L644.666 616.939H657.287C664.227 616.939 669.906 616.711 669.906 616.431C669.906 615.96 660.156 599.936 651.857 586.767L648.276 581.084L659.138 567.527L670 553.971H657.13H644.26L636.663 564.5L629.067 575.028L628.796 559.502L628.575 537.979H616.766H604.957V543.976V580.458ZM494.172 555.028C487.524 557.625 482.022 562.573 478.518 569.105C474.805 576.025 473.869 588.802 476.487 596.809C478.588 603.233 485.556 611.199 492.173 614.745C496.757 617.202 498.16 617.439 508.124 617.439C518.672 617.439 519.278 617.319 525.765 613.94C529.461 612.016 532.618 609.993 532.784 609.443C532.949 608.893 530.543 605.582 527.438 602.085L521.794 595.726L517.562 597.966C508.84 602.582 500.718 601.13 496.516 594.201L494.546 590.952H516.92H539.295L538.634 584.405C537.247 570.652 530.748 560.046 520.817 555.329C514.326 552.245 501.66 552.102 494.172 555.028ZM558.839 554.285C554.594 555.916 548.25 561.322 546.529 564.778C544.369 569.112 543.778 574.623 544.984 579.169C546.635 585.4 551.448 589.507 559.994 591.977C578.386 597.291 577.543 596.934 577.215 599.268C576.61 603.59 564.405 602.333 553.631 596.84L550.034 595.006L546.004 601.533C543.788 605.122 541.975 608.411 541.975 608.842C541.975 609.273 544.112 610.806 546.723 612.249C561.312 620.314 584.319 619.781 592.422 611.189C598.019 605.255 599.494 596.737 596.202 589.374C593.131 582.507 587.836 579.294 574.042 575.93C565.846 573.931 563.936 572.878 565.085 570.988C567.342 567.279 574.341 567.847 583.492 572.48C586.939 574.225 588.339 574.518 589.033 573.638C589.755 572.725 594.014 564.785 595.878 560.88C596.032 560.556 592.934 558.772 588.994 556.916C582.579 553.892 580.803 553.513 571.99 553.278C565.801 553.112 560.921 553.486 558.839 554.285ZM512.472 571.472C515.257 572.936 517.373 575.707 517.373 577.893C517.373 578.583 513.554 578.958 506.548 578.958C500.594 578.958 495.723 578.704 495.723 578.393C495.723 576.689 498.204 573.614 500.953 571.912C504.719 569.579 508.587 569.432 512.472 571.472ZM437.694 573.478C443.265 576.404 445.555 586.145 442.215 592.705C440.55 595.976 435.369 598.948 431.331 598.948C420.91 598.948 414.515 587.242 419.971 578.152C423.351 572.522 431.688 570.323 437.694 573.478Z" fill="#2A2A2A"/>
<path d="M73.3936 391.112C87.8167 391.112 100.165 396.317 110.438 406.726C120.779 417.067 125.95 429.483 125.95 443.975C125.95 458.67 120.711 471.188 110.234 481.529C99.8247 491.87 87.2384 497.041 72.4751 497.041C57.7118 497.041 45.0915 491.87 34.6143 481.529C24.137 471.12 18.8984 458.602 18.8984 443.975C18.8984 429.075 24.137 416.557 34.6143 406.42C45.0915 396.215 58.0179 391.112 73.3936 391.112ZM72.373 428.769C68.291 428.769 64.8213 430.266 61.9639 433.259C59.1064 436.185 57.6777 439.791 57.6777 444.077C57.6777 448.295 59.1064 451.901 61.9639 454.894C64.8893 457.888 68.359 459.384 72.373 459.384C76.4551 459.384 79.9248 457.888 82.7822 454.894C85.7077 451.901 87.1704 448.295 87.1704 444.077C87.1704 439.791 85.7417 436.185 82.8843 433.259C80.0269 430.266 76.5231 428.769 72.373 428.769ZM197.691 392.235V433.055C195.038 431.558 192.623 430.81 190.446 430.81C183.506 430.81 180.037 436.117 180.037 446.73V495H141.87V439.382C141.87 424.687 145.884 412.985 153.912 404.277C161.94 395.5 172.655 391.112 186.058 391.112C189.051 391.112 192.929 391.486 197.691 392.235ZM265.555 456.833V496.327C262.426 496.871 259.568 497.143 256.983 497.143C241.675 497.143 228.919 492.109 218.714 482.04C208.509 471.971 203.406 459.35 203.406 444.179C203.406 429.415 208.543 416.897 218.816 406.624C229.157 396.351 241.709 391.214 256.473 391.214C272.937 391.214 285.897 396.045 295.354 405.706C304.879 415.298 309.641 428.429 309.641 445.097V495H271.474V447.853C271.474 442.478 270.147 438.192 267.494 434.994C264.909 431.797 261.405 430.198 256.983 430.198C252.969 430.198 249.499 431.66 246.574 434.586C243.648 437.511 242.186 440.981 242.186 444.995C242.186 449.213 243.512 452.683 246.166 455.404C248.819 458.126 252.187 459.486 256.269 459.486C259.602 459.486 262.698 458.602 265.555 456.833ZM422.611 495H384.444V437.545C384.444 431.694 382.029 428.769 377.199 428.769C372.436 428.769 370.055 431.694 370.055 437.545V495H331.888V438.26C331.888 424.993 336.276 413.836 345.053 404.787C353.829 395.671 364.578 391.112 377.301 391.112C391.86 391.112 403.528 396.385 412.304 406.93C419.176 415.162 422.611 426.626 422.611 441.321V495ZM499.251 453.057V488.061C493.741 490.102 488.468 491.122 483.434 491.122C471.119 491.122 460.676 486.462 452.104 477.141C443.6 467.82 439.348 456.425 439.348 442.954C439.348 428.395 444.484 416.115 454.757 406.114C465.03 396.113 477.651 391.112 492.618 391.112C500.578 391.112 508.198 392.711 515.478 395.909C522.757 399.106 528.472 403.392 532.622 408.767C539.562 417.68 543.031 430.606 543.031 447.546V481.019C543.031 499.184 537.861 513.913 527.52 525.207C517.246 536.569 503.844 542.25 487.312 542.25C482.277 542.25 475.916 540.991 468.228 538.474V503.776C473.194 506.498 478.229 507.858 483.332 507.858C490.203 507.858 495.51 505.579 499.251 501.021C502.993 496.531 504.864 490.068 504.864 481.631V443.362C504.864 432.681 500.544 427.34 491.904 427.34C488.23 427.34 484.998 428.769 482.209 431.626C479.488 434.416 478.127 437.647 478.127 441.321C478.127 445.199 479.42 448.431 482.005 451.016C484.658 453.601 487.924 454.894 491.802 454.894C494.387 454.894 496.87 454.282 499.251 453.057ZM665.594 450.302H607.731C606.847 447.376 606.405 444.689 606.405 442.24C606.405 438.838 607.017 435.504 608.242 432.239H627.631C626.271 424.687 622.019 420.911 614.875 420.911C610.113 420.911 606.235 422.952 603.241 427.034C600.248 431.048 598.751 436.219 598.751 442.546C598.751 449.145 600.18 454.486 603.037 458.568C605.963 462.65 609.772 464.691 614.467 464.691C618.277 464.691 621.951 462.786 625.488 458.976L647.225 485.101C637.088 493.061 625.828 497.041 613.446 497.041C598.343 497.041 585.654 491.972 575.381 481.835C565.108 471.698 559.972 459.146 559.972 444.179C559.972 429.279 565.142 416.693 575.483 406.42C585.893 396.147 598.649 391.01 613.752 391.01C628.516 391.01 640.898 396.045 650.899 406.114C660.968 416.115 666.002 428.463 666.002 443.158C666.002 444.655 665.866 447.036 665.594 450.302Z" fill="#FE4400"/>
<path d="M327.746 350.483L327.746 350.483L364.298 337.829C364.078 338.052 363.869 338.287 363.672 338.531L364.062 338.844L363.672 338.531C363.217 339.097 362.773 339.696 362.332 340.29C362.244 340.409 362.156 340.527 362.069 340.645C361.538 341.358 361.007 342.057 360.446 342.706C359.322 344.005 358.106 345.062 356.602 345.583L331.698 354.204C329.327 355.025 327.212 354.316 326.297 353.318C325.846 352.826 325.726 352.321 325.878 351.89C326.036 351.438 326.55 350.896 327.746 350.483Z" fill="#751D00" stroke="#751D00" stroke-linejoin="round"/>
<path d="M332.029 349L368.376 336.417L332.029 349ZM332.029 349C333.197 348.991 334.312 348.915 335.359 348.552L368.274 337.158C368.974 336.916 369.068 336.518 369.056 336.429C369.052 336.402 369.045 336.378 368.987 336.356C368.909 336.326 368.718 336.299 368.376 336.417L332.029 349Z" fill="#751D00" stroke="#751D00" stroke-linejoin="round"/>
<path d="M375.972 348.048L356.794 354.687C355.671 355.076 354.456 355.117 353.309 354.804C347.707 353.276 347.444 345.428 352.931 343.528L372.109 336.889C373.233 336.5 374.447 336.459 375.594 336.772C381.197 338.3 381.46 346.149 375.972 348.048Z" fill="#751D00" stroke="#751D00" stroke-linejoin="round"/>
<path d="M396.708 351.392L364.734 362.461C364.112 362.676 363.453 362.562 362.851 362.203C362.244 361.841 361.726 361.245 361.427 360.57C360.987 359.576 360.82 357.985 361.048 356.54C361.161 355.823 361.367 355.174 361.66 354.669C361.953 354.165 362.316 353.833 362.741 353.686L393.545 343.023C395.004 342.517 396.53 342.418 397.738 343.127C398.596 343.631 399.347 344.271 399.962 345.01C400.905 346.144 400.872 347.426 400.215 348.604C399.546 349.804 398.233 350.864 396.708 351.392Z" fill="#751D00" stroke="#751D00" stroke-linejoin="round"/>
<path d="M28.6446 264.163C24.6775 262.919 22.7427 259.669 22.7432 256.427C22.7438 253.047 24.847 249.665 29.041 248.559L325.67 170.318C327.314 169.885 329.057 169.925 330.677 170.433L659.355 273.535C663.321 274.779 665.256 278.028 665.257 281.269C665.257 284.649 663.154 288.033 658.959 289.139L362.33 367.38C360.686 367.813 358.943 367.774 357.323 367.265L28.6446 264.163Z" fill="#D03800" stroke="#D03800"/>
<path d="M330.326 141.185V167.214C330.326 168.208 329.312 169.041 328.138 169.022C327.001 169.003 326.043 168.188 326.043 167.222V141.193C326.043 139.758 327.001 138.603 328.243 138.64C329.442 138.676 330.326 139.806 330.326 141.185Z" fill="#D03800" stroke="#D03800" stroke-linejoin="round"/>
<path d="M35.0008 215.603L315.63 141.583C320.386 140.328 325.043 143.916 325.043 148.835V163.672C325.043 167.077 322.748 170.055 319.455 170.924L38.8264 244.944C34.0698 246.199 29.4136 242.611 29.4136 237.692V222.855C29.4136 219.45 31.708 216.472 35.0008 215.603Z" fill="#D03800" stroke="#D03800" stroke-linejoin="round"/>
<path d="M341.071 142.31L653.75 240.393C656.877 241.374 659.005 244.272 659.005 247.549V262.165C659.005 267.228 654.091 270.836 649.26 269.321L336.581 171.238C333.454 170.257 331.326 167.359 331.326 164.081V149.466C331.326 144.403 336.24 140.795 341.071 142.31Z" fill="#D03800" stroke="#D03800" stroke-linejoin="round"/>
<path d="M23.4673 251.111C23.1934 251.486 22.952 251.878 22.7432 252.283V225.043C22.7432 225.043 22.7432 225.043 22.7432 225.043C22.7433 224.683 22.7672 224.323 22.8149 223.967C22.9769 222.755 23.4233 222.155 23.883 221.903C24.3443 221.651 24.9652 221.67 25.6519 222.016C27.034 222.713 28.4135 224.628 28.4135 227.075V241.912C28.4135 243.591 27.7444 245.136 26.7751 246.653C26.1497 247.631 25.4318 248.554 24.7073 249.485C24.2907 250.02 23.872 250.558 23.4673 251.111Z" fill="#D03800" stroke="#D03800" stroke-linejoin="round"/>
<path d="M22.7432 256.427V229.179C22.9278 229.536 23.1379 229.882 23.3739 230.216C23.7441 230.739 24.1262 231.249 24.5061 231.756C25.1959 232.676 25.8785 233.587 26.4698 234.55C27.3732 236.021 27.995 237.515 27.995 239.131V253.747C27.995 256.268 26.5601 258.147 25.2028 258.775C24.5278 259.087 23.9507 259.062 23.5529 258.788C23.1495 258.511 22.7718 257.87 22.745 256.6C22.7438 256.542 22.7432 256.485 22.7432 256.427V256.427Z" fill="#D03800" stroke="#D03800" stroke-linejoin="round"/>
<path d="M665.257 277.135C665.072 276.778 664.862 276.432 664.626 276.099C664.256 275.576 663.874 275.066 663.494 274.559C662.804 273.638 662.122 272.727 661.53 271.765C660.627 270.294 660.005 268.799 660.005 267.183V252.568C660.005 250.046 661.44 248.167 662.797 247.54C663.472 247.228 664.049 247.253 664.447 247.526C664.851 247.804 665.228 248.444 665.255 249.715C665.256 249.771 665.257 249.828 665.257 249.884C665.257 249.884 665.257 249.884 665.257 249.884V277.135Z" fill="#D03800" stroke="#D03800" stroke-linejoin="round"/>
<path d="M665.257 254.032V281.269V281.269C665.257 281.63 665.233 281.99 665.185 282.348C665.023 283.559 664.577 284.16 664.117 284.412C663.656 284.664 663.035 284.645 662.348 284.299C660.966 283.601 659.587 281.687 659.587 279.239V264.403C659.587 262.723 660.256 261.179 661.225 259.662C661.85 258.683 662.568 257.761 663.293 256.83C663.709 256.295 664.128 255.756 664.533 255.203C664.807 254.829 665.048 254.437 665.257 254.032Z" fill="#D03800" stroke="#D03800" stroke-linejoin="round"/>
<path d="M38.7398 236.994L351.419 335.077C354.546 336.058 356.674 338.956 356.674 342.234V356.849C356.674 361.912 351.76 365.521 346.929 364.005L34.2502 265.922C31.123 264.941 28.995 262.043 28.995 258.766V244.15C28.995 239.087 33.9087 235.479 38.7398 236.994Z" fill="#D03800" stroke="#D03800" stroke-linejoin="round"/>
<path d="M368.545 335.391L649.174 261.371C653.931 260.116 658.587 263.703 658.587 268.623V283.459C658.587 286.865 656.292 289.843 653 290.711L372.37 364.732C367.614 365.986 362.958 362.399 362.958 357.48V342.643C362.958 339.237 365.252 336.259 368.545 335.391Z" fill="#D03800" stroke="#D03800" stroke-linejoin="round"/>
<path d="M357.674 365.13V339.101C357.674 338.107 358.688 337.274 359.862 337.293C360.999 337.312 361.957 338.127 361.957 339.093V365.122C361.957 366.557 360.999 367.711 359.757 367.675C358.558 367.639 357.674 366.509 357.674 365.13Z" fill="#D03800" stroke="#D03800" stroke-linejoin="round"/>
<path d="M26.386 232.595C18.6711 230.175 18.7031 219.385 26.4311 217.346L325.94 138.346C327.418 137.956 328.988 137.995 330.464 138.458L661.614 242.336C669.329 244.756 669.297 255.546 661.569 257.584L362.06 336.584C360.582 336.974 359.012 336.935 357.536 336.472L26.386 232.595Z" fill="#FE4400"/>
<g clip-path="url(#clip0)">
<path d="M355.272 19C406.259 19 447.589 58.3092 447.589 106.804C447.589 143.907 420.178 184.342 366.066 228.541C363.057 230.999 359.221 232.349 355.254 232.346C351.287 232.343 347.454 230.986 344.449 228.523L340.87 225.569C289.153 182.523 262.954 143.078 262.954 106.804C262.954 58.3092 304.284 19 355.272 19ZM355.272 73.0332C345.855 73.0332 336.823 76.5912 330.165 82.9244C323.506 89.2577 319.765 97.8474 319.765 106.804C319.765 115.761 323.506 124.35 330.165 130.684C336.823 137.017 345.855 140.575 355.272 140.575C364.689 140.575 373.72 137.017 380.379 130.684C387.038 124.35 390.778 115.761 390.778 106.804C390.778 97.8474 387.038 89.2577 380.379 82.9244C373.72 76.5912 364.689 73.0332 355.272 73.0332Z" fill="#2A2A2A"/>
</g>
<defs>
<clipPath id="clip0">
<rect width="265.118" height="252.155" fill="white" transform="translate(263.359)"/>
</clipPath>
</defs>
</svg>
