<svg width="294" height="260" viewBox="0 0 294 260" fill="none" xmlns="http://www.w3.org/2000/svg">
<rect x="0.75" y="28" width="159" height="161" rx="79.5" fill="#FE7543"/>
<rect x="67" width="159" height="161" rx="79.5" fill="#FE885C"/>
<rect x="126" y="50" width="159" height="161" rx="79.5" fill="#FE662E"/>
<g clip-path="url(#clip0)">
<path d="M171.25 260C238.629 260 293.25 227.363 293.25 187.103C293.25 146.843 238.629 114.206 171.25 114.206C103.871 114.206 49.25 146.843 49.25 187.103C49.25 227.363 103.871 260 171.25 260Z" fill="#A8A8D0"/>
<path d="M179.526 216.218H174.906C174.486 216.218 174.081 216.05 173.777 215.748C173.473 215.447 173.294 215.036 173.276 214.6C173.166 209.945 172.713 205.304 171.922 200.72C171.866 200.403 171.899 200.075 172.017 199.777C172.135 199.479 172.333 199.222 172.588 199.036C172.843 198.851 173.143 198.745 173.455 198.731C173.766 198.717 174.074 198.795 174.344 198.957L222.742 227.877C222.989 228.026 223.195 228.24 223.338 228.497C223.48 228.754 223.556 229.045 223.556 229.341C223.556 229.637 223.48 229.928 223.338 230.185C223.195 230.442 222.989 230.656 222.742 230.805C222.432 230.987 222.188 231.269 222.048 231.608C221.908 231.948 221.88 232.325 221.966 232.682C222.053 233.04 222.251 233.359 222.529 233.589C222.808 233.819 223.151 233.949 223.507 233.958L253.675 234.907C253.906 234.914 254.136 234.87 254.349 234.779C254.563 234.687 254.755 234.549 254.913 234.375C255.071 234.201 255.191 233.994 255.266 233.767C255.341 233.541 255.369 233.301 255.347 233.063L253.785 215.042C253.759 214.76 253.665 214.488 253.512 214.253C253.359 214.017 253.151 213.825 252.907 213.694C252.664 213.563 252.392 213.498 252.118 213.503C251.844 213.509 251.575 213.586 251.337 213.727L248.623 215.344C248.374 215.493 248.092 215.571 247.805 215.571C247.518 215.571 247.236 215.493 246.988 215.344L201.824 188.348C201.507 188.157 201.26 187.861 201.125 187.508C200.99 187.154 200.974 186.764 201.079 186.4C201.184 186.036 201.405 185.719 201.706 185.5C202.006 185.281 202.369 185.174 202.736 185.195C209.7 185.594 217.419 185.82 225.992 185.874C226.423 185.877 226.836 186.056 227.14 186.372C227.444 186.688 227.616 187.115 227.617 187.561V188.257C227.617 188.547 227.689 188.832 227.827 189.086C227.964 189.339 228.162 189.551 228.402 189.702C228.641 189.853 228.914 189.938 229.195 189.948C229.475 189.958 229.753 189.894 230.003 189.761L252.227 177.81C252.493 177.667 252.715 177.451 252.87 177.186C253.025 176.922 253.108 176.618 253.108 176.308C253.108 175.999 253.025 175.695 252.87 175.43C252.715 175.166 252.493 174.95 252.227 174.807L230.003 162.878C229.754 162.745 229.476 162.68 229.196 162.69C228.916 162.7 228.643 162.784 228.404 162.935C228.164 163.085 227.966 163.297 227.829 163.549C227.691 163.802 227.618 164.086 227.617 164.376V165.039C227.617 165.263 227.574 165.483 227.492 165.69C227.409 165.896 227.287 166.083 227.134 166.24C226.981 166.397 226.8 166.522 226.6 166.606C226.401 166.691 226.187 166.733 225.971 166.732C178.813 166.193 163.411 156.765 150.968 149.132C149.874 148.463 148.801 147.806 147.728 147.164L109.383 124.249C100.911 127.192 92.7362 130.983 84.9755 135.569C79.9114 138.562 75.1084 142.005 70.6207 145.86L112.69 170.996C113.763 171.637 114.862 172.279 115.982 172.931C128.805 180.392 143.254 188.801 144.702 214.439C144.715 214.669 144.683 214.9 144.608 215.117C144.532 215.334 144.414 215.532 144.261 215.7C144.109 215.869 143.924 216.003 143.72 216.094C143.515 216.186 143.295 216.233 143.072 216.234H138.629C138.276 216.235 137.933 216.354 137.651 216.574C137.369 216.793 137.163 217.101 137.064 217.451C136.965 217.802 136.978 218.176 137.102 218.518C137.225 218.86 137.452 219.152 137.749 219.35L158.192 232.923C158.455 233.097 158.76 233.19 159.072 233.19C159.384 233.19 159.69 233.097 159.953 232.923L180.401 219.35C180.705 219.155 180.939 218.863 181.067 218.518C181.195 218.174 181.211 217.795 181.112 217.44C181.013 217.085 180.804 216.773 180.518 216.553C180.232 216.332 179.883 216.214 179.526 216.218Z" fill="#E0E0E0"/>
<path d="M252.852 228.842V232.233L226.357 231.397V228.007L227.195 227.506L168.338 192.326C170.068 198.596 170.943 206.159 170.943 215.21H176.823V218.606L159.083 230.395L141.342 218.622V215.226H147.186C145.91 185.038 127.503 176.829 113.919 168.71C110.206 166.484 90.158 154.506 72.7041 144.086V140.685C76.5877 137.536 80.6852 134.68 84.9651 132.141C91.829 128.083 99.0235 124.655 106.466 121.898L146.504 145.827C160.567 154.242 174.833 165.772 230.029 165.772V162.236L249.738 172.839V176.23L230.029 186.828V183.297C214.882 183.297 202.22 182.785 191.73 181.756L247.769 215.242L251.441 213.043L252.852 228.842Z" fill="white"/>
<path opacity="0.15" d="M252.852 228.842V232.233L226.357 231.397V228.007L227.195 227.506L168.338 192.326C170.068 198.596 170.943 206.159 170.943 215.21H176.823V218.606L159.083 230.395L141.342 218.622V215.226H147.186C145.91 185.038 127.503 176.829 113.919 168.71L72.7041 144.086V140.685C76.5877 137.536 80.6852 134.68 84.9651 132.141C91.829 128.083 99.0235 124.655 106.466 121.898L106.601 121.979L146.504 145.827C160.567 154.242 174.833 165.772 230.029 165.772V162.236L249.738 172.839V176.23L230.029 186.828V183.297C214.882 183.297 202.22 182.785 191.73 181.756L247.769 215.242L251.441 213.043L252.852 228.842Z" fill="black"/>
<path opacity="0.15" d="M147.259 215.215H147.186C145.905 185.028 127.498 176.818 113.914 168.7L72.7041 144.091V140.69L113.899 165.309C127.993 173.718 147.259 182.235 147.259 215.215Z" fill="black"/>
<path opacity="0.15" d="M230.044 179.885V183.27C214.898 183.27 202.236 182.758 191.746 181.729L184.688 177.529C190.548 178.316 197.189 178.904 204.741 179.297C212.293 179.691 220.69 179.885 230.044 179.885Z" fill="black"/>
<path d="M226.355 228.006L230.033 225.812L166.978 188.121C169.619 195.129 170.921 204.034 170.921 215.209H176.822L159.082 226.987L141.341 215.209H147.253C147.253 182.235 127.981 173.701 113.918 165.303L72.7394 140.7C76.6229 137.551 80.7205 134.696 85.0003 132.156C91.8642 128.098 99.0587 124.671 106.501 121.914L106.637 121.995L146.539 145.843C160.603 154.257 174.869 165.788 230.064 165.788V162.252L249.773 172.855L230.064 183.453V179.922C220.688 179.922 212.308 179.728 204.776 179.334C197.245 178.941 190.583 178.359 184.729 177.566L247.804 215.257L251.476 213.058L252.872 228.885L226.355 228.006Z" fill="white"/>
<path opacity="0.15" d="M230.044 225.813L227.206 227.511L168.349 192.332C167.911 190.715 167.458 189.362 166.989 188.127L230.044 225.813Z" fill="black"/>
<path opacity="0.15" d="M159.083 226.993V230.384L141.342 218.606V215.215L159.083 226.993Z" fill="black"/>
<path d="M202.21 46.2738C202.191 46.113 202.133 45.9597 202.042 45.8278C201.951 45.696 201.83 45.5899 201.689 45.5191C201.285 45.3082 200.839 45.1984 200.387 45.1984C199.934 45.1984 199.488 45.3082 199.085 45.5191C198.943 45.5886 198.821 45.6945 198.73 45.8265C198.638 45.9586 198.581 46.1125 198.564 46.2738V184.122C198.564 184.715 199.387 185.2 200.402 185.2C201.418 185.2 202.241 184.715 202.241 184.122V46.2738H202.21Z" fill="#37474F"/>
<path d="M200.371 47.3519C201.386 47.3519 202.21 46.8692 202.21 46.2738C202.21 45.6783 201.386 45.1956 200.371 45.1956C199.356 45.1956 198.532 45.6783 198.532 46.2738C198.532 46.8692 199.356 47.3519 200.371 47.3519Z" fill="#455A64"/>
<path d="M221.153 70.6931L217.544 64.2244L193.563 49.907L191.751 50.9905V59.6101L215.731 73.9275L217.58 72.8709L221.153 70.6931Z" fill="white"/>
<path d="M191.751 50.9905L215.731 65.3079L219.335 71.7767L215.731 73.9275L191.751 59.6101V50.9905Z" fill="white"/>
<g opacity="0.3">
<path opacity="0.3" d="M191.751 50.9905L215.731 65.3079L219.346 71.7928L215.731 73.9275L191.751 59.6101V50.9905Z" fill="black"/>
</g>
<path opacity="0.1" d="M217.544 64.2244L215.731 65.3079L191.751 50.9905L193.563 49.907L217.544 64.2244Z" fill="black"/>
<path opacity="0.2" d="M215.731 65.3079L217.544 64.2244L221.153 70.6931L219.346 71.7928L215.731 65.3079Z" fill="black"/>
<path d="M221.153 100.891L217.544 94.4225L193.563 80.1051L191.751 81.1886V89.8082L215.731 104.126L217.58 103.069L221.153 100.891Z" fill="white"/>
<path d="M191.751 81.1886L215.731 95.506L219.335 101.969L215.731 104.126L191.751 89.8082V81.1886Z" fill="white"/>
<g opacity="0.3">
<path opacity="0.3" d="M191.751 81.1886L215.731 95.506L219.346 101.991L215.731 104.126L191.751 89.8082V81.1886Z" fill="black"/>
</g>
<path opacity="0.1" d="M217.544 94.4225L215.731 95.506L191.751 81.1886L193.563 80.1051L217.544 94.4225Z" fill="black"/>
<path opacity="0.2" d="M215.731 95.506L217.544 94.4225L221.153 100.891L219.346 101.991L215.731 95.506Z" fill="black"/>
<path d="M207.21 75.3668L183.23 61.0278L179.62 63.184L183.23 69.6474L207.21 83.9863V75.3668Z" fill="white"/>
<path d="M183.23 61.0278L184.99 59.9281L209.007 74.2941L207.21 75.3668L183.23 61.0278Z" fill="white"/>
<g opacity="0.4">
<path opacity="0.4" d="M183.23 61.0278L184.99 59.9281L209.007 74.2941L207.21 75.3668L183.23 61.0278Z" fill="white"/>
</g>
<path d="M209.007 82.9136L207.21 83.9863V75.3668L209.007 74.2941V82.9136Z" fill="white"/>
<path opacity="0.1" d="M209.007 82.9136L207.21 83.9863V75.3668L209.007 74.2941V82.9136Z" fill="black"/>
<path opacity="0.1" d="M111.841 157.379C123.181 157.379 132.373 151.886 132.373 145.11C132.373 138.334 123.181 132.841 111.841 132.841C100.502 132.841 91.3091 138.334 91.3091 145.11C91.3091 151.886 100.502 157.379 111.841 157.379Z" fill="black"/>
<path d="M128.602 142.577C128.676 142.809 128.702 143.054 128.679 143.298C128.656 143.541 128.583 143.776 128.467 143.989C127.859 144.528 127.15 144.931 126.385 145.175C125.62 145.419 124.815 145.498 124.019 145.407C122.297 145.233 120.642 144.634 119.19 143.66C118.078 142.952 116.78 142.62 115.477 142.711C114.128 142.711 113.128 142.442 113.013 142.081C112.81 141.439 112.794 141.035 113.091 141.04L128.602 142.577Z" fill="#263238"/>
<path d="M114.076 136.599C114.736 137.114 115.527 137.421 116.353 137.481C117.178 137.541 118.003 137.353 118.727 136.938L119.008 127.801H113.19L114.076 136.599Z" fill="#FFA8A7"/>
<path d="M127.394 140.755C125.292 140.002 123.28 139.002 121.399 137.774C121.003 137.483 120.696 137.235 120.435 137.008C119.847 136.394 119.487 135.062 119.232 134.911C118.977 134.76 118.55 135.245 118.347 135.359C117.922 135.602 117.458 135.761 116.977 135.828C115.555 136.016 115.498 135.72 115.456 136.2C115.443 136.379 115.443 136.559 115.456 136.739C114.701 136.636 114.102 136.41 114.055 136.113L113.93 135.175C113.18 135.132 113.18 136.523 112.992 138.092C112.836 139.359 112.576 140.286 112.945 141.202C114.117 142.183 116.107 141.854 117.253 142.005C118.873 142.221 119.67 143.423 121.941 144.162C125.587 145.315 127.821 143.736 128.472 143.056C128.904 142.189 128.66 141.245 127.394 140.755Z" fill="#37474F"/>
<path d="M106.622 150.684C106.56 151.256 106.476 152.84 103.669 153.25C100.862 153.66 99.0959 152.668 98.3511 151.266C97.6062 149.865 97.7833 148.727 97.6687 147.434C97.5542 146.14 96.5229 145.444 96.226 144.776C95.7937 143.795 96.4395 142.269 96.4395 142.269L106.622 150.684Z" fill="#263238"/>
<path d="M97.101 140.022C97.4396 142.674 102.409 142.48 102.007 140.361L102.914 133.93L97.2937 134.092L97.101 140.022Z" fill="#FFA8A7"/>
<path d="M106.424 149.363C106.027 148.799 105.597 148.259 105.138 147.746C103.464 145.522 102.459 142.838 102.247 140.027C102.247 139.871 102.216 139.569 102.07 139.488C101.924 139.407 101.763 139.526 101.606 139.596C101.328 139.72 101.033 139.798 100.731 139.827C99.9505 139.851 99.169 139.816 98.3927 139.725C98.2 139.752 98.1375 140.367 98.1479 141.04C97.799 140.803 97.6844 140.345 97.3667 140.075C97.1948 139.93 97.1166 139.925 97.1219 139.687C97.1271 139.45 97.1219 139.396 97.1219 139.24C96.8666 139.159 96.6479 140.172 96.4395 140.943C96.1895 141.838 95.8874 142.846 96.2208 143.757C96.4338 144.254 96.6975 144.725 97.0073 145.164C97.5412 145.925 97.888 146.81 98.0177 147.741C98.0542 148.145 98.0177 148.56 98.0802 148.965C98.168 149.649 98.4447 150.293 98.877 150.819C99.3094 151.344 99.8791 151.73 100.518 151.929C102.226 152.468 104.799 152.409 106.31 151.175C106.846 150.754 106.669 149.843 106.424 149.363Z" fill="#37474F"/>
<path d="M99.8407 80.3854C98.7261 90.9941 98.5438 109.856 98.5438 109.856C98.5438 109.856 96.8562 114.794 96.8614 118.481C96.8614 126.211 97.0541 136.809 97.0541 136.809C98.8386 137.482 100.782 137.561 102.612 137.035C102.612 137.035 105.456 119.785 106.721 113.543C107.831 108.115 109.612 95.727 109.612 95.727L112.065 110.902C111.535 113.711 111.301 116.573 111.367 119.435C111.482 122.357 113.576 133.58 113.576 133.58C114.492 134.475 117.831 133.725 119.008 132.949C119.008 132.949 119.831 114.034 120.081 110.966C120.409 106.923 121.008 77.9543 121.008 77.9543L99.8407 80.3854Z" fill="#37474F"/>
<path d="M109.612 95.7163L110.982 89.1937C112.871 88.7111 114.652 87.8504 116.222 86.6601C116.222 86.6601 115.42 88.7408 112.055 90.3365L110.659 96.444L111.857 109.856L109.612 95.7163Z" fill="#263238"/>
<path d="M159.859 51.4272C159.562 50.5 157.927 51.2978 156.213 52.1549C154.65 52.9419 151.598 54.4513 151.379 54.1278C151.161 53.8044 151.338 52.446 150.957 51.5619C150.577 50.6779 149.567 50.4029 149.572 51.19C149.572 51.6428 149.306 53.1468 149.218 53.8368C149.129 54.5267 148.963 55.4539 148.306 55.8636C147.65 56.2733 134.858 58.3163 134.858 58.3163C134.858 58.3163 124.909 52.2088 122.878 50.818C120.847 49.4272 119.232 48.085 116.211 48.2413C112.253 49.7129 113.607 53.4864 115.289 55.9014C116.222 57.2274 116.565 57.1951 120.019 58.7045C124.185 60.5319 130.769 64.4347 134.316 64.9845C138.301 64.564 148.801 61.5237 149.832 61.3512C151.062 61.141 151.843 61.389 152.838 61.2165C154.031 61.0009 155.051 60.8769 156.13 60.2138C156.292 60.1348 156.436 60.02 156.551 59.8776C156.666 59.7351 156.75 59.5684 156.796 59.3891C156.828 59.2058 156.796 59.0171 156.796 58.85C156.892 58.5538 156.969 58.2512 157.025 57.9444C157.025 57.5401 156.593 57.1574 156.614 56.7531C156.614 56.5752 156.874 56.1008 156.828 55.9283C156.721 55.6703 156.583 55.4275 156.416 55.206C156.338 55.055 156.104 54.7963 156.26 54.6346C156.416 54.4728 156.984 54.2141 158.13 53.3947C159.276 52.5754 160.062 52.0417 159.859 51.4272Z" fill="#FFA8A7"/>
<path d="M116.05 47.9772C117.821 47.9772 118.92 47.6861 123.831 50.8935C128.743 54.1009 134.905 58.1546 134.905 58.1546L141.363 57.2274C141.363 57.2274 140.52 59.7125 142.207 63.308C142.207 63.308 136.202 64.9899 134.795 65.2486C133.389 65.5074 133.556 65.405 131.373 64.5479C129.191 63.6908 118.097 58.3271 118.097 58.3271L116.05 47.9772Z" fill="#E0E0E0"/>
<path d="M154.426 55.1143C153.478 55.7558 152.275 56.1924 152.213 56.8663C152.208 56.9999 152.231 57.133 152.281 57.2564C152.331 57.3798 152.406 57.4907 152.501 57.5813C152.596 57.6719 152.709 57.7402 152.832 57.7815C152.954 57.8228 153.084 57.836 153.213 57.8204C153.097 57.9272 153.01 58.0634 152.961 58.2157C152.911 58.3679 152.901 58.5308 152.932 58.6883C152.969 58.8397 153.046 58.9774 153.154 59.0859C153.263 59.1945 153.399 59.2696 153.546 59.3028C153.49 59.4082 153.456 59.5243 153.445 59.6439C153.435 59.7635 153.448 59.8842 153.484 59.9983C153.52 60.1125 153.578 60.2178 153.655 60.3077C153.732 60.3976 153.826 60.4703 153.932 60.5211C153.572 60.5211 152.89 60.3109 153.109 59.6155C153.109 59.6155 152.239 59.0764 152.588 58.2948C152.588 58.2948 152.228 59.2058 150.801 59.4268C151.446 59.1044 151.966 58.5645 152.275 57.8959C152.1 57.7367 151.97 57.5312 151.899 57.3013C151.829 57.0714 151.82 56.826 151.874 56.5913C152.098 55.8313 154.426 55.1143 154.426 55.1143Z" fill="#F28F8F"/>
<path d="M108.695 48.1928C105.831 48.6402 102.554 48.8774 100.549 49.1631C98.3563 49.4704 97.5698 51.3193 97.5698 55.2114C97.5698 60.9254 100.398 70.456 100.398 70.456L99.8407 80.407C102.409 83.2532 114.503 84.2828 121.066 80.1159C121.066 80.1159 121.237 60.7367 121.066 57.4754C120.753 51.729 117.539 48.0473 115.492 47.8855C115.492 47.8532 113.617 47.395 108.695 48.1928Z" fill="#F0F0F0"/>
<path d="M105.924 30.4038C105.924 30.4038 104.362 30.6303 103.778 31.8539C103.258 32.932 103.455 35.4872 104.127 38.2903C104.504 40.1038 105.07 41.8697 105.815 43.5569C106.075 44.0354 106.505 44.3909 107.013 44.5488L106.935 41.2228L106.815 38.9102C106.815 38.9102 108.253 36.8779 108.414 35.2123C108.617 33.056 108.18 32.1935 108.18 32.1935L105.924 30.4038Z" fill="#263238"/>
<path d="M105.555 30.8135L103.341 29.7678C103.474 29.4503 103.721 29.1987 104.03 29.066C104.339 28.9333 104.686 28.9298 104.997 29.0562C105.147 29.1323 105.28 29.2384 105.389 29.3685C105.498 29.4985 105.581 29.6499 105.633 29.8136C105.685 29.9772 105.705 30.15 105.691 30.3217C105.678 30.4935 105.631 30.6607 105.555 30.8135Z" fill="#263238"/>
<path d="M108.456 33.6382C108.459 34.8666 108.814 36.0665 109.476 37.0861C110.138 38.1056 111.077 38.899 112.175 39.3659C113.273 39.8328 114.48 39.9522 115.644 39.7091C116.807 39.4659 117.875 38.871 118.712 37.9997C119.548 37.1285 120.117 36.0199 120.345 34.8143C120.572 33.6087 120.45 32.3603 119.992 31.2269C119.534 30.0935 118.762 29.1261 117.773 28.447C116.784 27.768 115.622 27.4078 114.435 27.4121C112.845 27.4178 111.321 28.0768 110.2 29.2443C109.079 30.4117 108.451 31.9921 108.456 33.6382Z" fill="#263238"/>
<path d="M106.904 38.5436C106.383 39.0288 105.924 37.7728 105.466 37.2822C105.008 36.7917 103.534 36.1287 102.799 37.7404C102.065 39.3522 103.481 41.6109 104.586 42.1446C106.206 42.9208 106.935 41.2282 106.935 41.2282L107.107 48.2359C108.815 51.4164 112.175 51.3517 112.706 52.8071C113.024 51.5134 114.789 49.9016 113.633 48.4947V46.2198C114.527 46.3623 115.433 46.4075 116.336 46.3546C117.81 46.112 118.581 44.9584 119.024 43.3089C119.732 40.6514 120.019 36.1879 119.024 31.0292C117.373 29.7085 111.643 29.951 108.18 32.1989C108.435 36.7755 107.44 38.0585 106.904 38.5436Z" fill="#FFA8A7"/>
<path d="M119.847 27.3743C119.828 27.329 119.798 27.2897 119.759 27.2603C119.721 27.231 119.675 27.2126 119.628 27.2072C119.554 27.2118 119.485 27.2422 119.43 27.2935C119.018 27.6362 118.579 27.9427 118.118 28.2099C118.23 27.5972 118.23 26.9682 118.118 26.3555C118.05 25.9782 117.951 25.1103 117.498 25.0186C117.232 24.9593 116.977 25.1911 116.8 25.3852C114.998 27.1318 112.633 26.3232 110.471 26.3932C108.654 26.4579 106.461 27.218 105.643 29.0508C105.268 29.8863 105.2 30.765 105.945 31.3418C106.608 31.8035 107.366 32.0972 108.159 32.1989C111.805 32.8512 116.961 34.3929 119.618 30.8998C120.009 30.3774 120.207 29.7272 120.175 29.067C120.179 28.4889 120.057 27.9174 119.816 27.3959C119.816 27.3923 119.817 27.3889 119.819 27.3859C119.821 27.3828 119.824 27.3802 119.827 27.3782C119.83 27.3762 119.833 27.3748 119.836 27.3742C119.84 27.3735 119.843 27.3735 119.847 27.3743Z" fill="#263238"/>
<path d="M113.623 46.2198C113.623 46.2198 110.326 45.5406 109.174 44.9153C108.498 44.5521 107.942 43.9893 107.575 43.2981C107.751 43.995 108.061 44.6478 108.487 45.2172C109.331 46.3277 113.623 47.1362 113.623 47.1362V46.2198Z" fill="#F28F8F"/>
<path d="M112.846 37.5086C112.849 37.6002 112.834 37.6913 112.803 37.7768C112.771 37.8623 112.723 37.9405 112.662 38.0067C112.601 38.0729 112.528 38.1259 112.447 38.1626C112.366 38.1992 112.279 38.2188 112.19 38.2202C112.053 38.2267 111.917 38.1905 111.8 38.1163C111.683 38.0422 111.59 37.9334 111.533 37.8041C111.476 37.6748 111.458 37.5308 111.481 37.3907C111.504 37.2506 111.567 37.1208 111.662 37.0181C111.756 36.9153 111.879 36.8442 112.013 36.8141C112.147 36.7839 112.287 36.796 112.414 36.8487C112.542 36.9015 112.651 36.9926 112.728 37.1102C112.805 37.2278 112.846 37.3666 112.846 37.5086Z" fill="#263238"/>
<path d="M112.596 34.9643L111.122 35.6435C111.039 35.4356 111.036 35.2024 111.115 34.9925C111.193 34.7826 111.347 34.6122 111.544 34.5169C111.641 34.4722 111.746 34.4483 111.853 34.4467C111.959 34.4451 112.065 34.4659 112.163 34.5077C112.261 34.5495 112.35 34.6116 112.425 34.69C112.499 34.7685 112.558 34.8618 112.596 34.9643Z" fill="#263238"/>
<path d="M113.091 42.0637L115.175 42.8777C115.129 43.0237 115.055 43.1586 114.958 43.2745C114.861 43.3905 114.742 43.4849 114.609 43.5523C114.476 43.6198 114.331 43.6587 114.183 43.6669C114.035 43.6751 113.887 43.6524 113.748 43.6C113.469 43.48 113.245 43.2536 113.123 42.9676C113.001 42.6817 112.989 42.358 113.091 42.0637Z" fill="#B16668"/>
<path d="M113.768 43.6C113.955 43.6718 114.157 43.6886 114.352 43.6485C114.336 43.374 114.219 43.1161 114.025 42.9277C113.832 42.7393 113.576 42.6346 113.31 42.6351C113.213 42.6346 113.116 42.651 113.024 42.6836C113.058 42.891 113.145 43.0852 113.276 43.2463C113.407 43.4073 113.577 43.5294 113.768 43.6Z" fill="#F28F8F"/>
<path d="M118.868 35.4009L117.341 34.8187C117.37 34.7085 117.42 34.6057 117.49 34.5173C117.559 34.4288 117.646 34.3567 117.745 34.3057C117.843 34.2547 117.951 34.226 118.061 34.2215C118.171 34.217 118.281 34.2369 118.383 34.2797C118.589 34.3652 118.754 34.5299 118.844 34.739C118.935 34.9482 118.943 35.1855 118.868 35.4009Z" fill="#263238"/>
<path d="M118.295 37.2822C118.29 37.4164 118.246 37.546 118.171 37.655C118.095 37.764 117.99 37.8475 117.869 37.8952C117.748 37.9429 117.615 37.9527 117.489 37.9233C117.362 37.8939 117.247 37.8267 117.157 37.7299C117.067 37.6332 117.007 37.5113 116.983 37.3792C116.96 37.2472 116.974 37.111 117.025 36.9875C117.076 36.8639 117.16 36.7586 117.268 36.6845C117.377 36.6104 117.503 36.5708 117.633 36.5707C117.722 36.5721 117.809 36.5916 117.891 36.6282C117.972 36.6648 118.046 36.7177 118.107 36.7839C118.169 36.85 118.217 36.9281 118.249 37.0136C118.281 37.0992 118.297 37.1905 118.295 37.2822Z" fill="#263238"/>
<path d="M115.029 37.1151L115.248 41.0125L117.331 40.274L115.248 37.072C115.173 37.0699 115.098 37.0846 115.029 37.1151Z" fill="#F28F8F"/>
<path d="M107.081 46.263C106.659 46.2953 106.476 46.36 106.133 47.0662C105.747 47.8694 105.414 48.6025 105.414 48.6025C105.503 49.7809 106.005 50.885 106.825 51.7075C107.645 52.5769 108.578 53.3243 109.596 53.9284C109.96 53.418 110.366 52.9418 110.81 52.5053C111.025 52.2704 111.321 52.1325 111.634 52.1214C111.947 52.1103 112.251 52.2269 112.482 52.446C112.29 52.0064 112.037 51.5979 111.732 51.2331C111.477 50.9528 110.44 50.6293 109.023 49.7076C108.129 49.0756 107.449 48.1685 107.081 47.1147V46.263Z" fill="#E0E0E0"/>
<path d="M112.846 52.4029C112.897 51.8158 113.107 51.2554 113.451 50.7857C113.815 50.0526 113.617 49.4758 113.623 48.8558C113.628 48.2359 113.623 46.8505 113.623 46.8505C113.885 46.8523 114.138 46.9444 114.344 47.1124C114.55 47.2803 114.695 47.5145 114.758 47.7777C115.06 48.5486 115.69 49.5027 115.69 51.2439C115.69 52.8071 115.55 53.0982 115.55 53.0982C115.107 52.6735 114.626 52.2943 114.112 51.9662C114.005 51.8931 113.883 51.8462 113.756 51.8289C113.628 51.8117 113.499 51.8246 113.377 51.8666C113.255 51.9086 113.144 51.9787 113.052 52.0716C112.96 52.1645 112.89 52.2778 112.846 52.4029Z" fill="#E0E0E0"/>
<path d="M100.549 49.1415C97.6271 49.1415 95.6322 51.163 93.6738 54.5321C92.1529 57.1358 86.4756 67.0922 85.3401 69.9007C84.2984 72.4559 84.2359 73.5124 86.0589 75.2913C87.5121 76.736 96.2364 84.4553 97.799 85.9485C98.923 87.1255 100.431 87.8253 102.028 87.9107C104.409 88.0616 105.544 87.156 105.95 86.6116C108.383 83.3449 103.742 82.7411 102.065 81.7223C101.248 81.222 100.505 80.6009 99.8616 79.8787L99.9397 78.5472C99.9397 78.5472 98.1063 78.5957 97.5333 78.1375C96.9604 77.6793 92.2883 71.712 92.2883 71.712L99.997 60.2462C101.57 58.3541 102.596 51.8045 100.549 49.1415Z" fill="#FFA8A7"/>
<path d="M101.039 49.1415C98.7052 48.775 96.4864 49.3626 94.1478 53.1899C91.8091 57.0172 85.8818 67.9278 85.2047 69.6366C84.5276 71.3454 83.5483 73.1405 85.4859 74.9948C87.4235 76.8492 89.3715 78.585 89.3715 78.585C89.8611 77.0864 92.0227 74.4881 93.804 73.6526L92.6789 71.8575C92.6789 71.8575 99.4501 61.4375 100.69 59.6101C101.929 57.7827 102.914 53.5834 101.039 49.1415Z" fill="#E0E0E0"/>
</g>
<defs>
<clipPath id="clip0">
<rect x="49.25" y="20" width="244" height="240" rx="8" fill="white"/>
</clipPath>
</defs>
</svg>
